<svg width="85" height="85" viewBox="0 0 85 85" fill="none" xmlns="http://www.w3.org/2000/svg">
<path d="M62.9556 51.8372L62.0815 56.9319C62.0015 57.3981 62.1932 57.8694 62.5758 58.1474C62.9584 58.4254 63.4654 58.4622 63.8845 58.242L68.4602 55.8366L73.0355 58.242C73.2175 58.3376 73.416 58.3847 73.6136 58.3847C73.8715 58.3847 74.1278 58.3047 74.3442 58.1472C74.727 57.8692 74.9187 57.3981 74.8385 56.9319L73.9648 51.837L77.6664 48.2287C78.0051 47.8986 78.1269 47.4047 77.9807 46.9548C77.8346 46.5049 77.4457 46.177 76.9776 46.1091L71.8621 45.3656L69.5743 40.7303C69.3649 40.3061 68.9329 40.0375 68.4598 40.0375C67.9868 40.0375 67.5548 40.3061 67.3454 40.7303L65.0573 45.3656L59.9419 46.1091C59.474 46.177 59.0849 46.5051 58.9388 46.9548C58.7926 47.4045 58.9146 47.8984 59.2531 48.2287L62.9556 51.8372ZM66.0619 47.7312C66.4665 47.6726 66.8165 47.4182 66.9974 47.0514L68.4602 44.0879L69.9226 47.0514C70.1037 47.4182 70.4535 47.6724 70.8581 47.7312L74.1285 48.2065L71.762 50.5134C71.469 50.7989 71.3355 51.2102 71.4047 51.6133L71.9633 54.8703L69.0384 53.3326C68.8573 53.2375 68.6588 53.1899 68.4602 53.1899C68.2617 53.1899 68.063 53.2375 67.8819 53.3326L64.9568 54.8703L65.5156 51.6135C65.5848 51.2102 65.4511 50.7989 65.1583 50.5133L62.7919 48.2065L66.0619 47.7312Z" fill="#219653"/>
<path d="M10.5957 39.3858L9.72166 44.4805C9.64163 44.9468 9.83334 45.418 10.2159 45.6961C10.5985 45.9741 11.1057 46.011 11.5246 45.7907L16.1003 43.3853L20.6757 45.7907C20.8576 45.8863 21.0561 45.9333 21.2538 45.9333C21.5116 45.9333 21.7679 45.8533 21.9843 45.6959C22.3671 45.4179 22.5588 44.9468 22.4786 44.4805L21.6049 39.3857L25.3065 35.7773C25.6452 35.4472 25.767 34.9533 25.6209 34.5034C25.4747 34.0536 25.0858 33.7257 24.6178 33.6577L19.5022 32.9144L17.2144 28.2789C17.005 27.8547 16.573 27.5861 16.1 27.5861C15.6269 27.5861 15.1949 27.8547 14.9855 28.2789L12.6974 32.9142L7.58203 33.6577C7.1141 33.7257 6.72505 34.0537 6.5789 34.5034C6.43276 34.9531 6.55471 35.4471 6.89323 35.7773L10.5957 39.3858ZM13.702 35.2801C14.1066 35.2214 14.4566 34.9671 14.6375 34.6002L16.1003 31.6367L17.5627 34.6002C17.7438 34.9671 18.0936 35.2212 18.4983 35.2801L21.7686 35.7553L19.4021 38.0623C19.1092 38.3478 18.9756 38.759 19.0449 39.1622L19.6035 42.4191L16.6786 40.8814C16.4975 40.7863 16.299 40.7388 16.1003 40.7388C15.9018 40.7388 15.7031 40.7863 15.522 40.8814L12.597 42.4191L13.1557 39.1623C13.225 38.759 13.0913 38.3478 12.7985 38.0623L10.432 35.7553L13.702 35.2801Z" fill="#219653"/>
<path d="M35.3448 8.24405V9.7547C35.3448 13.3018 37.9234 16.256 41.3039 16.8468V20.3326C38.2586 20.8283 35.8444 23.2233 35.3188 26.2585H33.5795C31.9767 26.2585 31.9767 28.744 33.5795 28.744H51.421C53.0238 28.744 53.0238 26.2585 51.421 26.2585H49.6308C49.1135 23.2714 46.7668 20.9049 43.7895 20.3583V16.8467C47.1701 16.256 49.7486 13.3016 49.7486 9.75454V8.23096C51.3352 8.01754 52.5961 7.38027 53.5055 6.32645C55.3454 4.19377 54.9247 1.18738 54.9059 1.06062C54.8155 0.451356 54.2925 0 53.6765 0H48.5058H48.4461H36.5877C36.5821 0 36.5768 0.000828481 36.5712 0.000828481C36.5655 0.000828481 36.5602 0 36.5546 0H31.3241C30.708 0 30.1851 0.451356 30.0948 1.06062C30.076 1.18754 29.6553 4.19377 31.4952 6.32645C32.4221 7.40115 33.7141 8.04356 35.3448 8.24405ZM47.0899 26.2587H37.8596C38.4081 24.2243 40.2693 22.7224 42.4749 22.7224C44.6802 22.7224 46.5414 24.2241 47.0899 26.2587ZM51.6233 4.70296C51.1849 5.21115 50.5566 5.54817 49.7485 5.71188V2.48544H52.455C52.3965 3.16297 52.1985 4.03619 51.6233 4.70296ZM37.8303 2.48544H47.263V6.92544C47.2576 6.97283 47.2539 7.02088 47.2539 7.06993C47.2539 7.11897 47.2574 7.16686 47.263 7.21441V9.7547C47.263 12.3551 45.1473 14.4709 42.5467 14.4709C39.9461 14.4709 37.8303 12.3551 37.8303 9.7547V2.48544ZM35.3448 2.48544V5.72911C34.4973 5.57402 33.8403 5.23484 33.3858 4.71306C32.8041 4.04564 32.6046 3.16662 32.5457 2.48544H35.3448Z" fill="#219653"/>
<path d="M83.6758 82.5146H81.7565V66.2313C81.7565 64.4694 80.3236 63.0361 78.5622 63.0361H57.1795C56.8739 63.0361 56.5791 63.0819 56.2991 63.1624V36.9254C56.2991 35.1636 54.8665 33.7303 53.1055 33.7303H31.7229C29.962 33.7303 28.5294 35.1636 28.5294 36.9254V50.1349C28.3011 50.0828 28.0646 50.0528 27.8209 50.0528H6.4383C4.67695 50.0528 3.24401 51.4858 3.24401 53.2473V62.9624C3.24401 64.5652 5.72945 64.5652 5.72945 62.9624V53.2473C5.72945 52.8564 6.04743 52.5383 6.4383 52.5383H27.8207C28.2114 52.5383 28.5293 52.8564 28.5293 53.2473V82.5146H5.72945V69.0932C5.72945 67.4904 3.24401 67.4904 3.24401 69.0932V82.5146H1.32475C0.638273 82.5146 0.0820312 83.0708 0.0820312 83.7573C0.0820312 84.4438 0.638273 85 1.32475 85H83.6758C84.3622 85 84.9185 84.4438 84.9185 83.7573C84.9185 83.0708 84.3621 82.5146 83.6758 82.5146ZM31.0147 82.5146V53.2473V36.9254C31.0147 36.5342 31.3323 36.2157 31.7227 36.2157H53.1055C53.4959 36.2157 53.8137 36.5342 53.8137 36.9254V82.5147H31.0147V82.5146ZM56.4711 82.5146V66.2313C56.4711 65.8401 56.7889 65.5216 57.1795 65.5216H78.562C78.9529 65.5216 79.2709 65.8401 79.2709 66.2313V82.5146H56.4711Z" fill="#333333"/>
</svg>
