<svg width="85" height="85" viewBox="0 0 85 85" fill="none" xmlns="http://www.w3.org/2000/svg">
<path d="M60.8539 22.7999C60.5306 22.0993 59.7004 21.7935 59 22.1168C58.2994 22.4402 57.9936 23.2703 58.3168 23.9708C59.3742 26.2617 59.9104 28.7136 59.9104 31.2584C59.9104 40.8586 52.1002 48.6688 42.5002 48.6688C32.9 48.6688 25.0898 40.8586 25.0898 31.2584C25.0898 21.6584 32.9 13.848 42.5002 13.848C47.4098 13.848 52.1165 15.9373 55.413 19.5802C55.931 20.1523 56.8141 20.1963 57.3866 19.6788C57.9587 19.1609 58.0029 18.2775 57.4849 17.7052C53.6594 13.4782 48.1977 11.0538 42.5002 11.0538C31.3592 11.0538 22.2954 20.1176 22.2954 31.2586C22.2954 42.3996 31.3592 51.4634 42.5002 51.4634C53.641 51.4634 62.7048 42.3996 62.7048 31.2586C62.7046 28.3065 62.0819 25.4605 60.8539 22.7999Z" fill="#333333"/>
<path d="M70.4044 31.2584C70.4044 30.1889 70.8725 28.9503 71.3683 27.6389C72.1166 25.6592 72.8904 23.6119 72.2362 21.5971C71.5545 19.498 69.596 18.2222 67.8681 17.0961C66.7333 16.3567 65.6611 15.6584 65.0771 14.8557C64.4806 14.0361 64.1414 12.7879 63.7822 11.4664C63.2451 9.48995 62.6363 7.2499 60.8761 5.96892C59.1336 4.7009 56.9259 4.80499 54.7913 4.9056C53.4123 4.97067 52.1099 5.0321 51.1255 4.71235C50.2092 4.41485 49.2296 3.62296 48.1925 2.78458C46.5773 1.4797 44.7467 0 42.5001 0C40.2534 0 38.4228 1.4797 36.8076 2.78524C35.7705 3.62346 34.7909 4.41535 33.875 4.71285C32.8905 5.0326 31.5879 4.97101 30.209 4.90609C28.0744 4.80532 25.8665 4.70123 24.124 5.96942C22.3638 7.2504 21.7552 9.49045 21.2179 11.4669C20.8588 12.7883 20.5195 14.0366 19.923 14.8562C19.339 15.6588 18.2668 16.3572 17.1319 17.0966C15.4039 18.2224 13.4454 19.4984 12.7641 21.5973C12.1098 23.6121 12.8836 25.6594 13.632 27.6393C14.1276 28.9506 14.5957 30.1893 14.5957 31.2587C14.5957 32.3282 14.1276 33.5669 13.6318 34.8782C12.8834 36.8581 12.1096 38.9054 12.7639 40.9202C13.4456 43.0191 15.4041 44.2951 17.1319 45.4209C18.2668 46.1603 19.339 46.8587 19.923 47.6613C20.5195 48.4809 20.8587 49.7293 21.2179 51.0506C21.755 53.027 22.3638 55.2671 24.124 56.5481C25.8664 57.8161 28.074 57.712 30.2088 57.6114C31.5876 57.5462 32.8901 57.4849 33.8746 57.8046C34.7909 58.1021 35.7705 58.894 36.8078 59.7324C37.5882 60.3631 38.4198 61.0333 39.3234 61.5589L33.9668 80.7734L29.0231 75.2643C28.6602 74.8599 28.096 74.7027 27.576 74.8608L20.4979 77.0176L24.9357 61.1034C25.1429 60.3601 24.7084 59.5896 23.9651 59.3823C23.2216 59.1753 22.4513 59.6096 22.2441 60.3528L17.1217 78.7216C16.9847 79.213 17.1263 79.7401 17.4914 80.0965C17.8564 80.4532 18.387 80.5822 18.8748 80.4334L27.5381 77.7934L33.5882 84.5358C33.8565 84.8348 34.2364 85 34.6282 84.9998C34.7339 84.9998 34.8407 84.9879 34.9464 84.9631C35.4433 84.8469 35.8371 84.4692 35.9742 83.9778L41.9654 62.4855C42.1412 62.5039 42.3187 62.5165 42.4998 62.5165C42.6804 62.5165 42.8577 62.5037 43.0332 62.4855L49.0269 83.9778C49.1638 84.4692 49.558 84.8469 50.0547 84.9631C50.1603 84.9877 50.2668 84.9998 50.3726 84.9998C50.7645 84.9998 51.1444 84.8346 51.4127 84.5356L57.4608 77.7933L66.126 80.4331C66.6137 80.5816 67.144 80.4527 67.5092 80.0962C67.8741 79.7396 68.0159 79.2127 67.8789 78.7215L61.5348 55.969C62.7994 54.6567 63.3182 52.7558 63.7817 51.0498C64.1408 49.7283 64.4801 48.48 65.0766 47.6604C65.6606 46.8579 66.7328 46.1595 67.8676 45.42C69.5957 44.2943 71.5542 43.0183 72.2355 40.9195C72.8898 38.9048 72.116 36.8575 71.3676 34.8776C70.8724 33.5665 70.4044 32.3281 70.4044 31.2584ZM64.5033 77.0176L57.4231 74.8608C56.9033 74.702 56.3387 74.8598 55.9758 75.2643L51.0342 80.7732L45.6757 61.5588C46.5798 61.033 47.4115 60.3628 48.1923 59.7316C49.2294 58.8934 50.2091 58.1016 51.1253 57.8038C52.1101 57.4841 53.4125 57.5457 54.7913 57.6106C56.227 57.6783 57.6949 57.7457 59.0328 57.3981L64.5033 77.0176ZM69.5783 40.0571C69.2017 41.2167 67.813 42.1215 66.3426 43.0794C65.0457 43.9244 63.7045 44.7981 62.8176 46.0169C61.9186 47.2522 61.495 48.8106 61.0856 50.3177C60.6289 51.9984 60.1974 53.5857 59.2318 54.2886C58.2836 54.9784 56.6513 54.9015 54.9227 54.82C53.3542 54.7463 51.7321 54.6694 50.2622 55.1467C48.8544 55.6039 47.6249 56.5977 46.4357 57.5589C45.0588 58.6719 43.7585 59.7228 42.5 59.7228C41.2414 59.7228 39.9408 58.6716 38.5641 57.5586C37.3751 56.5975 36.1452 55.6034 34.7376 55.1466C33.8105 54.8456 32.8229 54.7649 31.8265 54.7649C31.2431 54.7649 30.6564 54.7925 30.0772 54.8199C28.349 54.9015 26.7165 54.9784 25.7682 54.2884C24.8027 53.5857 24.3712 51.9982 23.9145 50.3175C23.5051 48.8104 23.0815 47.2519 22.1825 46.0167C21.2958 44.7982 19.9547 43.9244 18.6575 43.0792C17.1871 42.1213 15.7983 41.2164 15.4218 40.0567C15.0707 38.9753 15.6416 37.4649 16.2459 35.866C16.8085 34.3775 17.3903 32.8386 17.3903 31.2587C17.3903 29.6789 16.8085 28.1396 16.2461 26.6515C15.6416 25.0526 15.0709 23.5422 15.422 22.4606C15.7985 21.301 17.1872 20.3962 18.6576 19.4383C19.9545 18.5933 21.2958 17.7195 22.1826 16.5011C23.0816 15.2658 23.5053 13.7074 23.9147 12.2003C24.3714 10.5196 24.8029 8.9323 25.7684 8.22939C26.7165 7.53943 28.3493 7.6163 30.0775 7.69798C31.6459 7.77185 33.2682 7.84855 34.7381 7.37126C36.1459 6.91405 37.3754 5.92028 38.5646 4.95922C39.9412 3.84592 41.2417 2.79471 42.5001 2.79471C43.7585 2.79471 45.0593 3.84592 46.4359 4.95855C47.6249 5.91978 48.8547 6.91372 50.2624 7.37076C51.7323 7.84806 53.3541 7.77169 54.9227 7.69748C56.651 7.61613 58.2836 7.5391 59.2317 8.2289C60.1972 8.93164 60.6287 10.5191 61.0854 12.1998C61.4948 13.7069 61.9185 15.2655 62.8175 16.5006C63.7041 17.7192 65.0452 18.5929 66.3423 19.4378C67.8127 20.3957 69.2014 21.3005 69.5781 22.4603C69.9292 23.5418 69.3585 25.0521 68.754 26.6511C68.1914 28.1395 67.6097 29.6786 67.6097 31.2584C67.6097 32.8384 68.1917 34.3772 68.7543 35.8657C69.3586 37.4647 69.9296 38.9752 69.5783 40.0571Z" fill="#333333"/>
<path d="M47.8964 22.569H37.1037C36.3321 22.569 35.7065 23.1945 35.7065 23.9662C35.7065 24.7378 36.3321 25.3633 37.1037 25.3633H47.8964C48.6681 25.3633 49.2936 24.7378 49.2936 23.9662C49.2936 23.1945 48.6681 22.569 47.8964 22.569Z" fill="#219653"/>
<path d="M47.8964 37.1534H37.1037C36.3321 37.1534 35.7065 37.779 35.7065 38.5506C35.7065 39.3223 36.3321 39.9478 37.1037 39.9478H47.8964C48.6681 39.9478 49.2936 39.3223 49.2936 38.5506C49.2936 37.779 48.6681 37.1534 47.8964 37.1534Z" fill="#219653"/>
<path d="M51.7655 29.8612H47.5569C46.7852 29.8612 46.1597 30.4868 46.1597 31.2584C46.1597 32.03 46.7852 32.6556 47.5569 32.6556H51.7655C52.5372 32.6556 53.1627 32.0302 53.1627 31.2584C53.1627 30.4868 52.5372 29.8612 51.7655 29.8612Z" fill="#219653"/>
<path d="M43.1813 29.8612H33.2346C32.4629 29.8612 31.8374 30.4868 31.8374 31.2584C31.8374 32.03 32.4629 32.6556 33.2346 32.6556H43.1813C43.9529 32.6556 44.5784 32.03 44.5784 31.2584C44.5784 30.4868 43.9529 29.8612 43.1813 29.8612Z" fill="#219653"/>
</svg>
