<svg width="70" height="70" viewBox="0 0 70 70" fill="none" xmlns="http://www.w3.org/2000/svg">
<path d="M52.9054 26.5016H40.7762C40.5263 25.1852 39.8048 24.4407 39.2029 23.819C38.4957 23.0891 37.9843 22.5615 37.9843 21.1123C37.9843 20.5534 37.539 20.1005 36.9896 20.1005C36.4401 20.1005 35.9948 20.5534 35.9948 21.1123C35.9948 23.3906 36.988 24.4158 37.7857 25.2394C38.2058 25.6729 38.5341 26.0136 38.7168 26.5016H34.8078C34.5579 25.1852 33.8363 24.4407 33.2344 23.8194C32.5272 23.0891 32.0159 22.5615 32.0159 21.1123C32.0159 19.7255 32.5171 19.2323 33.2111 18.549C34.0081 17.7645 35.0001 16.7879 35.0001 14.5728C35.0001 11.993 33.916 10.9714 33.1245 10.2252C32.8645 9.97979 32.6395 9.76756 32.4721 9.52728C32.155 9.07122 31.5341 8.96333 31.0857 9.28621C30.6372 9.60869 30.5312 10.2402 30.8482 10.6963C31.1354 11.1085 31.4738 11.4274 31.7723 11.7092C32.4643 12.3613 33.0106 12.8766 33.0106 14.5728C33.0106 15.9304 32.5144 16.4188 31.8274 17.095C31.025 17.885 30.0264 18.8679 30.0264 21.1123C30.0264 23.3906 31.0192 24.4158 31.8173 25.2394C32.2374 25.6729 32.5657 26.0136 32.7483 26.5016H27.8427C27.7482 26.0092 27.5823 25.5528 27.3476 25.152C27.0869 24.7019 26.7784 24.3517 26.4842 24.0403C26.4263 23.9806 26.3696 23.9218 26.3148 23.8652C25.953 23.491 25.6674 23.1954 25.4634 22.8504C25.2536 22.4903 25.0578 22.0307 25.0527 21.1123C25.0547 20.5163 25.1402 20.0741 25.3313 19.6765C25.4953 19.3418 25.725 19.0738 26.0207 18.775C26.2087 18.5841 26.3129 18.33 26.314 18.0597C26.314 17.7898 26.2114 17.5357 26.0234 17.3436C25.8357 17.1515 25.5858 17.046 25.3193 17.046C25.0535 17.046 24.8048 17.1503 24.6171 17.3404C24.2577 17.7036 23.8501 18.1589 23.5486 18.7782C23.2245 19.439 23.0613 20.225 23.0633 21.1123C23.0601 22.0845 23.2513 22.9424 23.629 23.6617C24.009 24.3762 24.4854 24.8627 24.8685 25.2544C25.0209 25.4101 25.165 25.5567 25.2812 25.6974C25.512 25.9646 25.6542 26.1839 25.758 26.4309C25.7673 26.4542 25.7759 26.4779 25.7844 26.5016H17.0948C16.5454 26.5016 16.1001 26.9545 16.1001 27.5134V39.654C16.1001 40.2128 16.5454 40.6657 17.0948 40.6657H19.0843V59.8884C19.0843 60.4472 19.5296 60.9001 20.079 60.9001H49.9211C50.4706 60.9001 50.9159 60.4472 50.9159 59.8884V40.6657H52.9054C53.4548 40.6657 53.9001 40.2128 53.9001 39.654V27.5134C53.9001 26.9545 53.4548 26.5016 52.9054 26.5016ZM38.979 40.6657V43.7009H31.0211V40.6657H38.979ZM48.9264 45.7243V48.7595H45.9422V45.7243H48.9264ZM40.9685 53.8181V50.7829H48.9264V53.8181H40.9685ZM31.0211 53.8181V50.7829H38.979V53.8181H31.0211ZM21.0738 53.8181V50.7829H29.0317V53.8181H21.0738ZM34.0054 45.7243V48.7595H26.0475V45.7243H34.0054ZM24.058 48.7595H21.0738V45.7243H24.058V48.7595ZM43.9527 48.7595H35.9948V45.7243H43.9527V48.7595ZM29.0317 43.7009H21.0738V40.6657H29.0317V43.7009ZM21.0738 55.8415H24.058V58.8767H21.0738V55.8415ZM26.0475 55.8415H34.0054V58.8767H26.0475V55.8415ZM35.9948 55.8415H43.9527V58.8767H35.9948V55.8415ZM48.9264 58.8767H45.9422V55.8415H48.9264V58.8767ZM48.9264 43.7009H40.9685V40.6657H48.9264V43.7009ZM51.9106 38.6423H18.0896V28.5251H51.9106V38.6423Z" fill="#333333"/>
<path d="M36.0502 34.2998H29.7502C29.1702 34.2998 28.7002 34.7698 28.7002 35.3498C28.7002 35.9298 29.1702 36.3998 29.7502 36.3998H36.0502C36.6302 36.3998 37.1002 35.9298 37.1002 35.3498C37.1002 34.7698 36.6302 34.2998 36.0502 34.2998Z" fill="#333333"/>
<path d="M32.1998 31.8498C32.1998 31.2711 31.7285 30.7998 31.1498 30.7998H24.8498C24.2711 30.7998 23.7998 31.2711 23.7998 31.8498C23.7998 32.4281 24.2711 32.8998 24.8498 32.8998H31.1498C31.7285 32.8998 32.1998 32.4281 32.1998 31.8498Z" fill="#333333"/>
<path d="M20.6501 30.7998C20.0714 30.7998 19.6001 31.2711 19.6001 31.8498C19.6001 32.4281 20.0714 32.8998 20.6501 32.8998C21.2288 32.8998 21.7001 32.4281 21.7001 31.8498C21.7001 31.2711 21.2288 30.7998 20.6501 30.7998Z" fill="#333333"/>
<path d="M45.1501 32.8998H49.3501C49.9301 32.8998 50.4001 32.4298 50.4001 31.8498C50.4001 31.2698 49.9301 30.7998 49.3501 30.7998H45.1501C44.5701 30.7998 44.1001 31.2698 44.1001 31.8498C44.1001 32.4298 44.5701 32.8998 45.1501 32.8998Z" fill="#333333"/>
<path d="M37.651 11.635C38.4333 12.2685 39.0509 12.7692 39.0509 14.4172C39.0509 14.9601 39.5543 15.4001 40.1754 15.4001C40.7965 15.4001 41.2999 14.9601 41.2999 14.4172C41.2999 11.9107 40.0744 10.9181 39.1796 10.1932C38.8857 9.95476 38.6314 9.74858 38.4421 9.51513C38.0836 9.07204 37.3817 8.96722 36.8748 9.28091C36.3679 9.59423 36.248 10.2078 36.6064 10.6509C36.931 11.0514 37.3136 11.3612 37.651 11.635Z" fill="#333333"/>
<path d="M43.7137 21.6993C43.7264 21.7001 43.7379 21.7001 43.7506 21.7001C44.0237 21.7001 44.2821 21.5963 44.4793 21.4059C44.6753 21.216 44.7897 20.9608 44.7996 20.6868C44.809 20.4062 44.7094 20.1387 44.5179 19.9336C44.3272 19.728 44.0668 19.6103 43.7863 19.6008C43.4996 19.5902 43.2278 19.6952 43.0219 19.8938C42.8247 20.0837 42.7102 20.3393 42.7008 20.6133C42.6811 21.1918 43.1355 21.6792 43.7137 21.6993Z" fill="#333333"/>
<path d="M43.6074 10.6489C43.9258 11.0405 44.2834 11.3309 44.5711 11.5643C45.0143 11.9214 45.3639 12.2027 45.609 12.5793C45.8124 12.8943 46.0465 13.3867 46.0509 14.4059C46.0496 14.9454 45.9631 15.3497 45.7711 15.7156C45.6248 15.9892 45.4245 16.2268 45.0815 16.5356C44.8715 16.723 44.7591 16.9701 44.7621 17.2322C44.767 17.4951 44.8869 17.7391 45.103 17.9227C45.3143 18.1012 45.5923 18.2001 45.8866 18.2001C46.1937 18.2001 46.4792 18.0951 46.6931 17.9039C47.0427 17.5909 47.4859 17.1525 47.8106 16.5413C48.1369 15.9302 48.3021 15.2121 48.2999 14.4059C48.2999 13.6292 48.1887 12.9652 47.9581 12.3755C47.695 11.6907 47.2395 11.0807 46.5648 10.5086C46.4309 10.396 46.3074 10.2948 46.1871 10.1979C45.8642 9.93388 45.609 9.72582 45.4425 9.51393C45.2321 9.25528 44.8882 9.1001 44.5241 9.1001C44.2899 9.1001 44.0664 9.16179 43.8749 9.28057C43.6298 9.43154 43.4668 9.65723 43.4163 9.91511C43.3658 10.1741 43.433 10.4343 43.606 10.6481C43.6065 10.6481 43.6074 10.6481 43.6074 10.6489Z" fill="#333333"/>
<path d="M26.9479 15.3998H26.9499C27.5274 15.3998 27.9978 14.9306 27.9999 14.3531V14.3519C28.0011 13.7723 27.5307 13.301 26.952 13.2998H26.9499C26.3724 13.2998 25.9011 13.7703 25.8999 14.3478C25.8987 14.9265 26.3691 15.399 26.9479 15.3998Z" fill="#333333"/>
</svg>
