<svg width="70" height="70" viewBox="0 0 70 70" fill="none" xmlns="http://www.w3.org/2000/svg">
<path d="M14.0928 20.6704C13.5265 20.6704 13.0674 20.2113 13.0674 19.645C13.0674 19.0787 13.5265 18.6196 14.0928 18.6196C14.6591 18.6196 15.1182 19.0787 15.1182 19.645C15.1182 20.2113 14.6591 20.6704 14.0928 20.6704Z" fill="#333333"/>
<path d="M55.9072 20.6704C55.3409 20.6704 54.8818 20.2113 54.8818 19.645C54.8818 19.0787 55.3409 18.6196 55.9072 18.6196C56.4735 18.6196 56.9326 19.0787 56.9326 19.645C56.9326 20.2113 56.4737 20.6704 55.9072 20.6704Z" fill="#333333"/>
<path fill-rule="evenodd" clip-rule="evenodd" d="M68.9746 32.994H59.5458V24.5899H63.7477C64.3141 24.5899 64.7731 24.131 64.7731 23.5646V16.6997C64.7731 15.5951 63.8777 14.6997 62.7731 14.6997H62.7225H7.27754H7.22676C6.12219 14.6997 5.22676 15.5951 5.22676 16.6997V23.5646C5.22676 24.131 5.68572 24.5899 6.25215 24.5899H10.4541V32.994H1.02539C0.458965 32.994 0 33.453 0 34.0194V39.2461C0 39.8125 0.458965 40.2714 1.02539 40.2714H5.2273V44.4723C5.2273 45.0387 5.68627 45.4977 6.2527 45.4977H7.84082V54.9259C7.84082 55.4923 8.29978 55.9513 8.86621 55.9513H14.093C14.6594 55.9513 15.1184 55.4923 15.1184 54.9259V45.4977H16.7062C17.2726 45.4977 17.7316 45.0387 17.7316 44.4723V40.2714H36.4219C36.9883 40.2714 37.4473 39.8125 37.4473 39.2461C37.4473 38.6796 36.9883 38.2207 36.4219 38.2207H2.05078V35.0448H67.9492V38.2207H40.8912C40.3248 38.2207 39.8658 38.6796 39.8658 39.2461C39.8658 39.8125 40.3248 40.2714 40.8912 40.2714H52.2684V44.4723C52.2684 45.0387 52.7274 45.4977 53.2938 45.4977H54.8816V54.9259C54.8816 55.4923 55.3406 55.9513 55.907 55.9513H61.1338C61.7002 55.9513 62.1592 55.4923 62.1592 54.9259V45.4977H63.7472C64.3136 45.4977 64.7726 45.0387 64.7726 44.4723V40.2714H68.9746C69.541 40.2714 70 39.8125 70 39.2461V34.0194C70 33.453 69.541 32.994 68.9746 32.994ZM9.8916 53.9005V45.4977H13.0676V53.9005H9.8916ZM7.27809 40.2714H15.6808V43.4469H7.27809V40.2714ZM15.6808 24.5906V32.9934H12.505V24.5906H15.6808ZM52.2684 32.994H17.7316V24.5899H20.7416C21.3079 24.5899 21.767 24.131 21.767 23.5646C21.767 22.9981 21.3079 22.5392 20.7416 22.5392H7.27754V16.7504H62.7225V22.5392H25.2109C24.6445 22.5392 24.1855 22.9981 24.1855 23.5646C24.1855 24.131 24.6445 24.5899 25.2109 24.5899H52.2683L52.2684 32.994ZM57.495 32.9934H54.3192V24.5906H57.495V32.9934ZM56.9324 53.9005V45.4977H60.1084V53.9005H56.9324ZM62.7219 43.4469H54.3192V40.2714H62.7219V43.4469Z" fill="#333333"/>
</svg>
