<svg width="45" height="45" viewBox="0 0 45 45" fill="none" xmlns="http://www.w3.org/2000/svg">
<path fill-rule="evenodd" clip-rule="evenodd" d="M5.27109 1.97666H39.7289C41.5484 1.97666 43.0233 3.45163 43.0233 5.27109V39.7289C43.0233 41.5484 41.5484 43.0233 39.7289 43.0233H5.2711C3.45163 43.0233 1.97666 41.5484 1.97666 39.7289V5.2711C1.97666 3.45163 3.45163 1.97666 5.27109 1.97666ZM0 5.2711C0 2.35995 2.35995 0 5.27109 0H39.7289C42.6401 0 45 2.35995 45 5.27109V39.7289C45 42.64 42.6401 45 39.7289 45H5.2711C2.35995 45 0 42.64 0 39.7289V5.2711ZM15.5249 15.5275C16.3935 14.6589 17.8018 14.6589 18.6704 15.5275L22.3119 19.169C22.4148 19.2719 22.5817 19.2719 22.6846 19.169L26.3262 15.5274C27.1948 14.6588 28.6032 14.6588 29.4718 15.5274C30.3404 16.3961 30.3404 17.8044 29.4718 18.673L25.8302 22.3146C25.7273 22.4175 25.7273 22.5844 25.8302 22.6873L29.4717 26.3288C30.3403 27.1974 30.3403 28.6057 29.4717 29.4743C28.6031 30.343 27.1947 30.343 26.3261 29.4743L22.6846 25.8329C22.5817 25.73 22.4148 25.73 22.3119 25.8329L18.6705 29.4743C17.8019 30.3429 16.3936 30.3429 15.525 29.4743C14.6563 28.6056 14.6563 27.1973 15.525 26.3287L19.1663 22.6873C19.2693 22.5844 19.2693 22.4175 19.1663 22.3146L15.5249 18.6731C14.6562 17.8045 14.6562 16.3962 15.5249 15.5275Z" fill="#333333"/>
</svg>
