<svg width="20" height="15" viewBox="0 0 20 15" fill="none" xmlns="http://www.w3.org/2000/svg">
<path fill-rule="evenodd" clip-rule="evenodd" d="M9.99433 1.73056C14.7283 1.73056 17.2661 5.34124 18.1774 7.00759C17.2661 8.67395 14.7283 12.2846 9.99433 12.2846C5.54083 12.2846 2.84797 8.68946 1.83036 6.97292C2.75994 5.2878 5.2951 1.73056 9.99433 1.73056ZM19.8906 6.54842C20.0365 6.83883 20.0365 7.17636 19.8906 7.46677C19.1077 9.02507 16.1222 14.0152 9.99433 14.0152C4.18608 14.0152 0.997916 9.06236 0.129567 7.48441C-0.0359727 7.18359 -0.0437564 6.82878 0.111218 6.52239C0.913943 4.93535 3.90017 0 9.99433 0C16.1222 0 19.1077 4.99011 19.8906 6.54842ZM8.06966 7.06906C8.06966 6.00626 8.93123 5.14469 9.99404 5.14469C11.0568 5.14469 11.9184 6.00626 11.9184 7.06906C11.9184 8.13187 11.0568 8.99344 9.99404 8.99344C8.93123 8.99344 8.06966 8.13187 8.06966 7.06906ZM9.99404 3.41412C7.97547 3.41412 6.3391 5.0505 6.3391 7.06906C6.3391 9.08763 7.97547 10.724 9.99404 10.724C12.0126 10.724 13.649 9.08763 13.649 7.06906C13.649 5.0505 12.0126 3.41412 9.99404 3.41412Z" fill="white"/>
</svg>
