<svg width="57" height="65" viewBox="0 0 57 65" fill="none" xmlns="http://www.w3.org/2000/svg">
<path fill-rule="evenodd" clip-rule="evenodd" d="M46.1999 32.4001C46.2999 31.9001 45.8999 31.4001 45.2999 31.4001C44.7999 31.3001 44.2999 31.7001 44.2999 32.3001C43.2999 42.9001 34.1999 51.1001 23.5999 51.1001C12.0999 51.1001 2.7999 41.8001 2.7999 30.3001C2.7999 18.8001 12.0999 9.5001 23.5999 9.5001C28.3999 9.5001 33.0999 11.2001 36.7999 14.2001L38.1999 12.9001C34.0999 9.5001 28.9999 7.6001 23.5999 7.6001C11.0999 7.6001 0.899902 17.8001 0.899902 30.3001C0.899902 37.9001 4.5999 44.6001 10.2999 48.7001L9.0999 53.2001C8.9999 53.7001 9.2999 54.2001 9.7999 54.4001C10.2999 54.5001 10.6999 54.3001 10.9999 53.7001L11.9999 49.8001C12.5999 50.1001 13.0999 50.4001 13.6999 50.7001L10.3999 63.1001H8.3999L9.8999 57.7001C9.9999 57.2001 9.6999 56.7001 9.1999 56.5001C8.6999 56.4001 8.1999 56.7001 7.9999 57.2001L6.1999 63.8001C6.0999 64.5001 6.3999 64.9001 7.0999 65.0001H10.9999C11.3999 65.0001 11.7999 64.7001 11.8999 64.3001L12.7999 61.1001H20.4999V64.1001C20.4999 64.6001 20.8999 65.1001 21.4999 65.1001H25.3999C25.8999 65.1001 26.3999 64.7001 26.3999 64.1001V61.1001H34.1999L35.0999 64.3001C35.1999 64.7001 35.5999 65.0001 35.9999 65.0001H39.9999C40.6999 64.9001 40.9999 64.5001 40.8999 63.8001L36.8999 48.7001C42.0999 44.9001 45.4999 38.9001 46.1999 32.4001ZM26.4999 52.8001C28.2999 52.6001 29.9999 52.1001 31.6999 51.5001L32.6999 55.2001H26.4999V52.8001ZM22.4999 52.9001C23.1999 52.9001 23.8999 52.9001 24.4999 52.9001V55.2001H22.4999V52.9001ZM15.4999 51.5001C17.0999 52.1001 18.8999 52.6001 20.6999 52.8001V55.2001H14.4999L15.4999 51.5001ZM24.5999 63.1001H22.5999V61.1001H24.5999V63.1001ZM13.3999 59.2001L13.8999 57.2001H33.0999L33.5999 59.2001H13.3999ZM38.6999 63.1001H36.6999L33.3999 50.7001C33.9999 50.4001 34.5999 50.1001 35.0999 49.8001L38.6999 63.1001ZM39.1999 20.0001L37.7999 21.3001C39.4999 24.0001 40.3999 27.1001 40.3999 30.3001C40.3999 39.6001 32.8999 47.1001 23.5999 47.1001C14.2999 47.1001 6.7999 39.6001 6.7999 30.3001C6.7999 21.0001 14.2999 13.5001 23.5999 13.5001C27.2999 13.5001 30.8999 14.7001 33.8999 17.0001L35.2999 15.7001C31.9999 13.1001 27.8999 11.6001 23.5999 11.6001C13.2999 11.6001 4.8999 20.0001 4.8999 30.3001C4.8999 40.6001 13.2999 49.0001 23.5999 49.0001C33.8999 49.0001 42.2999 40.6001 42.2999 30.3001C42.2999 26.6001 41.1999 23.1001 39.1999 20.0001ZM36.2999 22.7001L34.8999 24.0001L33.2999 25.5001L34.8999 24.0001C35.9999 25.9001 36.4999 28.0001 36.4999 30.2001C36.4999 37.3001 30.6999 43.1001 23.5999 43.1001C16.4999 43.1001 10.6999 37.3001 10.6999 30.2001C10.6999 23.9001 15.3999 18.4001 21.5999 17.5001C22.0999 17.4001 22.4999 16.9001 22.3999 16.4001C22.2999 15.9001 21.7999 15.5001 21.2999 15.6001C17.7999 16.1001 14.6999 17.9001 12.3999 20.5001C10.0999 23.2001 8.7999 26.6001 8.7999 30.2001C8.7999 38.4001 15.3999 45.0001 23.5999 45.0001C31.7999 45.0001 38.3999 38.4001 38.3999 30.2001C38.3999 27.6001 37.6999 25.0001 36.2999 22.7001ZM33.1999 25.6001L31.6999 27.0001C32.0999 28.0001 32.3999 29.2001 32.3999 30.3001C32.3999 35.2001 28.3999 39.1001 23.5999 39.1001C18.7999 39.1001 14.7999 35.1001 14.7999 30.3001C14.7999 25.4001 18.7999 21.5001 23.5999 21.5001C25.0999 21.5001 26.5999 21.9001 27.8999 22.6001L29.3999 21.2001C27.6999 20.1001 25.6999 19.5001 23.6999 19.5001C17.7999 19.5001 12.9999 24.3001 12.9999 30.2001C12.9999 36.1001 17.7999 40.9001 23.6999 40.9001C29.5999 40.9001 34.3999 36.1001 34.3999 30.2001C34.2999 28.6001 33.9999 27.0001 33.1999 25.6001ZM25.6999 15.6001C25.1999 15.5001 24.6999 15.9001 24.5999 16.4001C24.4999 16.9001 24.8999 17.4001 25.3999 17.5001C27.3999 17.8001 29.1999 18.5001 30.8999 19.6001L32.2999 18.3001C30.3999 16.9001 28.0999 16.0001 25.6999 15.6001ZM29.9999 28.6001L28.2999 30.2001C28.3999 32.7001 26.0999 35.0001 23.5999 35.0001C20.9999 35.0001 18.8999 32.9001 18.8999 30.3001C18.8999 27.4001 21.7999 25.1001 24.5999 25.7001L26.1999 24.2001C25.3999 23.9001 24.4999 23.7001 23.6999 23.7001C19.9999 23.7001 17.0999 26.7001 17.0999 30.3001C17.0999 33.9001 20.0999 36.9001 23.6999 36.9001C27.3999 36.9001 30.2999 33.9001 30.2999 30.3001C30.1999 29.7001 30.0999 29.1001 29.9999 28.6001Z" fill="#333333"/>
<path fill-rule="evenodd" clip-rule="evenodd" d="M54.5999 8.40021H51.6999L55.1999 5.10021C56.3999 3.70021 56.4999 2.40021 55.3999 0.900212C53.9999 -0.299788 52.6999 -0.299788 51.1999 0.800212L47.1999 4.50021V1.00021C47.1999 0.000212431 46.0999 -0.199788 45.5999 0.300212L39.9999 5.90021C39.7999 6.10021 39.6999 6.30021 39.6999 6.60021V11.6002L38.1999 13.0002L36.7999 14.3002L35.2999 15.7002L33.7999 17.0002L32.2999 18.4002L30.8999 19.7002L29.2999 21.2002L27.7999 22.6002L26.0999 24.2002L24.4999 25.7002L21.4999 28.5002C20.2999 29.8002 20.1999 31.5002 21.3999 32.7002C22.8999 34.2002 24.1999 33.9002 25.5999 32.8002L28.2999 30.3002L29.9999 28.7002L31.7999 27.0002L33.2999 25.6002L34.8999 24.1002L36.2999 22.8002L37.7999 21.4002L39.1999 20.1002L40.6999 18.7002L42.0999 17.4002L43.5999 16.0002H48.9999C49.2999 16.0002 49.4999 15.9002 49.6999 15.7002L55.2999 10.1002C55.8999 9.30021 55.7999 8.30021 54.5999 8.40021ZM41.5999 6.90021L45.2999 3.20021V6.20021L41.5999 9.60021V6.90021ZM24.2999 31.3002C23.2999 32.2002 21.8999 30.7002 22.8999 29.8002L52.4999 2.20021C52.6999 2.00021 52.8999 1.90021 53.1999 1.90021C53.4999 1.90021 53.6999 2.00021 53.8999 2.20021C54.0999 2.40021 54.1999 2.70021 54.1999 3.00021C54.1999 3.30021 54.0999 3.50021 53.8999 3.70021L24.2999 31.3002ZM48.5999 14.0002H45.6999L49.5999 10.3002H52.2999L48.5999 14.0002Z" fill="#219653"/>
</svg>
