<svg width="53" height="65" viewBox="0 0 53 65" fill="none" xmlns="http://www.w3.org/2000/svg">
<path d="M25.738 16.8213C26.2638 16.8213 26.6901 16.395 26.6901 15.8691C26.6901 15.3433 26.2638 14.917 25.738 14.917H13.1733C12.6475 14.917 12.2212 15.3433 12.2212 15.8691C12.2212 16.395 12.6475 16.8213 13.1733 16.8213H25.738Z" fill="#333333"/>
<path d="M7.90479 22.3438C7.90479 22.8696 8.33109 23.2959 8.85693 23.2959H30.0544C30.5804 23.2959 31.0066 22.8696 31.0066 22.3438C31.0066 21.8179 30.5804 21.3916 30.0544 21.3916H8.85693C8.33109 21.3916 7.90479 21.8179 7.90479 22.3438Z" fill="#333333"/>
<path d="M8.85693 27.7393H30.0544C30.5804 27.7393 31.0066 27.3129 31.0066 26.7871C31.0066 26.2613 30.5804 25.835 30.0544 25.835H8.85693C8.33109 25.835 7.90479 26.2613 7.90479 26.7871C7.90479 27.3129 8.33109 27.7393 8.85693 27.7393Z" fill="#333333"/>
<path d="M8.85693 36.626H16.0896C16.6154 36.626 17.0417 36.1997 17.0417 35.6738C17.0417 35.148 16.6154 34.7217 16.0896 34.7217H8.85693C8.33109 34.7217 7.90479 35.148 7.90479 35.6738C7.90479 36.1997 8.33109 36.626 8.85693 36.626Z" fill="#333333"/>
<path d="M51.6986 42.4635C52.2246 42.4635 52.6508 42.0372 52.6508 41.5114V37.2326C52.6508 36.6474 52.3537 36.114 51.8562 35.8057L47.277 32.9695V1.33301C47.277 0.597949 46.679 0 45.944 0H10.3963C9.66126 0 9.06331 0.597949 9.06331 1.33301V4.35716H6.03916C5.3041 4.35716 4.70615 4.95511 4.70615 5.69017V8.71432H1.68213C0.94707 8.71432 0.349121 9.31227 0.349121 10.0473V58.6663C0.349121 59.4014 0.94707 59.9993 1.68213 59.9993H8.7265C9.25235 59.9993 9.67865 59.573 9.67865 59.0472C9.67865 58.5213 9.25235 58.095 8.7265 58.095H2.25342V10.6186H36.6585V28.1345L30.8707 31.7192C30.9565 31.5763 31.0068 31.4095 31.0068 31.2305C31.0068 30.7046 30.5806 30.2783 30.0546 30.2783H8.85714C8.3313 30.2783 7.90499 30.7046 7.90499 31.2305C7.90499 31.7563 8.3313 32.1826 8.85714 32.1826H30.0546C30.0796 32.1826 30.104 32.1807 30.1285 32.1789L26.0231 34.7217H19.1367C18.6108 34.7217 18.1845 35.148 18.1845 35.6738C18.1845 36.1997 18.6108 36.626 19.1367 36.626H23.5916C23.5182 36.816 23.4782 37.0207 23.4782 37.2327V39.165H8.85714C8.3313 39.165 7.90499 39.5913 7.90499 40.1172C7.90499 40.643 8.3313 41.0693 8.85714 41.0693H23.4781V43.6084H8.85714C8.3313 43.6084 7.90499 44.0347 7.90499 44.5605C7.90499 45.0864 8.3313 45.5127 8.85714 45.5127H23.4781V47.7572C23.4781 47.8556 23.4796 47.9538 23.4821 48.0518H8.85714C8.3313 48.0518 7.90499 48.4781 7.90499 49.0039C7.90499 49.5297 8.3313 49.9561 8.85714 49.9561H23.6884C24.1815 52.5087 25.5256 54.8389 27.5402 56.5557L29.3465 58.095H13.1699C12.644 58.095 12.2177 58.5213 12.2177 59.0472C12.2177 59.573 12.644 59.9993 13.1699 59.9993H31.5811L36.976 64.5968C37.2912 64.8656 37.6779 64.9999 38.0645 64.9999C38.4511 64.9999 38.8378 64.8654 39.153 64.5968L48.5888 56.5556C51.1702 54.3557 52.6508 51.1488 52.6508 47.7571V45.9547C52.6508 45.4289 52.2246 45.0026 51.6986 45.0026C51.1727 45.0026 50.7465 45.4289 50.7465 45.9547V47.7571C50.7465 50.5901 49.5098 53.2688 47.3536 55.1062L38.0644 63.0225L28.7752 55.1062C26.619 53.2688 25.3824 50.5901 25.3824 47.7571V37.3584L38.0644 29.5034L50.7465 37.3584V41.5113C50.7465 42.0374 51.1728 42.4635 51.6986 42.4635ZM38.5628 27.6352V10.0473C38.5628 9.31227 37.9648 8.71432 37.2298 8.71432H6.61045V6.26146H41.0156V12.9492C41.0156 13.4751 41.4418 13.9014 41.9678 13.9014C42.4938 13.9014 42.9199 13.4751 42.9199 12.9492V5.69017C42.9199 4.95511 42.322 4.35716 41.5869 4.35716H10.9676V1.9043H45.3727V31.7901L42.9199 30.2708V17.3926C42.9199 16.8667 42.4938 16.4404 41.9678 16.4404C41.4418 16.4404 41.0156 16.8667 41.0156 17.3926V29.0914L38.9481 27.8109C38.8253 27.7348 38.6958 27.6769 38.5628 27.6352Z" fill="#333333"/>
<path d="M29.3428 44.5264C29.3428 49.3355 33.2552 53.248 38.0643 53.248C42.8736 53.248 46.786 49.3356 46.786 44.5264C46.786 39.7171 42.8736 35.8047 38.0643 35.8047C33.2552 35.8047 29.3428 39.7173 29.3428 44.5264ZM44.8817 44.5264C44.8817 48.2854 41.8234 51.3437 38.0643 51.3437C34.3054 51.3437 31.2471 48.2856 31.2471 44.5264C31.2471 40.7672 34.3054 37.709 38.0643 37.709C41.8234 37.709 44.8817 40.7673 44.8817 44.5264Z" fill="#219653"/>
<path d="M36.1092 43.5865C35.7375 43.2147 35.1346 43.2147 34.7628 43.5865C34.3909 43.9584 34.3909 44.5613 34.7628 44.933L37.0604 47.2305C37.2464 47.4163 37.4901 47.5094 37.7337 47.5094C37.9774 47.5094 38.2211 47.4165 38.4071 47.2305L41.9683 43.6693C42.3401 43.2974 42.3401 42.6945 41.9683 42.3228C41.5963 41.951 40.9935 41.951 40.6217 42.3228L37.7339 45.2108L36.1092 43.5865Z" fill="#219653"/>
</svg>
