<svg width="198" height="46" viewBox="0 0 198 46" fill="none" xmlns="http://www.w3.org/2000/svg">
<path d="M47.7864 13.3035H47.7303V21.147H42.9328V7.37235H49.1891L52.3875 14.9387L55.4175 7.37235H61.73V21.147H56.9044V13.0263H56.8764L53.65 21.147H51.0408L47.7864 13.3035Z" fill="#219653"/>
<path d="M64.2306 14.2735C64.2306 13.2758 64.4364 12.3242 64.8478 11.4188C65.278 10.495 65.8578 9.71894 66.5873 9.09072C68.1023 7.74189 69.8978 7.06748 71.9739 7.06748C74.0313 7.06748 75.8175 7.72342 77.3325 9.03529C78.8475 10.3841 79.605 12.0932 79.605 14.1627C79.605 16.2691 78.8382 18.0151 77.3045 19.4009C75.8082 20.7682 73.9939 21.4519 71.8617 21.4519C69.7295 21.4519 67.9339 20.7867 66.4751 19.4564C64.9788 18.1075 64.2306 16.3799 64.2306 14.2735ZM69.982 12.278C69.477 12.8323 69.2245 13.479 69.2245 14.2181C69.2245 14.9941 69.4863 15.6501 70.01 16.1859C70.515 16.7587 71.151 17.0451 71.9178 17.0451C72.6847 17.0451 73.3299 16.7587 73.8536 16.1859C74.3586 15.6316 74.6111 14.9757 74.6111 14.2181C74.6111 13.479 74.3586 12.8323 73.8536 12.278C73.3299 11.7237 72.6847 11.4465 71.9178 11.4465C71.151 11.4465 70.5057 11.7237 69.982 12.278Z" fill="#219653"/>
<path d="M85.5346 10.0331L85.6188 10.0608C86.9093 8.45326 88.6207 7.64951 90.7529 7.64951C92.5672 7.64951 94.0728 8.25925 95.2699 9.47874C96.4856 10.7167 97.0935 12.2318 97.0935 14.0241C97.0935 16.2229 96.3827 18.0151 94.9612 19.4009C93.5211 20.7682 91.6413 21.4519 89.3221 21.4519C86.9654 21.4519 85.1044 20.7128 83.739 19.2346C82.355 17.7565 81.6629 15.6224 81.6629 12.8323C81.6629 11.6128 81.7284 10.495 81.8593 9.47874C81.9528 8.81356 82.0651 8.25001 82.196 7.78809C82.5701 6.47621 83.0751 5.43226 83.711 4.65622C84.5527 3.58455 85.5814 2.74384 86.7971 2.1341C88.2373 1.4135 89.9767 0.877661 92.0154 0.526596L95.4382 0L96.0835 4.07419L92.4082 4.73937C90.4256 5.10891 88.9387 5.61703 87.9474 6.26373C87.2179 6.76261 86.7316 7.19682 86.4885 7.56636C86.1518 8.02829 85.9274 8.4625 85.8152 8.86899C85.7029 9.22006 85.6094 9.60808 85.5346 10.0331ZM87.3582 12.1672C86.8532 12.6845 86.6007 13.3404 86.6007 14.135C86.6007 14.9295 86.8532 15.6224 87.3582 16.2136C87.8632 16.7679 88.5272 17.0451 89.3501 17.0451C90.1731 17.0451 90.8558 16.7772 91.3982 16.2413C91.9032 15.687 92.1557 15.0126 92.1557 14.2181C92.1557 13.4051 91.9032 12.7215 91.3982 12.1672C90.8932 11.6313 90.2105 11.3634 89.3501 11.3634C88.5646 11.3634 87.9006 11.6313 87.3582 12.1672Z" fill="#219653"/>
<path d="M104.445 7.37235V13.9687L104.501 13.9964L108.934 7.37235H113.703V21.147H108.849V14.3844L108.793 14.3567L104.276 21.147H99.6191V7.37235H104.445Z" fill="#219653"/>
<path d="M115.952 21.1747V17.2114C116.644 17.2114 117.186 16.9527 117.579 16.4354C117.991 15.918 118.243 15.1974 118.337 14.2735L118.954 7.37235H131.859V21.147H126.894V11.4465H123.387L123.106 14.4953C122.882 16.8419 122.115 18.6341 120.806 19.8721C119.777 20.7959 118.412 21.2579 116.71 21.2579L115.952 21.1747Z" fill="#219653"/>
<path d="M140.093 11.1971H143.235C145.217 11.1971 146.704 11.6498 147.696 12.5552C148.724 13.4421 149.239 14.6246 149.239 16.1028C149.239 17.5809 148.752 18.7912 147.78 19.7335C146.789 20.6758 145.348 21.147 143.459 21.147H135.127V7.37235H140.093V11.1971ZM140.093 17.5994H142.477C143.656 17.5994 144.245 17.0913 144.245 16.0751C144.245 15.1512 143.646 14.6893 142.449 14.6893H140.093V17.5994Z" fill="#219653"/>
<path d="M151.401 7.37235H156.367V12.3057H160.323V7.37235H165.289V21.147H160.323V16.2413H156.367V21.147H151.401V7.37235Z" fill="#219653"/>
<path d="M174.332 10.8091C173.808 10.8091 173.35 10.9477 172.957 11.2248C172.583 11.502 172.349 11.8623 172.256 12.3057L168.103 11.4188C168.365 9.90371 169.17 8.77661 170.516 8.03753C171.807 7.37235 173.135 7.03977 174.5 7.03977C177.119 7.03977 179.017 7.88047 180.195 9.56189C180.794 10.4673 181.093 11.5205 181.093 12.7215V18.9298C181.093 19.8351 181.131 20.5742 181.205 21.147H176.464C176.389 20.7775 176.352 20.2416 176.352 19.5395L176.296 19.5118C175.211 20.7867 173.808 21.4242 172.087 21.4242C170.928 21.4242 169.918 21.0269 169.057 20.2324C168.234 19.4748 167.823 18.514 167.823 17.35C167.823 15.5577 168.833 14.3013 170.853 13.5807C171.919 13.1926 173.116 12.9986 174.444 12.9986H175.173C175.847 12.9986 176.183 12.7215 176.183 12.1672C176.183 11.7791 176.015 11.4558 175.678 11.1971C175.36 10.9384 174.912 10.8091 174.332 10.8091ZM174.051 18.0151C174.687 18.0151 175.201 17.8396 175.594 17.4886C175.987 17.119 176.183 16.6386 176.183 16.0473V15.6316H174.444C174.033 15.6316 173.649 15.7332 173.294 15.9365C172.957 16.1582 172.789 16.4631 172.789 16.8511C172.789 17.1652 172.91 17.4424 173.153 17.6826C173.415 17.9043 173.715 18.0151 174.051 18.0151Z" fill="#219653"/>
<path d="M183.102 21.147L186.665 15.9642C184.72 15.1512 183.748 13.8301 183.748 12.0009C183.748 10.6336 184.29 9.52493 185.375 8.67499C186.478 7.80656 187.825 7.37235 189.415 7.37235H198V21.147H193.09V17.0174H191.267L188.629 21.147H183.102ZM193.09 11.0585H190.425C189.284 11.0585 188.713 11.4927 188.713 12.3612C188.713 13.2111 189.284 13.6361 190.425 13.6361H193.09V11.0585Z" fill="#219653"/>
<path d="M46.3555 34.5812L46.4397 34.6089C47.7303 33.0014 49.4416 32.1976 51.5739 32.1976C53.3881 32.1976 54.8938 32.8074 56.0908 34.0269C57.3065 35.2648 57.9144 36.7799 57.9144 38.5722C57.9144 40.771 57.2037 42.5633 55.7822 43.949C54.342 45.3163 52.4623 46 50.143 46C47.7864 46 45.9254 45.2609 44.56 43.7827C43.1759 42.3046 42.4839 40.1705 42.4839 37.3804C42.4839 36.161 42.5493 35.0431 42.6803 34.0269C42.7738 33.3617 42.886 32.7981 43.0169 32.3362C43.391 31.0243 43.896 29.9804 44.5319 29.2043C45.3736 28.1327 46.4023 27.292 47.618 26.6822C49.0582 25.9616 50.7977 25.4258 52.8364 25.0747L56.2591 24.5481L56.9044 28.6223L53.2291 29.2875C51.2466 29.657 49.7596 30.1651 48.7683 30.8118C48.0389 31.3107 47.5526 31.7449 47.3094 32.1145C46.9728 32.5764 46.7483 33.0106 46.6361 33.4171C46.5239 33.7682 46.4304 34.1562 46.3555 34.5812ZM48.1792 36.7153C47.6742 37.2326 47.4217 37.8886 47.4217 38.6831C47.4217 39.4776 47.6742 40.1705 48.1792 40.7617C48.6842 41.3161 49.3481 41.5932 50.1711 41.5932C50.9941 41.5932 51.6767 41.3253 52.2191 40.7895C52.7241 40.2351 52.9766 39.5607 52.9766 38.7662C52.9766 37.9532 52.7241 37.2696 52.2191 36.7153C51.7141 36.1794 51.0315 35.9115 50.1711 35.9115C49.3855 35.9115 48.7216 36.1794 48.1792 36.7153Z" fill="#219653"/>
<path d="M66.2195 35.3572C65.6958 35.3572 65.2375 35.4958 64.8448 35.7729C64.4707 36.0501 64.2369 36.4104 64.1434 36.8538L59.9912 35.9669C60.253 34.4518 61.0573 33.3247 62.4039 32.5856C63.6945 31.9205 65.0225 31.5879 66.3878 31.5879C69.0063 31.5879 70.9048 32.4286 72.0831 34.11C72.6816 35.0154 72.9809 36.0686 72.9809 37.2696V43.4779C72.9809 44.3833 73.0183 45.1223 73.0931 45.6951H68.3517C68.2769 45.3256 68.2395 44.7898 68.2395 44.0876L68.1834 44.0599C67.0986 45.3348 65.6958 45.9723 63.975 45.9723C62.8154 45.9723 61.8054 45.575 60.9451 44.7805C60.1221 44.023 59.7106 43.0621 59.7106 41.8981C59.7106 40.1058 60.7206 38.8494 62.7406 38.1288C63.8067 37.7407 65.0038 37.5467 66.3317 37.5467H67.0612C67.7345 37.5467 68.0712 37.2696 68.0712 36.7153C68.0712 36.3273 67.9028 36.0039 67.5662 35.7452C67.2482 35.4865 66.7993 35.3572 66.2195 35.3572ZM65.9389 42.5633C66.5749 42.5633 67.0892 42.3877 67.482 42.0367C67.8748 41.6671 68.0712 41.1867 68.0712 40.5955V40.1797H66.3317C65.9202 40.1797 65.5368 40.2813 65.1814 40.4846C64.8448 40.7063 64.6764 41.0112 64.6764 41.3992C64.6764 41.7133 64.798 41.9905 65.0412 42.2307C65.303 42.4524 65.6023 42.5633 65.9389 42.5633Z" fill="#219653"/>
<path d="M76.0843 31.9205H81.0501V36.8538H85.0059V31.9205H89.9717V45.6951H85.0059V40.7895H81.0501V45.6951H76.0843V31.9205Z" fill="#219653"/>
<path d="M92.1412 45.6951L95.7043 40.5123C93.7591 39.6993 92.7865 38.3782 92.7865 36.549C92.7865 35.1817 93.3289 34.073 94.4137 33.2231C95.5172 32.3547 96.8639 31.9205 98.4537 31.9205H107.039V45.6951H102.129V41.5655H100.305L97.6682 45.6951H92.1412ZM102.129 35.6066H99.4637C98.3228 35.6066 97.7523 36.0409 97.7523 36.9093C97.7523 37.7592 98.3228 38.1842 99.4637 38.1842H102.129V35.6066Z" fill="#219653"/>
<path d="M23.5469 14.812C22.2423 14.812 21.0428 14.7101 19.9486 14.5064C18.7702 14.3026 17.697 14.0711 16.7291 13.8118C15.8453 13.5339 14.9194 13.3024 13.9514 13.1171C13.0255 12.8948 12.2048 12.7837 11.4894 12.7837C10.2688 12.7837 9.10094 13.0478 7.98568 13.5761C7.09466 13.9982 6.0772 14.1664 5.15094 13.8286C2.91306 13.0125 2.55548 10.1354 4.81792 9.39C6.66537 8.78135 8.67876 8.47702 10.8581 8.47702C12.1207 8.47702 13.3832 8.58816 14.6458 8.81044C15.698 8.97715 16.8132 9.20869 17.9916 9.50507C18.7913 9.72735 19.6961 9.95889 20.7062 10.1997C21.59 10.422 22.3265 10.5331 22.9157 10.5331C24.1506 10.5331 25.3316 10.2722 26.4587 9.75038C27.3241 9.34976 28.3065 9.19198 29.2057 9.50935C31.4668 10.3074 31.8335 13.2117 29.5528 13.9519C29.0958 14.1003 28.63 14.2295 28.1553 14.3397C26.7244 14.6546 25.1883 14.812 23.5469 14.812Z" fill="#333333"/>
<path d="M23.5469 29.0658C22.2423 29.0658 21.0428 28.9639 19.9486 28.7601C18.7702 28.5564 17.697 28.3248 16.7291 28.0655C15.8453 27.7877 14.9194 27.5561 13.9514 27.3709C13.0255 27.1486 12.2048 27.0375 11.4894 27.0375C10.2688 27.0375 9.10094 27.3016 7.98568 27.8299C7.09466 28.252 6.0772 28.4202 5.15094 28.0824C2.91306 27.2663 2.55548 24.3891 4.81792 23.6438C6.66537 23.0351 8.67876 22.7308 10.8581 22.7308C12.1207 22.7308 13.3832 22.8419 14.6458 23.0642C15.698 23.2309 16.8132 23.4624 17.9916 23.7588C18.7913 23.9811 19.6961 24.2126 20.7062 24.4534C21.59 24.6757 22.3265 24.7869 22.9157 24.7869C24.1506 24.7869 25.3316 24.526 26.4587 24.0041C27.3241 23.6035 28.3065 23.4457 29.2057 23.7631C31.4668 24.5611 31.8335 27.4654 29.5528 28.2057C29.0958 28.354 28.63 28.4833 28.1553 28.5934C26.7244 28.9083 25.1883 29.0658 23.5469 29.0658Z" fill="#333333"/>
<path d="M23.5469 43.3195C22.2423 43.3195 21.0428 43.2176 19.9486 43.0139C18.7702 42.8101 17.697 42.5786 16.7291 42.3192C15.8453 42.0414 14.9194 41.8098 13.9514 41.6246C13.0255 41.4023 12.2048 41.2912 11.4894 41.2912C10.2688 41.2912 9.10094 41.5553 7.98568 42.0836C7.09466 42.5057 6.0772 42.6739 5.15094 42.3361C2.91306 41.52 2.55548 38.6428 4.81792 37.8975C6.66537 37.2888 8.67876 36.9845 10.8581 36.9845C12.1207 36.9845 13.3832 37.0956 14.6458 37.3179C15.698 37.4846 16.8132 37.7162 17.9916 38.0125C18.7913 38.2348 19.6961 38.4664 20.7062 38.7072C21.59 38.9295 22.3265 39.0406 22.9157 39.0406C24.1506 39.0406 25.3316 38.7797 26.4587 38.2579C27.3241 37.8572 28.3065 37.6995 29.2057 38.0168C31.4668 38.8149 31.8335 41.7191 29.5528 42.4594C29.0958 42.6077 28.63 42.737 28.1553 42.8471C26.7244 43.162 25.1883 43.3195 23.5469 43.3195Z" fill="#333333"/>
</svg>
