<svg width="25" height="25" viewBox="0 0 25 25" fill="none" xmlns="http://www.w3.org/2000/svg">
<g clip-path="url(#clip0)">
<path fill-rule="evenodd" clip-rule="evenodd" d="M25.0019 0H0V25.0019H25.0019V0ZM21.0702 16.3786C21.0764 16.39 21.0811 16.3984 21.0844 16.4041C21.6635 17.3632 20.442 17.4385 20.442 17.4385L18.1071 17.4712C18.1071 17.4712 17.6056 17.5705 16.9456 17.1177C16.6005 16.8809 16.2631 16.4946 15.9416 16.1264C15.4498 15.5633 14.9953 15.0428 14.6074 15.1656C13.9562 15.3718 13.977 16.7718 13.977 16.7718C13.977 16.7718 13.9825 17.0708 13.8339 17.2301C13.6733 17.4036 13.3575 17.4385 13.3575 17.4385H12.313C12.313 17.4385 10.0076 17.5771 7.97639 15.4656C5.76276 13.1621 3.80699 8.59335 3.80699 8.59335C3.80699 8.59335 3.69445 8.29437 3.81683 8.14924C3.95449 7.98665 4.32926 7.97574 4.32926 7.97574L6.82696 7.96046C6.82696 7.96046 7.06297 7.99975 7.23123 8.12305C7.36999 8.22453 7.44757 8.4144 7.44757 8.4144C7.44757 8.4144 7.85183 9.43466 8.38612 10.3567C9.42956 12.1583 9.91577 12.5522 10.2709 12.359C10.7877 12.0775 10.6325 9.8133 10.6325 9.8133C10.6325 9.8133 10.6424 8.99054 10.3725 8.625C10.1638 8.34129 9.77045 8.25836 9.59673 8.23544C9.45578 8.21689 9.68632 7.89063 9.9857 7.74441C10.4348 7.52508 11.2291 7.51199 12.1665 7.52181C12.8975 7.52944 13.1073 7.57527 13.3935 7.64402C14.0566 7.80369 14.036 8.3161 13.9915 9.42199C13.9782 9.75204 13.9628 10.135 13.9628 10.5771C13.9628 10.6769 13.9599 10.7833 13.9569 10.8928C13.9413 11.4586 13.9234 12.1066 14.296 12.347C14.4873 12.4703 14.956 12.3656 16.1262 10.3807C16.6812 9.44011 17.0975 8.33365 17.0975 8.33365C17.0975 8.33365 17.1882 8.13723 17.3291 8.05212C17.4744 7.96592 17.6689 7.99211 17.6689 7.99211L20.2956 7.97683C20.2956 7.97683 21.0855 7.88299 21.2134 8.23872C21.3477 8.6119 20.9184 9.48485 19.8443 10.9143C18.8245 12.2717 18.3286 12.7704 18.375 13.2121C18.4088 13.5342 18.7309 13.8261 19.3483 14.3985C20.6465 15.6018 20.9901 16.2316 21.0702 16.3786Z" fill="#333333"/>
</g>
<defs>
<clipPath id="clip0">
<rect width="25" height="25" fill="white"/>
</clipPath>
</defs>
</svg>
