<svg width="85" height="85" viewBox="0 0 85 85" fill="none" xmlns="http://www.w3.org/2000/svg">
<path d="M83.462 9.77899H1.53797C0.688467 9.77899 0 10.4676 0 11.317V22.6975C0 23.5468 0.688467 24.2355 1.53797 24.2355C2.38747 24.2355 3.07594 23.5468 3.07594 22.6975V12.8549H81.9241V72.1451H3.07594V27.8239C3.07594 26.9746 2.38747 26.2859 1.53797 26.2859C0.688467 26.2859 0 26.9746 0 27.8239V73.6831C0 74.5324 0.688467 75.221 1.53797 75.221H83.462C84.3115 75.221 85 74.5324 85 73.6831V11.317C85 10.4675 84.3114 9.77899 83.462 9.77899Z" fill="#333333"/>
<path d="M74.6479 22.1926C74.143 21.5098 73.1794 21.3655 72.497 21.8709L43.3602 43.4322L40.3973 35.778C40.2232 35.3284 39.8488 34.9866 39.3851 34.8545C38.9228 34.7221 38.4234 34.8144 38.0381 35.1046L10.6634 55.7122C9.9846 56.223 9.8488 57.1872 10.3598 57.8657C10.6623 58.2673 11.123 58.4788 11.5898 58.4788C11.9117 58.4788 12.2366 58.3779 12.5137 58.1695L38.2632 38.7852L41.2199 46.4234C41.3933 46.8708 41.765 47.2117 42.2258 47.3453C42.6862 47.479 43.1832 47.3898 43.5691 47.1046L74.3268 24.3437C75.0094 23.8385 75.1534 22.8753 74.6479 22.1926Z" fill="#219653"/>
<path d="M11.5892 60.5288C10.7397 60.5288 10.0513 61.2174 10.0513 62.0668V65.758C10.0513 66.6073 10.7397 67.2959 11.5892 67.2959C12.4387 67.2959 13.1272 66.6073 13.1272 65.758V62.0668C13.1272 61.2174 12.4389 60.5288 11.5892 60.5288Z" fill="#333333"/>
<path d="M73.4115 27.7209C72.562 27.7209 71.8735 28.4096 71.8735 29.2589V52.1221C71.8735 52.9714 72.562 53.6601 73.4115 53.6601C74.261 53.6601 74.9495 52.9714 74.9495 52.1221V29.2589C74.9495 28.4096 74.2612 27.7209 73.4115 27.7209Z" fill="#333333"/>
<path d="M73.4115 55.7107C72.562 55.7107 71.8735 56.3993 71.8735 57.2487V65.7579C71.8735 66.6073 72.562 67.2959 73.4115 67.2959C74.261 67.2959 74.9495 66.6073 74.9495 65.7579V57.2487C74.9495 56.3993 74.2612 55.7107 73.4115 55.7107Z" fill="#333333"/>
<path d="M63.1068 35.3472C62.2573 35.3472 61.5688 36.0359 61.5688 36.8852V65.758C61.5688 66.6073 62.2573 67.2959 63.1068 67.2959C63.9563 67.2959 64.6448 66.6073 64.6448 65.758V36.8852C64.6448 36.0359 63.9565 35.3472 63.1068 35.3472Z" fill="#333333"/>
<path d="M52.8046 42.9715C51.9551 42.9715 51.2666 43.6601 51.2666 44.5095V65.758C51.2666 66.6073 51.9551 67.2959 52.8046 67.2959C53.6541 67.2959 54.3425 66.6073 54.3425 65.758V44.5095C54.3425 43.6601 53.6541 42.9715 52.8046 42.9715Z" fill="#333333"/>
<path d="M42.4999 50.0851C41.6504 50.0851 40.9619 50.7737 40.9619 51.6231V65.758C40.9619 66.6073 41.6504 67.2959 42.4999 67.2959C43.3494 67.2959 44.0379 66.6073 44.0379 65.758V51.6231C44.0379 50.7737 43.3496 50.0851 42.4999 50.0851Z" fill="#333333"/>
<path d="M32.1957 46.0413C31.3462 46.0413 30.6577 46.7299 30.6577 47.5792V54.5907C30.6577 55.4401 31.3462 56.1287 32.1957 56.1287C33.0452 56.1287 33.7337 55.4401 33.7337 54.5907V47.5792C33.7337 46.7297 33.0454 46.0413 32.1957 46.0413Z" fill="#333333"/>
<path d="M32.1957 58.1793C31.3462 58.1793 30.6577 58.868 30.6577 59.7173V65.7581C30.6577 66.6074 31.3462 67.2961 32.1957 67.2961C33.0452 67.2961 33.7337 66.6074 33.7337 65.7581V59.7173C33.7337 58.8678 33.0452 58.1793 32.1957 58.1793Z" fill="#333333"/>
<path d="M21.8915 53.7987C21.042 53.7987 20.3535 54.4873 20.3535 55.3367V65.758C20.3535 66.6073 21.042 67.2959 21.8915 67.2959C22.741 67.2959 23.4295 66.6073 23.4295 65.758V55.3367C23.4295 54.4873 22.741 53.7987 21.8915 53.7987Z" fill="#333333"/>
</svg>
