<svg width="85" height="85" viewBox="0 0 85 85" fill="none" xmlns="http://www.w3.org/2000/svg">
<g clip-path="url(#clip0)">
<path d="M66.7323 27.5848C66.0648 24.2494 64.8538 21.2092 63.1328 18.5488C62.7089 17.8932 61.8337 17.7057 61.1786 18.1296C60.523 18.5536 60.3354 19.4285 60.7594 20.0841C62.2862 22.4442 63.363 25.1545 63.9602 28.1392C64.3696 30.1845 64.5768 32.289 64.5768 34.3948C64.5768 41.3337 62.3766 47.9226 58.2142 53.4491C54.2737 58.6811 48.7062 62.6324 42.5005 64.6111C36.2948 62.6324 30.7272 58.6809 26.7868 53.4491C22.6243 47.9226 20.4241 41.3337 20.4241 34.3948C20.4241 32.2892 20.6316 30.1846 21.0408 28.139C22.6764 19.9649 27.9926 13.9055 35.6265 11.5147C43.4249 9.0726 52.112 11.005 57.7575 16.4387C58.32 16.9801 59.215 16.9628 59.7558 16.4005C60.2972 15.8382 60.2801 14.9434 59.7178 14.402C53.339 8.26244 43.5511 6.07087 34.7816 8.8171C26.1319 11.5261 20.1133 18.3666 18.269 27.5845C17.8231 29.8121 17.5972 32.1033 17.5972 34.395C17.5972 41.9525 19.9941 49.1293 24.5287 55.1497C28.914 60.9721 35.1507 65.3383 42.0901 67.444C42.2239 67.4845 42.3622 67.505 42.5005 67.505C42.6388 67.505 42.7771 67.4845 42.9109 67.444C49.8503 65.3381 56.0872 60.9721 60.4722 55.1499C65.0067 49.1293 67.4034 41.9525 67.4034 34.3951C67.4038 32.1034 67.1779 29.8123 66.7323 27.5848Z" fill="#333333"/>
<path d="M42.5008 17.8263C34.9082 17.8263 28.7314 24.0031 28.7314 31.5956C28.7314 34.3548 29.5448 37.0172 31.0837 39.2951C31.5205 39.9421 32.3996 40.1119 33.046 39.6753C33.693 39.2383 33.863 38.3598 33.4262 37.713C32.2043 35.9041 31.5582 33.7889 31.5582 31.5958C31.5582 25.562 36.4669 20.6532 42.5008 20.6532C48.5346 20.6532 53.4434 25.562 53.4434 31.5958C53.4434 37.6296 48.5345 42.5381 42.5008 42.5381C40.2747 42.5381 38.1329 41.874 36.3066 40.6178C35.6636 40.1753 34.7835 40.338 34.3411 40.9812C33.8987 41.6243 34.0612 42.5042 34.7045 42.9468C37.0042 44.5291 39.6999 45.3651 42.5009 45.3651C50.0935 45.3651 56.2703 39.1884 56.2703 31.5958C56.2701 24.0032 50.0932 17.8263 42.5008 17.8263Z" fill="#219653"/>
<path d="M84.8159 75.2401L70.8323 50.5855C70.5812 50.1429 70.1118 49.8693 69.6031 49.8693H66.3C65.5193 49.8693 64.8866 50.5021 64.8866 51.2827C64.8866 52.0633 65.5193 52.6962 66.3 52.6962H68.7798L81.1601 74.5241H3.84013L16.2206 52.6962H18.7002C19.4808 52.6962 20.1136 52.0633 20.1136 51.2827C20.1136 50.5021 19.4808 49.8693 18.7002 49.8693H15.3973C14.8885 49.8693 14.4188 50.1427 14.1678 50.5855L0.183969 75.2401C-0.0642242 75.6777 -0.0610699 76.2139 0.192104 76.6487C0.445444 77.0835 0.910454 77.3507 1.41348 77.3507H83.5867C84.0898 77.3507 84.5549 77.0834 84.808 76.6487C85.0611 76.2143 85.0643 75.6777 84.8159 75.2401Z" fill="#333333"/>
</g>
<defs>
<clipPath id="clip0">
<rect width="85" height="85" fill="white"/>
</clipPath>
</defs>
</svg>
