<svg width="70" height="70" viewBox="0 0 70 70" fill="none" xmlns="http://www.w3.org/2000/svg">
<path fill-rule="evenodd" clip-rule="evenodd" d="M64.165 6.35157C63.9684 6.05674 63.6736 5.9585 63.3787 5.9585H47.6542H31.5365C31.4494 5.9585 31.3627 5.96817 31.2782 5.98522C31.2045 5.96886 31.1274 5.9585 31.0452 5.9585H30.947H15.2223H15.0257C14.5343 5.9585 14.1412 6.25333 14.043 6.64641L12.8636 12.3465C12.8384 12.4977 12.8133 12.6491 12.7897 12.8019L10.5049 23.8451C10.4639 24.042 10.4323 24.239 10.4047 24.4358L8.20385 35.257C8.17851 35.3165 8.15893 35.3784 8.14626 35.442L5.78758 47.0389C5.29615 49.3976 5.78758 51.7562 7.06516 53.7219C8.34274 55.6875 10.3084 57.0633 12.667 57.4565L12.669 57.4568C13.258 57.5549 13.847 57.6531 14.4361 57.6531C16.2051 57.6531 17.8758 57.1616 19.2517 56.1789C20.0568 55.6556 20.761 55.0151 21.348 54.2811C21.6011 55.1488 21.984 55.9825 22.4948 56.7684C23.7724 58.7341 25.738 60.1099 28.0967 60.6013L28.0988 60.6017C28.6878 60.6998 29.2768 60.7979 29.8657 60.7979C31.5365 60.7979 33.2072 60.3065 34.7797 59.3237C35.5427 58.8278 36.2154 58.2271 36.7834 57.541C37.6375 60.6215 40.1446 63.1543 43.5264 63.8445L43.5284 63.8448C44.1174 63.943 44.7064 64.0411 45.2954 64.0411C46.9662 64.0411 48.6369 63.5497 50.3076 62.4687C52.2732 61.1911 53.6491 59.2255 54.1405 56.8668L56.4992 45.3682C56.5238 45.2202 56.5175 45.0784 56.4865 44.9475L58.4665 35.2123C58.6292 34.7812 58.7612 34.3333 58.8579 33.8696L61.2165 22.371C61.226 22.3145 61.2296 22.2592 61.2302 22.2046L63.4769 11.0689V10.9707C63.4909 10.8865 63.4939 10.8047 63.4891 10.7255L64.3614 7.23619C64.4599 6.94124 64.3615 6.64641 64.165 6.35157ZM18.3231 43.967L18.2861 43.9752L18.2403 43.9855C18.2037 43.9938 18.1671 44.0021 18.1302 44.0094C18.0567 44.0241 17.9825 44.0366 17.9082 44.0487C17.8964 44.0507 17.8846 44.0527 17.8728 44.0548C17.8528 44.0583 17.8328 44.0618 17.8127 44.0648C17.0382 44.1804 16.2309 44.1631 15.4188 43.9922C15.2448 43.9601 15.0738 43.9214 14.9059 43.8765C14.9059 43.8765 14.2779 43.5924 13.8321 44.4411C13.3863 45.2897 14.1261 45.7858 14.1261 45.7858C14.4182 45.8888 14.7183 45.9792 15.0257 46.056C16.7723 46.3794 18.5614 46.1918 20.1409 45.5494C20.7079 45.3416 21.2634 45.0841 21.8069 44.7784C21.9717 44.6713 22.1307 44.5577 22.287 44.4411L21.1189 50.1837C21.1098 50.2384 21.1024 50.2929 21.095 50.3474C21.0916 50.3721 21.0882 50.3968 21.0847 50.4215C20.6717 52.1334 19.7014 53.6495 18.1707 54.6064C16.5983 55.5891 14.7309 55.9823 12.9619 55.5891C11.1929 55.1959 9.62044 54.2132 8.63758 52.6407C7.65483 51.0683 7.26164 49.201 7.65483 47.432L8.93241 41.3386C9.06405 41.591 9.20974 41.8361 9.36534 42.0753C9.3727 42.0868 9.3799 42.0984 9.38709 42.11C9.3969 42.1259 9.40671 42.1417 9.41694 42.1573C9.41992 42.1618 9.42304 42.1662 9.42616 42.1707C9.42871 42.1743 9.43127 42.1779 9.43375 42.1816C9.50648 42.2914 9.58166 42.3997 9.65922 42.5062C9.65922 42.5062 10.3961 42.7729 10.8921 42.0557C11.3881 41.3386 10.8294 40.6798 10.8294 40.6798C10.744 40.5293 10.6639 40.3754 10.5895 40.2186C9.99152 38.9122 9.79285 37.3898 10.1118 35.835C10.1361 35.6894 10.1301 35.5498 10.1004 35.4206L11.2911 29.7417C12.4704 32.1004 14.6325 33.8694 17.4826 34.4591C20.1051 34.9447 22.8229 34.2778 24.7835 32.6495L23.6556 38.1946C23.5683 38.3109 23.506 38.4444 23.4776 38.5868L23.2602 39.656C22.4515 41.7711 20.6815 43.3358 18.5763 43.9039L18.5394 43.9141C18.5128 43.9215 18.4862 43.9289 18.4595 43.9356C18.4143 43.9469 18.3687 43.957 18.3231 43.967ZM56.2045 26.3021C55.1342 26.9711 53.9272 27.366 52.7077 27.4266C52.1773 27.443 51.6368 27.3993 51.0939 27.2849C47.7294 26.5766 45.3234 23.555 45.4541 20.2323C45.456 20.1992 45.459 20.166 45.4619 20.1327C45.4629 20.1214 45.4639 20.11 45.4649 20.0987C45.4654 20.0927 45.4659 20.0867 45.4663 20.0807L45.6885 18.9313C45.697 18.8802 45.7015 18.8313 45.7043 18.7833L47.2609 12.7397C47.2791 12.776 47.2973 12.8156 47.3168 12.858C47.3523 12.9354 47.3921 13.0219 47.4431 13.1136C47.5099 13.253 47.5797 13.3909 47.654 13.5259C48.7351 15.688 50.7006 17.1621 52.961 17.6536C53.0414 17.665 53.1202 17.6764 53.198 17.6877L53.3531 17.7101C55.5231 18.1073 57.7634 17.7009 59.644 16.5725C59.8509 16.5035 60.0094 16.3862 60.1874 16.2544C60.2631 16.1983 60.3423 16.1397 60.4303 16.081L59.2509 21.9777C58.858 23.7469 57.7769 25.3193 56.2045 26.3021ZM36.0573 46.1544C34.4849 47.1371 32.6175 47.5303 30.8485 47.1371C27.5863 46.4504 25.2994 43.5888 25.2969 40.3869C25.4372 39.9966 25.553 39.593 25.6398 39.1766L26.8514 33.2196C27.3115 34.0401 27.9029 34.7912 28.6063 35.4431C28.6063 35.4431 29.4645 36.1805 30.1714 35.4431C30.8782 34.7057 30.2961 34.0997 30.2961 34.0997C28.721 32.8084 27.7531 30.8675 27.7537 28.7829L27.9985 27.5797C28.0082 27.5215 28.0118 27.4646 28.0123 27.4086L29.1348 21.4906C30.3255 23.7017 32.4629 25.4266 35.1729 26.0073C37.8264 26.4987 40.5782 25.8107 42.5438 24.1401L41.2661 30.2332C40.8138 32.3813 39.4178 34.1049 37.6036 35.0337C36.9478 35.3434 36.2415 35.5508 35.5081 35.6389C35.5081 35.6389 34.7061 35.5597 34.7061 36.7638C34.7061 37.7888 35.5081 37.8036 35.5081 37.8036C37.2404 37.6155 38.8847 36.9403 40.185 35.8351L38.9074 41.9284C38.6196 43.2238 38.0141 44.4125 37.0939 45.3428C36.7826 45.6438 36.4377 45.9167 36.0573 46.1544ZM43.723 18.7347L43.5612 19.5304C42.4186 22.6638 39.0834 24.6633 35.6642 23.9435C32.2576 23.2263 29.8337 20.1374 30.0308 16.7659L30.1607 16.0813V15.983L31.4196 9.68817C32.6215 12.0515 34.8323 13.8269 37.5316 14.4105C37.6069 14.423 37.6805 14.4356 37.753 14.4479C38.2483 14.5322 38.688 14.6071 39.2024 14.6071C41.3952 14.6071 43.5618 13.772 45.2811 12.3988L43.723 18.7347ZM28.3775 15.1522C28.3393 15.2284 28.3101 15.3092 28.2933 15.3931L28.1255 16.2182C27.6549 17.728 26.7284 19.0493 25.345 19.9139C23.7725 20.8966 21.9052 21.2898 20.1362 20.8966C18.4399 20.5256 16.9734 19.5535 15.9813 18.2284C14.8964 16.7218 14.4174 14.7938 14.8291 12.838L15.6177 8.89499C17.0982 10.3792 19.463 11.8552 22.1017 11.8552C24.3011 11.8552 27.2227 11.041 29.4279 9.68966L28.3775 15.1522ZM16.8712 21.7314C17.7282 22.2766 18.6923 22.698 19.7431 22.9607C22.3966 23.4521 25.1484 22.7641 27.114 21.0935L25.8364 27.1868C25.4433 28.9558 24.4605 30.5282 22.888 31.5111C21.7749 32.2068 20.514 32.6051 19.2449 32.6401C18.7934 32.6377 18.3354 32.5906 17.8758 32.4938C14.1412 31.7075 11.6843 28.0713 12.4706 24.3367C12.4949 24.1911 12.4889 24.0515 12.4592 23.9223L13.6498 18.2438C14.3893 19.6757 15.5081 20.8867 16.8712 21.7314ZM54.3371 45.0733C53.944 46.8423 52.9611 48.4147 51.3887 49.3976C50.2769 50.0925 49.0175 50.4908 47.7498 50.5266C47.297 50.5246 46.8376 50.4774 46.3765 50.3804C42.8798 49.6443 40.5034 46.4095 40.8602 42.9349C40.9413 42.6705 41.012 42.4007 41.0695 42.125L42.2451 36.3444C42.2883 36.4243 42.3381 36.5022 42.3919 36.5862C42.4697 36.7078 42.5558 36.8423 42.6419 37.0145C43.9195 38.9801 45.8851 40.3559 48.2438 40.8473C50.546 41.2737 52.9219 40.8117 54.7944 39.5909L54.8033 39.5864C54.8772 39.5485 54.9511 39.5106 55.025 39.4715C55.2223 39.3433 55.4119 39.2063 55.5969 39.0645L54.3371 45.0733ZM56.7941 33.3782C56.236 36.0293 54.241 38.035 51.7948 38.6953C51.7807 38.699 51.7666 38.7029 51.7526 38.7068L51.7519 38.707C51.7271 38.7139 51.7024 38.7207 51.6775 38.7269C51.6337 38.738 51.5896 38.7477 51.5454 38.7574C51.5319 38.7604 51.5184 38.7634 51.5048 38.7664L51.463 38.7759C51.4248 38.7845 51.3867 38.7932 51.3484 38.8008C51.2746 38.8154 51.2003 38.8279 51.1258 38.8401L51.0927 38.8459C51.0722 38.8495 51.0516 38.8531 51.031 38.8562C50.2565 38.9717 49.449 38.9544 48.637 38.7835C47.871 38.6133 47.1421 38.332 46.4817 37.9407C46.472 37.9349 46.4621 37.9294 46.4525 37.9236C46.3803 37.8803 46.3095 37.8348 46.239 37.7888C46.2291 37.7822 46.2191 37.7758 46.2091 37.7694C46.2006 37.7639 46.1921 37.7585 46.1837 37.753C46.1751 37.7474 46.1666 37.7418 46.1582 37.7361C46.0903 37.6905 46.0236 37.6431 45.9575 37.5949L45.9344 37.5783C45.9208 37.5685 45.9071 37.5588 45.8936 37.5487C45.2771 37.0884 44.7394 36.5175 44.3129 35.8351C43.5292 34.5812 43.1221 33.1398 43.1879 31.7102L43.3534 30.8964L43.3649 30.8563C43.3867 30.78 43.4085 30.7038 43.4283 30.6263L44.5803 24.6656C45.7738 26.9534 47.9052 28.5756 50.7008 29.2504C53.3543 29.7418 56.1061 29.0538 58.0717 27.3831L56.8549 33.1863C56.8282 33.2479 56.8074 33.3121 56.7941 33.3782ZM61.5747 10.3806C61.5469 10.4438 61.5251 10.5096 61.5115 10.5775V10.6757C61.1184 12.4448 60.0373 13.9189 58.5631 14.8034C56.9907 15.7862 55.1234 16.081 53.4527 15.688C51.6837 15.3931 50.3077 14.312 49.4232 12.6414C48.637 11.2654 48.3421 9.59476 48.5387 7.92399H62.1012L61.5747 10.3806ZM46.3765 7.92399C45.0006 11.0689 41.2661 13.231 37.9245 12.5431C35.4676 12.0517 33.502 10.2827 32.8141 7.92399H46.3765ZM28.5882 7.92399C26.7209 9.10333 24.0674 9.8896 22.1018 9.8896C20.431 9.8896 18.662 9.00509 17.4826 7.92399H28.5882ZM33.6004 57.7512C32.0279 58.7339 30.1606 59.1271 28.3916 58.7339C26.6225 58.3409 25.0501 57.358 24.0673 55.7856C23.0844 54.2132 22.6913 52.3458 23.0845 50.5768L24.3717 44.5013C25.553 46.8505 27.7104 48.5144 30.3571 49.1026C30.8182 49.1987 31.2792 49.2559 31.7375 49.2784C31.8998 49.2913 32.062 49.2992 32.2243 49.2992C33.8951 49.2992 35.5657 48.8078 37.2365 47.7268C37.4339 47.5985 37.6236 47.4614 37.8088 47.3195L36.5485 53.427C36.1556 55.196 35.1728 56.7684 33.6004 57.7512ZM51.9784 56.5718C51.5853 58.3409 50.6025 59.9133 49.03 60.8961C47.4576 61.879 45.5903 62.2721 43.8212 61.8789C42.0522 61.4858 40.4798 60.503 39.497 58.9305C38.674 57.6138 38.2666 56.0903 38.386 54.5909C38.4751 54.3078 38.5507 54.018 38.6124 53.7217L39.8424 47.7262C41.0322 50.0357 43.1716 51.7644 45.8851 52.3459C48.5386 52.8373 51.2904 52.1493 53.256 50.4787L51.9784 56.5718Z" fill="#333333"/>
</svg>
