<svg width="70" height="70" viewBox="0 0 70 70" fill="none" xmlns="http://www.w3.org/2000/svg">
<mask id="path-1-outside-1" maskUnits="userSpaceOnUse" x="3.8999" y="3.8999" width="62" height="62" fill="black">
<rect fill="white" x="3.8999" y="3.8999" width="62" height="62"/>
<path d="M56.2838 13.7161C50.5985 8.03089 43.0398 4.8999 34.9999 4.8999C24.1151 4.8999 14.045 10.8062 8.71955 20.3138C8.48157 20.7387 8.63313 21.2762 9.05793 21.5142C9.48286 21.7521 10.0203 21.6006 10.2582 21.1758C15.2722 12.2243 24.7526 6.66357 34.9999 6.66357C42.5686 6.66357 49.6845 9.61114 55.0366 14.9632C60.3888 20.3152 63.3362 27.4312 63.3362 34.9999C63.3362 42.5686 60.3887 49.6845 55.0366 55.0366C49.6846 60.3888 42.5686 63.3362 34.9999 63.3362C27.4312 63.3362 20.3153 60.3887 14.9632 55.0366C9.61102 49.6846 6.66357 42.5686 6.66357 34.9999C6.66357 31.2667 7.37739 27.6409 8.78515 24.2235C8.97069 23.7732 8.75599 23.2577 8.30567 23.0723C7.85546 22.8868 7.34 23.1015 7.15435 23.5518C5.65852 27.1833 4.8999 31.035 4.8999 34.9999C4.8999 43.0398 8.03089 50.5985 13.716 56.2837C19.4013 61.9689 26.96 65.0999 34.9999 65.0999C43.0398 65.0999 50.5985 61.9689 56.2838 56.2837C61.9689 50.5985 65.0999 43.0398 65.0999 34.9999C65.0999 26.96 61.9689 19.4013 56.2838 13.7161Z"/>
<path d="M35 59.6064C48.568 59.6064 59.6065 48.5679 59.6065 34.9999C59.6065 21.4318 48.568 10.3934 35 10.3934C21.4319 10.3934 10.3935 21.4318 10.3935 34.9999C10.3935 48.5679 21.4319 59.6064 35 59.6064ZM35 12.1571C47.5955 12.1571 57.8428 22.4043 57.8428 34.9999C57.8428 47.5954 47.5955 57.8427 35 57.8427C22.4044 57.8427 12.1571 47.5954 12.1571 34.9999C12.1571 22.4043 22.4044 12.1571 35 12.1571Z"/>
<path d="M20.9442 37.3612C21.4821 37.5545 22.0391 37.6506 22.5943 37.6506C23.3023 37.6506 24.0077 37.4941 24.6673 37.1833C25.844 36.6286 26.7343 35.6491 27.1742 34.4249L30.5855 24.9315C31.4935 22.4044 30.1764 19.6096 27.6493 18.7015C26.4252 18.2616 25.1028 18.3248 23.9262 18.8794C22.7495 19.434 21.8592 20.4136 21.4193 21.6378L18.008 31.1312C17.0999 33.6583 18.417 36.453 20.9442 37.3612ZM19.6678 31.7275L23.0791 22.2341C23.3596 21.4533 23.9275 20.8285 24.678 20.4747C25.4284 20.1209 26.2719 20.0806 27.0528 20.3612C27.8337 20.6418 28.4585 21.2097 28.8122 21.9603C29.166 22.7108 29.2062 23.5542 28.9256 24.3351L25.5143 33.8285C25.2338 34.6094 24.6659 35.2342 23.9154 35.588C23.1649 35.9417 22.3214 35.982 21.5405 35.7014C20.7597 35.4209 20.1349 34.853 19.7812 34.1024C19.4274 33.3517 19.3871 32.5085 19.6678 31.7275Z"/>
<path d="M41.6512 30.6857L45.9921 39.7909C46.8263 41.541 48.5756 42.5657 50.3962 42.5656C51.0975 42.5656 51.8094 42.4135 52.4834 42.0922C54.9078 40.9366 55.9402 38.0242 54.7847 35.5999L54.4002 34.7933C54.1907 34.3537 53.6643 34.1672 53.2248 34.3768C52.7852 34.5863 52.5987 35.1126 52.8082 35.5522L53.1927 36.3588C53.9298 37.9052 53.2711 39.763 51.7246 40.5002C50.1789 41.2371 48.3214 40.5784 47.5844 39.032L43.2435 29.927C42.5067 28.3803 43.1653 26.5224 44.7109 25.7857C45.1346 25.5842 45.5835 25.482 46.0453 25.482C47.2368 25.482 48.3385 26.1775 48.852 27.2536L51.2929 32.3718C51.5025 32.8114 52.0286 32.9978 52.4684 32.7882C52.9081 32.5785 53.0944 32.0522 52.8848 31.6126L50.4438 26.4943C49.6393 24.8079 47.9129 23.7183 46.0454 23.7183C45.3196 23.7183 44.6159 23.878 43.9528 24.1933C41.5286 25.3486 40.4963 28.2611 41.6512 30.6857Z"/>
<path d="M27.1685 45.8501C26.5217 48.4564 28.1157 51.1029 30.722 51.7498L40.5126 54.1801C40.9049 54.2775 41.2982 54.3241 41.6856 54.3241C43.8704 54.3241 45.8629 52.8406 46.4124 50.6267C47.0592 48.0205 45.4652 45.3738 42.859 44.727L33.0684 42.2968C30.4624 41.6499 27.8154 43.2439 27.1685 45.8501ZM28.8802 46.2751C29.2307 44.8629 30.5015 43.9167 31.8953 43.9167C32.1423 43.9167 32.3932 43.9464 32.6434 44.0085L42.4341 46.4387C44.0964 46.8514 45.1132 48.5395 44.7005 50.2019C44.2879 51.8644 42.6 52.8809 40.9373 52.4685L31.1467 50.0383C29.4843 49.6256 28.4676 47.9374 28.8802 46.2751Z"/>
<path d="M36.3002 35.1301C38.1878 35.1301 39.7234 33.5944 39.7234 31.7068C39.7234 29.8192 38.1878 28.2835 36.3002 28.2835C34.4126 28.2835 32.8769 29.8192 32.8769 31.7068C32.8769 33.5944 34.4126 35.1301 36.3002 35.1301ZM36.3002 30.0472C37.2153 30.0472 37.9598 30.7917 37.9598 31.7068C37.9598 32.6219 37.2153 33.3664 36.3002 33.3664C35.385 33.3664 34.6405 32.6219 34.6405 31.7068C34.6405 30.7917 35.385 30.0472 36.3002 30.0472Z"/>
<path d="M42.2947 22.822C44.1823 22.822 45.718 21.2863 45.718 19.3987C45.718 17.5111 44.1823 15.9755 42.2947 15.9755C40.4071 15.9755 38.8715 17.5111 38.8715 19.3987C38.8715 21.2863 40.4071 22.822 42.2947 22.822ZM42.2947 17.7391C43.2099 17.7391 43.9544 18.4836 43.9544 19.3987C43.9544 20.3139 43.2099 21.0584 42.2947 21.0584C41.3796 21.0584 40.6351 20.3139 40.6351 19.3987C40.6351 18.4836 41.3796 17.7391 42.2947 17.7391Z"/>
<path d="M23.1119 42.0937C23.1119 40.2061 21.5762 38.6704 19.6886 38.6704C17.801 38.6704 16.2653 40.2061 16.2653 42.0937C16.2653 43.9813 17.801 45.5169 19.6886 45.5169C21.5762 45.5169 23.1119 43.9813 23.1119 42.0937ZM18.0288 42.0937C18.0288 41.1785 18.7733 40.434 19.6885 40.434C20.6036 40.434 21.3481 41.1785 21.3481 42.0937C21.3481 43.0088 20.6036 43.7533 19.6885 43.7533C18.7733 43.7533 18.0288 43.0089 18.0288 42.0937Z"/>
</mask>
<path d="M56.2838 13.7161C50.5985 8.03089 43.0398 4.8999 34.9999 4.8999C24.1151 4.8999 14.045 10.8062 8.71955 20.3138C8.48157 20.7387 8.63313 21.2762 9.05793 21.5142C9.48286 21.7521 10.0203 21.6006 10.2582 21.1758C15.2722 12.2243 24.7526 6.66357 34.9999 6.66357C42.5686 6.66357 49.6845 9.61114 55.0366 14.9632C60.3888 20.3152 63.3362 27.4312 63.3362 34.9999C63.3362 42.5686 60.3887 49.6845 55.0366 55.0366C49.6846 60.3888 42.5686 63.3362 34.9999 63.3362C27.4312 63.3362 20.3153 60.3887 14.9632 55.0366C9.61102 49.6846 6.66357 42.5686 6.66357 34.9999C6.66357 31.2667 7.37739 27.6409 8.78515 24.2235C8.97069 23.7732 8.75599 23.2577 8.30567 23.0723C7.85546 22.8868 7.34 23.1015 7.15435 23.5518C5.65852 27.1833 4.8999 31.035 4.8999 34.9999C4.8999 43.0398 8.03089 50.5985 13.716 56.2837C19.4013 61.9689 26.96 65.0999 34.9999 65.0999C43.0398 65.0999 50.5985 61.9689 56.2838 56.2837C61.9689 50.5985 65.0999 43.0398 65.0999 34.9999C65.0999 26.96 61.9689 19.4013 56.2838 13.7161Z" fill="#333333"/>
<path d="M35 59.6064C48.568 59.6064 59.6065 48.5679 59.6065 34.9999C59.6065 21.4318 48.568 10.3934 35 10.3934C21.4319 10.3934 10.3935 21.4318 10.3935 34.9999C10.3935 48.5679 21.4319 59.6064 35 59.6064ZM35 12.1571C47.5955 12.1571 57.8428 22.4043 57.8428 34.9999C57.8428 47.5954 47.5955 57.8427 35 57.8427C22.4044 57.8427 12.1571 47.5954 12.1571 34.9999C12.1571 22.4043 22.4044 12.1571 35 12.1571Z" fill="#333333"/>
<path d="M20.9442 37.3612C21.4821 37.5545 22.0391 37.6506 22.5943 37.6506C23.3023 37.6506 24.0077 37.4941 24.6673 37.1833C25.844 36.6286 26.7343 35.6491 27.1742 34.4249L30.5855 24.9315C31.4935 22.4044 30.1764 19.6096 27.6493 18.7015C26.4252 18.2616 25.1028 18.3248 23.9262 18.8794C22.7495 19.434 21.8592 20.4136 21.4193 21.6378L18.008 31.1312C17.0999 33.6583 18.417 36.453 20.9442 37.3612ZM19.6678 31.7275L23.0791 22.2341C23.3596 21.4533 23.9275 20.8285 24.678 20.4747C25.4284 20.1209 26.2719 20.0806 27.0528 20.3612C27.8337 20.6418 28.4585 21.2097 28.8122 21.9603C29.166 22.7108 29.2062 23.5542 28.9256 24.3351L25.5143 33.8285C25.2338 34.6094 24.6659 35.2342 23.9154 35.588C23.1649 35.9417 22.3214 35.982 21.5405 35.7014C20.7597 35.4209 20.1349 34.853 19.7812 34.1024C19.4274 33.3517 19.3871 32.5085 19.6678 31.7275Z" fill="#333333"/>
<path d="M41.6512 30.6857L45.9921 39.7909C46.8263 41.541 48.5756 42.5657 50.3962 42.5656C51.0975 42.5656 51.8094 42.4135 52.4834 42.0922C54.9078 40.9366 55.9402 38.0242 54.7847 35.5999L54.4002 34.7933C54.1907 34.3537 53.6643 34.1672 53.2248 34.3768C52.7852 34.5863 52.5987 35.1126 52.8082 35.5522L53.1927 36.3588C53.9298 37.9052 53.2711 39.763 51.7246 40.5002C50.1789 41.2371 48.3214 40.5784 47.5844 39.032L43.2435 29.927C42.5067 28.3803 43.1653 26.5224 44.7109 25.7857C45.1346 25.5842 45.5835 25.482 46.0453 25.482C47.2368 25.482 48.3385 26.1775 48.852 27.2536L51.2929 32.3718C51.5025 32.8114 52.0286 32.9978 52.4684 32.7882C52.9081 32.5785 53.0944 32.0522 52.8848 31.6126L50.4438 26.4943C49.6393 24.8079 47.9129 23.7183 46.0454 23.7183C45.3196 23.7183 44.6159 23.878 43.9528 24.1933C41.5286 25.3486 40.4963 28.2611 41.6512 30.6857Z" fill="#333333"/>
<path d="M27.1685 45.8501C26.5217 48.4564 28.1157 51.1029 30.722 51.7498L40.5126 54.1801C40.9049 54.2775 41.2982 54.3241 41.6856 54.3241C43.8704 54.3241 45.8629 52.8406 46.4124 50.6267C47.0592 48.0205 45.4652 45.3738 42.859 44.727L33.0684 42.2968C30.4624 41.6499 27.8154 43.2439 27.1685 45.8501ZM28.8802 46.2751C29.2307 44.8629 30.5015 43.9167 31.8953 43.9167C32.1423 43.9167 32.3932 43.9464 32.6434 44.0085L42.4341 46.4387C44.0964 46.8514 45.1132 48.5395 44.7005 50.2019C44.2879 51.8644 42.6 52.8809 40.9373 52.4685L31.1467 50.0383C29.4843 49.6256 28.4676 47.9374 28.8802 46.2751Z" fill="#333333"/>
<path d="M36.3002 35.1301C38.1878 35.1301 39.7234 33.5944 39.7234 31.7068C39.7234 29.8192 38.1878 28.2835 36.3002 28.2835C34.4126 28.2835 32.8769 29.8192 32.8769 31.7068C32.8769 33.5944 34.4126 35.1301 36.3002 35.1301ZM36.3002 30.0472C37.2153 30.0472 37.9598 30.7917 37.9598 31.7068C37.9598 32.6219 37.2153 33.3664 36.3002 33.3664C35.385 33.3664 34.6405 32.6219 34.6405 31.7068C34.6405 30.7917 35.385 30.0472 36.3002 30.0472Z" fill="#333333"/>
<path d="M42.2947 22.822C44.1823 22.822 45.718 21.2863 45.718 19.3987C45.718 17.5111 44.1823 15.9755 42.2947 15.9755C40.4071 15.9755 38.8715 17.5111 38.8715 19.3987C38.8715 21.2863 40.4071 22.822 42.2947 22.822ZM42.2947 17.7391C43.2099 17.7391 43.9544 18.4836 43.9544 19.3987C43.9544 20.3139 43.2099 21.0584 42.2947 21.0584C41.3796 21.0584 40.6351 20.3139 40.6351 19.3987C40.6351 18.4836 41.3796 17.7391 42.2947 17.7391Z" fill="#333333"/>
<path d="M23.1119 42.0937C23.1119 40.2061 21.5762 38.6704 19.6886 38.6704C17.801 38.6704 16.2653 40.2061 16.2653 42.0937C16.2653 43.9813 17.801 45.5169 19.6886 45.5169C21.5762 45.5169 23.1119 43.9813 23.1119 42.0937ZM18.0288 42.0937C18.0288 41.1785 18.7733 40.434 19.6885 40.434C20.6036 40.434 21.3481 41.1785 21.3481 42.0937C21.3481 43.0088 20.6036 43.7533 19.6885 43.7533C18.7733 43.7533 18.0288 43.0089 18.0288 42.0937Z" fill="#333333"/>
<path d="M56.2838 13.7161C50.5985 8.03089 43.0398 4.8999 34.9999 4.8999C24.1151 4.8999 14.045 10.8062 8.71955 20.3138C8.48157 20.7387 8.63313 21.2762 9.05793 21.5142C9.48286 21.7521 10.0203 21.6006 10.2582 21.1758C15.2722 12.2243 24.7526 6.66357 34.9999 6.66357C42.5686 6.66357 49.6845 9.61114 55.0366 14.9632C60.3888 20.3152 63.3362 27.4312 63.3362 34.9999C63.3362 42.5686 60.3887 49.6845 55.0366 55.0366C49.6846 60.3888 42.5686 63.3362 34.9999 63.3362C27.4312 63.3362 20.3153 60.3887 14.9632 55.0366C9.61102 49.6846 6.66357 42.5686 6.66357 34.9999C6.66357 31.2667 7.37739 27.6409 8.78515 24.2235C8.97069 23.7732 8.75599 23.2577 8.30567 23.0723C7.85546 22.8868 7.34 23.1015 7.15435 23.5518C5.65852 27.1833 4.8999 31.035 4.8999 34.9999C4.8999 43.0398 8.03089 50.5985 13.716 56.2837C19.4013 61.9689 26.96 65.0999 34.9999 65.0999C43.0398 65.0999 50.5985 61.9689 56.2838 56.2837C61.9689 50.5985 65.0999 43.0398 65.0999 34.9999C65.0999 26.96 61.9689 19.4013 56.2838 13.7161Z" stroke="#333333" stroke-width="0.6" mask="url(#path-1-outside-1)"/>
<path d="M35 59.6064C48.568 59.6064 59.6065 48.5679 59.6065 34.9999C59.6065 21.4318 48.568 10.3934 35 10.3934C21.4319 10.3934 10.3935 21.4318 10.3935 34.9999C10.3935 48.5679 21.4319 59.6064 35 59.6064ZM35 12.1571C47.5955 12.1571 57.8428 22.4043 57.8428 34.9999C57.8428 47.5954 47.5955 57.8427 35 57.8427C22.4044 57.8427 12.1571 47.5954 12.1571 34.9999C12.1571 22.4043 22.4044 12.1571 35 12.1571Z" stroke="#333333" stroke-width="0.6" mask="url(#path-1-outside-1)"/>
<path d="M20.9442 37.3612C21.4821 37.5545 22.0391 37.6506 22.5943 37.6506C23.3023 37.6506 24.0077 37.4941 24.6673 37.1833C25.844 36.6286 26.7343 35.6491 27.1742 34.4249L30.5855 24.9315C31.4935 22.4044 30.1764 19.6096 27.6493 18.7015C26.4252 18.2616 25.1028 18.3248 23.9262 18.8794C22.7495 19.434 21.8592 20.4136 21.4193 21.6378L18.008 31.1312C17.0999 33.6583 18.417 36.453 20.9442 37.3612ZM19.6678 31.7275L23.0791 22.2341C23.3596 21.4533 23.9275 20.8285 24.678 20.4747C25.4284 20.1209 26.2719 20.0806 27.0528 20.3612C27.8337 20.6418 28.4585 21.2097 28.8122 21.9603C29.166 22.7108 29.2062 23.5542 28.9256 24.3351L25.5143 33.8285C25.2338 34.6094 24.6659 35.2342 23.9154 35.588C23.1649 35.9417 22.3214 35.982 21.5405 35.7014C20.7597 35.4209 20.1349 34.853 19.7812 34.1024C19.4274 33.3517 19.3871 32.5085 19.6678 31.7275Z" stroke="#333333" stroke-width="0.6" mask="url(#path-1-outside-1)"/>
<path d="M41.6512 30.6857L45.9921 39.7909C46.8263 41.541 48.5756 42.5657 50.3962 42.5656C51.0975 42.5656 51.8094 42.4135 52.4834 42.0922C54.9078 40.9366 55.9402 38.0242 54.7847 35.5999L54.4002 34.7933C54.1907 34.3537 53.6643 34.1672 53.2248 34.3768C52.7852 34.5863 52.5987 35.1126 52.8082 35.5522L53.1927 36.3588C53.9298 37.9052 53.2711 39.763 51.7246 40.5002C50.1789 41.2371 48.3214 40.5784 47.5844 39.032L43.2435 29.927C42.5067 28.3803 43.1653 26.5224 44.7109 25.7857C45.1346 25.5842 45.5835 25.482 46.0453 25.482C47.2368 25.482 48.3385 26.1775 48.852 27.2536L51.2929 32.3718C51.5025 32.8114 52.0286 32.9978 52.4684 32.7882C52.9081 32.5785 53.0944 32.0522 52.8848 31.6126L50.4438 26.4943C49.6393 24.8079 47.9129 23.7183 46.0454 23.7183C45.3196 23.7183 44.6159 23.878 43.9528 24.1933C41.5286 25.3486 40.4963 28.2611 41.6512 30.6857Z" stroke="#333333" stroke-width="0.6" mask="url(#path-1-outside-1)"/>
<path d="M27.1685 45.8501C26.5217 48.4564 28.1157 51.1029 30.722 51.7498L40.5126 54.1801C40.9049 54.2775 41.2982 54.3241 41.6856 54.3241C43.8704 54.3241 45.8629 52.8406 46.4124 50.6267C47.0592 48.0205 45.4652 45.3738 42.859 44.727L33.0684 42.2968C30.4624 41.6499 27.8154 43.2439 27.1685 45.8501ZM28.8802 46.2751C29.2307 44.8629 30.5015 43.9167 31.8953 43.9167C32.1423 43.9167 32.3932 43.9464 32.6434 44.0085L42.4341 46.4387C44.0964 46.8514 45.1132 48.5395 44.7005 50.2019C44.2879 51.8644 42.6 52.8809 40.9373 52.4685L31.1467 50.0383C29.4843 49.6256 28.4676 47.9374 28.8802 46.2751Z" stroke="#333333" stroke-width="0.6" mask="url(#path-1-outside-1)"/>
<path d="M36.3002 35.1301C38.1878 35.1301 39.7234 33.5944 39.7234 31.7068C39.7234 29.8192 38.1878 28.2835 36.3002 28.2835C34.4126 28.2835 32.8769 29.8192 32.8769 31.7068C32.8769 33.5944 34.4126 35.1301 36.3002 35.1301ZM36.3002 30.0472C37.2153 30.0472 37.9598 30.7917 37.9598 31.7068C37.9598 32.6219 37.2153 33.3664 36.3002 33.3664C35.385 33.3664 34.6405 32.6219 34.6405 31.7068C34.6405 30.7917 35.385 30.0472 36.3002 30.0472Z" stroke="#333333" stroke-width="0.6" mask="url(#path-1-outside-1)"/>
<path d="M42.2947 22.822C44.1823 22.822 45.718 21.2863 45.718 19.3987C45.718 17.5111 44.1823 15.9755 42.2947 15.9755C40.4071 15.9755 38.8715 17.5111 38.8715 19.3987C38.8715 21.2863 40.4071 22.822 42.2947 22.822ZM42.2947 17.7391C43.2099 17.7391 43.9544 18.4836 43.9544 19.3987C43.9544 20.3139 43.2099 21.0584 42.2947 21.0584C41.3796 21.0584 40.6351 20.3139 40.6351 19.3987C40.6351 18.4836 41.3796 17.7391 42.2947 17.7391Z" stroke="#333333" stroke-width="0.6" mask="url(#path-1-outside-1)"/>
<path d="M23.1119 42.0937C23.1119 40.2061 21.5762 38.6704 19.6886 38.6704C17.801 38.6704 16.2653 40.2061 16.2653 42.0937C16.2653 43.9813 17.801 45.5169 19.6886 45.5169C21.5762 45.5169 23.1119 43.9813 23.1119 42.0937ZM18.0288 42.0937C18.0288 41.1785 18.7733 40.434 19.6885 40.434C20.6036 40.434 21.3481 41.1785 21.3481 42.0937C21.3481 43.0088 20.6036 43.7533 19.6885 43.7533C18.7733 43.7533 18.0288 43.0089 18.0288 42.0937Z" stroke="#333333" stroke-width="0.6" mask="url(#path-1-outside-1)"/>
</svg>
