<svg width="38" height="70" viewBox="0 0 38 70" fill="none" xmlns="http://www.w3.org/2000/svg">
<path d="M23.2016 22.2344C23.2016 21.0746 22.2614 20.1344 21.1016 20.1344H16.8984C15.7386 20.1344 14.7984 21.0746 14.7984 22.2344V31.374C14.7984 32.4153 13.9543 33.2594 12.9131 33.2594H11.7329C11.2201 33.2594 10.8061 33.6786 10.8127 34.1915C10.8192 34.6951 11.2293 35.1 11.7329 35.1H33.6797C34.729 35.1 35.5797 35.9507 35.5797 37V66.3594C35.5797 67.4087 34.729 68.2594 33.6797 68.2594H4.32031C3.27097 68.2594 2.42031 67.4087 2.42031 66.3594V36.6091C2.42031 35.7756 3.09595 35.1 3.92939 35.1H4.71815C5.22642 35.1 5.63846 34.688 5.63846 34.1797C5.63846 33.6714 5.22642 33.2594 4.71815 33.2594H2.67969C1.51989 33.2594 0.579687 34.1996 0.579687 35.3594V68C0.579687 69.1598 1.51989 70.1 2.67969 70.1H35.3203C36.4801 70.1 37.4203 69.1598 37.4203 68V35.3594C37.4203 34.1996 36.4801 33.2594 35.3203 33.2594H25.1016C24.0522 33.2594 23.2016 32.4087 23.2016 31.3594V22.2344ZM19.4609 21.975C20.5103 21.975 21.3609 22.8257 21.3609 23.875V31.3594C21.3609 32.4087 20.5103 33.2594 19.4609 33.2594H18.5391C17.4897 33.2594 16.6391 32.4087 16.6391 31.3594V23.875C16.6391 22.8257 17.4897 21.975 18.5391 21.975H19.4609Z" fill="#333333" stroke="#333333" stroke-width="0.2"/>
<path d="M33.0453 38.7344C33.0453 38.1269 32.5528 37.6344 31.9453 37.6344H6.05469C5.44717 37.6344 4.95469 38.1269 4.95469 38.7344V64.625C4.95469 65.2325 5.44717 65.725 6.05469 65.725H31.9453C32.5528 65.725 33.0453 65.2325 33.0453 64.625V38.7344ZM31.2047 62.9844C31.2047 63.4814 30.8017 63.8844 30.3047 63.8844H7.69531C7.19826 63.8844 6.79531 63.4814 6.79531 62.9844V40.375C6.79531 39.8779 7.19826 39.475 7.69531 39.475H30.3047C30.8017 39.475 31.2047 39.8779 31.2047 40.375V62.9844Z" fill="#333333" stroke="#333333" stroke-width="0.2"/>
<path d="M9.33594 49.1187C8.72842 49.1187 8.23594 49.6112 8.23594 50.2188V53.1406C8.23594 53.7481 8.72842 54.2406 9.33594 54.2406H11.1797C11.688 54.2406 12.1 53.8286 12.1 53.3203C12.1 52.812 11.688 52.4 11.1797 52.4H10.7969C10.3991 52.4 10.0766 52.0775 10.0766 51.6797C10.0766 51.2819 10.3991 50.9594 10.7969 50.9594H16.2656C16.6634 50.9594 16.9859 51.2819 16.9859 51.6797C16.9859 52.0775 16.6634 52.4 16.2656 52.4H15.8606C15.3523 52.4 14.9403 52.812 14.9403 53.3203C14.9403 53.8286 15.3523 54.2406 15.8606 54.2406H17.7266C18.3341 54.2406 18.8266 53.7481 18.8266 53.1406V50.2187C18.8266 49.6112 18.3341 49.1187 17.7266 49.1187H9.33594Z" fill="#333333" stroke="#333333" stroke-width="0.2"/>
<path d="M14.9894 9.61152C15.2104 9.75792 15.2802 10.0747 15.1521 10.3188C14.9263 10.7494 14.7984 11.239 14.7984 11.7578C14.7984 12.4512 15.0271 13.0921 15.4126 13.6095C15.558 13.8048 15.558 14.0859 15.4126 14.2811C15.0271 14.7985 14.7984 15.4394 14.7984 16.1328C14.7984 17.6715 15.9221 18.9522 17.3919 19.1981C17.7365 19.2557 18.0062 18.9665 18.0062 18.6406V18C18.0062 17.6638 17.7285 17.4221 17.4531 17.3163C16.9773 17.1334 16.6391 16.6716 16.6391 16.1328C16.6391 15.594 16.9773 15.1322 17.4531 14.9493C17.7285 14.8435 18.0062 14.6018 18.0062 14.2656V13.625C18.0062 13.2888 17.7285 13.0471 17.4531 12.9413C16.9773 12.7584 16.6391 12.2966 16.6391 11.7578C16.6391 11.219 16.9773 10.7572 17.4531 10.5743C17.7285 10.4685 18.0062 10.2268 18.0062 9.89062V9.25C18.0062 8.91564 17.7356 8.66039 17.4216 8.61613C15.7454 8.37982 14.4516 6.93555 14.4516 5.19531C14.4516 3.29054 16.0015 1.74063 17.9062 1.74063C19.326 1.74063 20.5482 2.60184 21.0786 3.82986C21.1335 3.95694 21.1013 4.0775 21.0164 4.16776C20.9294 4.26033 20.7878 4.3182 20.6361 4.30266L20.6025 4.29932C20.2625 4.26667 19.9938 4.54651 19.9938 4.875V5.51562C19.9938 5.84999 20.2644 6.10523 20.5784 6.1495C22.2546 6.3858 23.5484 7.83008 23.5484 9.57031C23.5484 11.3105 22.2546 12.7548 20.5784 12.9911C20.2644 13.0354 19.9938 13.2906 19.9938 13.625V14.2656C19.9938 14.6018 20.2715 14.8435 20.5469 14.9493C21.0227 15.1322 21.3609 15.594 21.3609 16.1328C21.3609 16.6716 21.0227 17.1334 20.5469 17.3163C20.2715 17.4221 19.9938 17.6638 19.9938 18V18.6406C19.9938 18.9665 20.2635 19.2557 20.6081 19.1981C22.0779 18.9522 23.2016 17.6715 23.2016 16.1328C23.2016 15.614 23.0737 15.1244 22.8479 14.6938C22.7198 14.4497 22.7896 14.1329 23.0106 13.9865C24.4422 13.0381 25.3891 11.4133 25.3891 9.57031C25.3891 7.84134 24.5553 6.30458 23.2703 5.33789C23.227 5.30535 23.2016 5.25333 23.2016 5.19531C23.2016 2.27542 20.8261 -0.1 17.9062 -0.1C14.9864 -0.1 12.6109 2.27542 12.6109 5.19531C12.6109 7.03826 13.5578 8.66314 14.9894 9.61152Z" fill="#333333" stroke="#333333" stroke-width="0.2"/>
<path d="M28.2969 8.57656C29.709 8.57656 30.8578 7.42779 30.8578 6.01562C30.8578 4.60346 29.709 3.45469 28.2969 3.45469C26.8847 3.45469 25.7359 4.60346 25.7359 6.01562C25.7359 7.42779 26.8847 8.57656 28.2969 8.57656ZM28.2969 5.29531C28.694 5.29531 29.0172 5.61845 29.0172 6.01562C29.0172 6.4128 28.694 6.73594 28.2969 6.73594C27.8997 6.73594 27.5766 6.4128 27.5766 6.01562C27.5766 5.61845 27.8997 5.29531 28.2969 5.29531Z" fill="#333333" stroke="#333333" stroke-width="0.2"/>
<path d="M11.3438 15.6859C12.7559 15.6859 13.9047 14.5372 13.9047 13.125C13.9047 11.7128 12.7559 10.5641 11.3438 10.5641C9.93159 10.5641 8.78281 11.7128 8.78281 13.125C8.78281 14.5372 9.93159 15.6859 11.3438 15.6859ZM11.3438 12.4047C11.7409 12.4047 12.0641 12.7278 12.0641 13.125C12.0641 13.5222 11.7409 13.8453 11.3438 13.8453C10.9466 13.8453 10.6234 13.5222 10.6234 13.125C10.6234 12.7278 10.9466 12.4047 11.3438 12.4047Z" fill="#333333" stroke="#333333" stroke-width="0.2"/>
</svg>
