<svg width="70" height="70" viewBox="0 0 70 70" fill="none" xmlns="http://www.w3.org/2000/svg">
<mask id="path-1-outside-1" maskUnits="userSpaceOnUse" x="5.88037" y="8.7998" width="58" height="52" fill="black">
<rect fill="white" x="5.88037" y="8.7998" width="58" height="52"/>
<path d="M17.4695 39.487C17.5726 39.8491 17.9026 40.0851 18.2613 40.0851C18.3362 40.0851 18.4122 40.0748 18.4878 40.0532C18.9254 39.9284 19.1789 39.4725 19.054 39.0349L18.7342 37.9137C24.0954 40.4318 29.5246 41.7075 34.8891 41.7075C40.3395 41.7075 45.8567 40.3896 51.3013 37.7909L50.9465 39.0349C50.8216 39.4724 51.0751 39.9284 51.5127 40.0532C51.5882 40.0748 51.6643 40.0851 51.7392 40.0851C52.0979 40.0851 52.4279 39.849 52.531 39.487L53.3756 36.5269C53.4875 36.1349 53.2957 35.72 52.9247 35.551L50.2515 34.3335C49.8372 34.1447 49.3487 34.3278 49.1602 34.7418C48.9716 35.156 49.1544 35.6445 49.5686 35.8331L50.5967 36.3013C45.3735 38.7952 40.0933 40.0597 34.8891 40.0597C29.7209 40.0597 24.4779 38.8127 19.2901 36.3531L20.4318 35.833C20.846 35.6444 21.0288 35.1559 20.8401 34.7417C20.6515 34.3276 20.1631 34.1447 19.7488 34.3334L17.0757 35.5509C16.7048 35.7199 16.5131 36.1347 16.6249 36.5268L17.4695 39.487Z"/>
<path d="M35.0001 32.29C39.8986 32.29 43.8838 28.3048 43.8838 23.4062C43.8838 18.7485 40.1324 9.7998 35.0001 9.7998C33.2763 9.7998 31.5528 10.8255 30.0157 12.7662C28.773 14.3352 27.6867 16.4537 26.9565 18.7316C26.8175 19.1649 27.0562 19.6288 27.4896 19.7677C27.9223 19.9067 28.3868 19.668 28.5256 19.2346C30.2406 13.8844 33.084 11.4476 35.0002 11.4476C36.6548 11.4476 38.4692 13.0137 39.9782 15.7443C41.3287 18.188 42.2361 21.2671 42.2361 23.4062C42.2361 27.3962 38.99 30.6422 35.0002 30.6422C31.0103 30.6422 27.7643 27.3962 27.7643 23.4062C27.7643 23.0726 27.7875 22.7044 27.8332 22.3119C27.8858 21.8598 27.5619 21.4508 27.1099 21.3983C26.6595 21.3459 26.249 21.6694 26.1964 22.1215C26.1434 22.577 26.1165 23.0093 26.1165 23.4063C26.1164 28.3048 30.1017 32.29 35.0001 32.29Z"/>
<path d="M61.2621 52.6445C61.2621 51.504 61.7652 50.6122 62.2518 49.7496C62.9685 48.479 63.8606 46.8976 62.0746 45.1118C60.2885 43.3261 58.7071 44.218 57.4363 44.9346C56.5736 45.4212 55.6817 45.9243 54.5411 45.9243C54.1939 45.9243 53.8792 45.9094 53.5787 45.8788C53.1251 45.8323 52.7216 46.1622 52.6755 46.6149C52.6293 47.0676 52.9588 47.472 53.4115 47.5181C53.768 47.5545 54.1375 47.5722 54.541 47.5722C56.1143 47.5722 57.2961 46.9057 58.2458 46.37C59.5847 45.6149 60.0491 45.4171 60.9095 46.2772C61.7694 47.137 61.5716 47.6015 60.8165 48.94C60.2809 49.8895 59.6143 51.0713 59.6143 52.6445C59.6143 54.4238 59.9706 55.364 60.285 56.1935C60.5427 56.8731 60.7704 57.4739 60.8322 58.5522H49.0213C49.121 58.1534 49.2478 57.8149 49.3796 57.465C49.6929 56.634 50.048 55.6919 50.048 53.9097C50.048 53.4546 49.6792 53.0858 49.2241 53.0858C48.7689 53.0858 48.4002 53.4546 48.4002 53.9097C48.4002 55.3916 48.1395 56.0832 47.8377 56.8839C47.6615 57.3514 47.4661 57.8699 47.3332 58.5523H35.4129C35.5126 58.1535 35.6394 57.815 35.7712 57.4651C36.0845 56.6341 36.4396 55.692 36.4396 53.9098C36.4396 53.4547 36.0708 53.0859 35.6157 53.0859C35.1605 53.0859 34.7918 53.4547 34.7918 53.9098C34.7918 55.3917 34.5311 56.0833 34.2293 56.884C34.0531 57.3516 33.8577 57.87 33.7248 58.5524H21.8047C21.9044 58.1536 22.0311 57.8151 22.1629 57.4653C22.4762 56.6342 22.8313 55.6921 22.8313 53.9098C22.8313 53.4547 22.4625 53.0859 22.0074 53.0859C21.5522 53.0859 21.1835 53.4547 21.1835 53.9098C21.1835 55.3919 20.9228 56.0834 20.621 56.8841C20.4448 57.3517 20.2494 57.87 20.1167 58.5524H15.3309C14.8758 58.5524 14.507 58.9212 14.507 59.3763C14.507 59.8314 14.8758 60.2002 15.3309 60.2002H61.4574C62.0305 60.2002 62.4968 59.7347 62.4968 59.1587C62.4968 57.3793 62.1404 56.4391 61.826 55.6097C61.5233 54.8114 61.2621 54.122 61.2621 52.6445Z"/>
<path d="M12.0366 58.5521H9.16815C9.22989 57.4757 9.45773 56.8747 9.71534 56.1949C10.0297 55.3652 10.386 54.4252 10.386 52.6456C10.386 51.0722 9.71941 49.8904 9.18386 48.9407C8.42872 47.6019 8.23087 47.1374 9.09104 46.2772C9.95098 45.4172 10.4154 45.6151 11.7539 46.37C12.7035 46.9056 13.8851 47.5721 15.4583 47.5721C17.2377 47.5721 18.1778 47.2158 19.0073 46.9015C19.8054 46.5989 20.4946 46.3377 21.9722 46.3377C23.4495 46.3377 24.1388 46.5989 24.9367 46.9015C25.7661 47.2158 26.7062 47.5721 28.4855 47.5721C30.2648 47.5721 31.205 47.2158 32.0344 46.9015C32.8325 46.5989 33.5216 46.3377 34.999 46.3377C36.4766 46.3377 37.1659 46.5989 37.9639 46.9015C38.7934 47.2158 39.7334 47.5721 41.5129 47.5721C43.2923 47.5721 44.2323 47.2158 45.0617 46.9015C45.8598 46.5989 46.549 46.3377 48.0264 46.3377C48.7884 46.3377 49.4119 46.4092 49.989 46.5628C50.4293 46.6799 50.88 46.4182 50.9971 45.9785C51.114 45.5387 50.8525 45.0874 50.4128 44.9703C49.6936 44.7791 48.9353 44.6899 48.0264 44.6899C46.2472 44.6899 45.3071 45.0462 44.4776 45.3605C43.6796 45.6631 42.9903 45.9243 41.5129 45.9243C40.0353 45.9243 39.346 45.6631 38.548 45.3605C37.7185 45.0462 36.7785 44.6899 34.999 44.6899C33.2198 44.6899 32.2797 45.0462 31.4503 45.3605C30.6522 45.6631 29.9629 45.9243 28.4855 45.9243C27.0081 45.9243 26.3188 45.6631 25.5208 45.3605C24.6914 45.0462 23.7515 44.6899 21.9722 44.6899C20.1929 44.6899 19.2527 45.0462 18.4232 45.3605C17.6251 45.6631 16.9359 45.9243 15.4583 45.9243C14.3178 45.9243 13.426 45.4213 12.5634 44.9347C11.2931 44.2181 9.71172 43.3259 7.92569 45.112C6.13978 46.8982 7.03169 48.4795 7.7485 49.7502C8.23505 50.6129 8.73818 51.5048 8.73818 52.6455C8.73818 54.1231 8.47695 54.8126 8.17441 55.6107C7.86 56.4403 7.50374 57.3803 7.50374 59.1621C7.50374 59.7343 7.96997 60.1997 8.54308 60.1997H12.0366C12.4917 60.1997 12.8605 59.831 12.8605 59.3758C12.8605 58.9207 12.4917 58.5521 12.0366 58.5521Z"/>
</mask>
<path d="M17.4695 39.487C17.5726 39.8491 17.9026 40.0851 18.2613 40.0851C18.3362 40.0851 18.4122 40.0748 18.4878 40.0532C18.9254 39.9284 19.1789 39.4725 19.054 39.0349L18.7342 37.9137C24.0954 40.4318 29.5246 41.7075 34.8891 41.7075C40.3395 41.7075 45.8567 40.3896 51.3013 37.7909L50.9465 39.0349C50.8216 39.4724 51.0751 39.9284 51.5127 40.0532C51.5882 40.0748 51.6643 40.0851 51.7392 40.0851C52.0979 40.0851 52.4279 39.849 52.531 39.487L53.3756 36.5269C53.4875 36.1349 53.2957 35.72 52.9247 35.551L50.2515 34.3335C49.8372 34.1447 49.3487 34.3278 49.1602 34.7418C48.9716 35.156 49.1544 35.6445 49.5686 35.8331L50.5967 36.3013C45.3735 38.7952 40.0933 40.0597 34.8891 40.0597C29.7209 40.0597 24.4779 38.8127 19.2901 36.3531L20.4318 35.833C20.846 35.6444 21.0288 35.1559 20.8401 34.7417C20.6515 34.3276 20.1631 34.1447 19.7488 34.3334L17.0757 35.5509C16.7048 35.7199 16.5131 36.1347 16.6249 36.5268L17.4695 39.487Z" fill="#333333"/>
<path d="M35.0001 32.29C39.8986 32.29 43.8838 28.3048 43.8838 23.4062C43.8838 18.7485 40.1324 9.7998 35.0001 9.7998C33.2763 9.7998 31.5528 10.8255 30.0157 12.7662C28.773 14.3352 27.6867 16.4537 26.9565 18.7316C26.8175 19.1649 27.0562 19.6288 27.4896 19.7677C27.9223 19.9067 28.3868 19.668 28.5256 19.2346C30.2406 13.8844 33.084 11.4476 35.0002 11.4476C36.6548 11.4476 38.4692 13.0137 39.9782 15.7443C41.3287 18.188 42.2361 21.2671 42.2361 23.4062C42.2361 27.3962 38.99 30.6422 35.0002 30.6422C31.0103 30.6422 27.7643 27.3962 27.7643 23.4062C27.7643 23.0726 27.7875 22.7044 27.8332 22.3119C27.8858 21.8598 27.5619 21.4508 27.1099 21.3983C26.6595 21.3459 26.249 21.6694 26.1964 22.1215C26.1434 22.577 26.1165 23.0093 26.1165 23.4063C26.1164 28.3048 30.1017 32.29 35.0001 32.29Z" fill="#333333"/>
<path d="M61.2621 52.6445C61.2621 51.504 61.7652 50.6122 62.2518 49.7496C62.9685 48.479 63.8606 46.8976 62.0746 45.1118C60.2885 43.3261 58.7071 44.218 57.4363 44.9346C56.5736 45.4212 55.6817 45.9243 54.5411 45.9243C54.1939 45.9243 53.8792 45.9094 53.5787 45.8788C53.1251 45.8323 52.7216 46.1622 52.6755 46.6149C52.6293 47.0676 52.9588 47.472 53.4115 47.5181C53.768 47.5545 54.1375 47.5722 54.541 47.5722C56.1143 47.5722 57.2961 46.9057 58.2458 46.37C59.5847 45.6149 60.0491 45.4171 60.9095 46.2772C61.7694 47.137 61.5716 47.6015 60.8165 48.94C60.2809 49.8895 59.6143 51.0713 59.6143 52.6445C59.6143 54.4238 59.9706 55.364 60.285 56.1935C60.5427 56.8731 60.7704 57.4739 60.8322 58.5522H49.0213C49.121 58.1534 49.2478 57.8149 49.3796 57.465C49.6929 56.634 50.048 55.6919 50.048 53.9097C50.048 53.4546 49.6792 53.0858 49.2241 53.0858C48.7689 53.0858 48.4002 53.4546 48.4002 53.9097C48.4002 55.3916 48.1395 56.0832 47.8377 56.8839C47.6615 57.3514 47.4661 57.8699 47.3332 58.5523H35.4129C35.5126 58.1535 35.6394 57.815 35.7712 57.4651C36.0845 56.6341 36.4396 55.692 36.4396 53.9098C36.4396 53.4547 36.0708 53.0859 35.6157 53.0859C35.1605 53.0859 34.7918 53.4547 34.7918 53.9098C34.7918 55.3917 34.5311 56.0833 34.2293 56.884C34.0531 57.3516 33.8577 57.87 33.7248 58.5524H21.8047C21.9044 58.1536 22.0311 57.8151 22.1629 57.4653C22.4762 56.6342 22.8313 55.6921 22.8313 53.9098C22.8313 53.4547 22.4625 53.0859 22.0074 53.0859C21.5522 53.0859 21.1835 53.4547 21.1835 53.9098C21.1835 55.3919 20.9228 56.0834 20.621 56.8841C20.4448 57.3517 20.2494 57.87 20.1167 58.5524H15.3309C14.8758 58.5524 14.507 58.9212 14.507 59.3763C14.507 59.8314 14.8758 60.2002 15.3309 60.2002H61.4574C62.0305 60.2002 62.4968 59.7347 62.4968 59.1587C62.4968 57.3793 62.1404 56.4391 61.826 55.6097C61.5233 54.8114 61.2621 54.122 61.2621 52.6445Z" fill="#333333"/>
<path d="M12.0366 58.5521H9.16815C9.22989 57.4757 9.45773 56.8747 9.71534 56.1949C10.0297 55.3652 10.386 54.4252 10.386 52.6456C10.386 51.0722 9.71941 49.8904 9.18386 48.9407C8.42872 47.6019 8.23087 47.1374 9.09104 46.2772C9.95098 45.4172 10.4154 45.6151 11.7539 46.37C12.7035 46.9056 13.8851 47.5721 15.4583 47.5721C17.2377 47.5721 18.1778 47.2158 19.0073 46.9015C19.8054 46.5989 20.4946 46.3377 21.9722 46.3377C23.4495 46.3377 24.1388 46.5989 24.9367 46.9015C25.7661 47.2158 26.7062 47.5721 28.4855 47.5721C30.2648 47.5721 31.205 47.2158 32.0344 46.9015C32.8325 46.5989 33.5216 46.3377 34.999 46.3377C36.4766 46.3377 37.1659 46.5989 37.9639 46.9015C38.7934 47.2158 39.7334 47.5721 41.5129 47.5721C43.2923 47.5721 44.2323 47.2158 45.0617 46.9015C45.8598 46.5989 46.549 46.3377 48.0264 46.3377C48.7884 46.3377 49.4119 46.4092 49.989 46.5628C50.4293 46.6799 50.88 46.4182 50.9971 45.9785C51.114 45.5387 50.8525 45.0874 50.4128 44.9703C49.6936 44.7791 48.9353 44.6899 48.0264 44.6899C46.2472 44.6899 45.3071 45.0462 44.4776 45.3605C43.6796 45.6631 42.9903 45.9243 41.5129 45.9243C40.0353 45.9243 39.346 45.6631 38.548 45.3605C37.7185 45.0462 36.7785 44.6899 34.999 44.6899C33.2198 44.6899 32.2797 45.0462 31.4503 45.3605C30.6522 45.6631 29.9629 45.9243 28.4855 45.9243C27.0081 45.9243 26.3188 45.6631 25.5208 45.3605C24.6914 45.0462 23.7515 44.6899 21.9722 44.6899C20.1929 44.6899 19.2527 45.0462 18.4232 45.3605C17.6251 45.6631 16.9359 45.9243 15.4583 45.9243C14.3178 45.9243 13.426 45.4213 12.5634 44.9347C11.2931 44.2181 9.71172 43.3259 7.92569 45.112C6.13978 46.8982 7.03169 48.4795 7.7485 49.7502C8.23505 50.6129 8.73818 51.5048 8.73818 52.6455C8.73818 54.1231 8.47695 54.8126 8.17441 55.6107C7.86 56.4403 7.50374 57.3803 7.50374 59.1621C7.50374 59.7343 7.96997 60.1997 8.54308 60.1997H12.0366C12.4917 60.1997 12.8605 59.831 12.8605 59.3758C12.8605 58.9207 12.4917 58.5521 12.0366 58.5521Z" fill="#333333"/>
<path d="M17.4695 39.487C17.5726 39.8491 17.9026 40.0851 18.2613 40.0851C18.3362 40.0851 18.4122 40.0748 18.4878 40.0532C18.9254 39.9284 19.1789 39.4725 19.054 39.0349L18.7342 37.9137C24.0954 40.4318 29.5246 41.7075 34.8891 41.7075C40.3395 41.7075 45.8567 40.3896 51.3013 37.7909L50.9465 39.0349C50.8216 39.4724 51.0751 39.9284 51.5127 40.0532C51.5882 40.0748 51.6643 40.0851 51.7392 40.0851C52.0979 40.0851 52.4279 39.849 52.531 39.487L53.3756 36.5269C53.4875 36.1349 53.2957 35.72 52.9247 35.551L50.2515 34.3335C49.8372 34.1447 49.3487 34.3278 49.1602 34.7418C48.9716 35.156 49.1544 35.6445 49.5686 35.8331L50.5967 36.3013C45.3735 38.7952 40.0933 40.0597 34.8891 40.0597C29.7209 40.0597 24.4779 38.8127 19.2901 36.3531L20.4318 35.833C20.846 35.6444 21.0288 35.1559 20.8401 34.7417C20.6515 34.3276 20.1631 34.1447 19.7488 34.3334L17.0757 35.5509C16.7048 35.7199 16.5131 36.1347 16.6249 36.5268L17.4695 39.487Z" stroke="#333333" stroke-width="0.6" mask="url(#path-1-outside-1)"/>
<path d="M35.0001 32.29C39.8986 32.29 43.8838 28.3048 43.8838 23.4062C43.8838 18.7485 40.1324 9.7998 35.0001 9.7998C33.2763 9.7998 31.5528 10.8255 30.0157 12.7662C28.773 14.3352 27.6867 16.4537 26.9565 18.7316C26.8175 19.1649 27.0562 19.6288 27.4896 19.7677C27.9223 19.9067 28.3868 19.668 28.5256 19.2346C30.2406 13.8844 33.084 11.4476 35.0002 11.4476C36.6548 11.4476 38.4692 13.0137 39.9782 15.7443C41.3287 18.188 42.2361 21.2671 42.2361 23.4062C42.2361 27.3962 38.99 30.6422 35.0002 30.6422C31.0103 30.6422 27.7643 27.3962 27.7643 23.4062C27.7643 23.0726 27.7875 22.7044 27.8332 22.3119C27.8858 21.8598 27.5619 21.4508 27.1099 21.3983C26.6595 21.3459 26.249 21.6694 26.1964 22.1215C26.1434 22.577 26.1165 23.0093 26.1165 23.4063C26.1164 28.3048 30.1017 32.29 35.0001 32.29Z" stroke="#333333" stroke-width="0.6" mask="url(#path-1-outside-1)"/>
<path d="M61.2621 52.6445C61.2621 51.504 61.7652 50.6122 62.2518 49.7496C62.9685 48.479 63.8606 46.8976 62.0746 45.1118C60.2885 43.3261 58.7071 44.218 57.4363 44.9346C56.5736 45.4212 55.6817 45.9243 54.5411 45.9243C54.1939 45.9243 53.8792 45.9094 53.5787 45.8788C53.1251 45.8323 52.7216 46.1622 52.6755 46.6149C52.6293 47.0676 52.9588 47.472 53.4115 47.5181C53.768 47.5545 54.1375 47.5722 54.541 47.5722C56.1143 47.5722 57.2961 46.9057 58.2458 46.37C59.5847 45.6149 60.0491 45.4171 60.9095 46.2772C61.7694 47.137 61.5716 47.6015 60.8165 48.94C60.2809 49.8895 59.6143 51.0713 59.6143 52.6445C59.6143 54.4238 59.9706 55.364 60.285 56.1935C60.5427 56.8731 60.7704 57.4739 60.8322 58.5522H49.0213C49.121 58.1534 49.2478 57.8149 49.3796 57.465C49.6929 56.634 50.048 55.6919 50.048 53.9097C50.048 53.4546 49.6792 53.0858 49.2241 53.0858C48.7689 53.0858 48.4002 53.4546 48.4002 53.9097C48.4002 55.3916 48.1395 56.0832 47.8377 56.8839C47.6615 57.3514 47.4661 57.8699 47.3332 58.5523H35.4129C35.5126 58.1535 35.6394 57.815 35.7712 57.4651C36.0845 56.6341 36.4396 55.692 36.4396 53.9098C36.4396 53.4547 36.0708 53.0859 35.6157 53.0859C35.1605 53.0859 34.7918 53.4547 34.7918 53.9098C34.7918 55.3917 34.5311 56.0833 34.2293 56.884C34.0531 57.3516 33.8577 57.87 33.7248 58.5524H21.8047C21.9044 58.1536 22.0311 57.8151 22.1629 57.4653C22.4762 56.6342 22.8313 55.6921 22.8313 53.9098C22.8313 53.4547 22.4625 53.0859 22.0074 53.0859C21.5522 53.0859 21.1835 53.4547 21.1835 53.9098C21.1835 55.3919 20.9228 56.0834 20.621 56.8841C20.4448 57.3517 20.2494 57.87 20.1167 58.5524H15.3309C14.8758 58.5524 14.507 58.9212 14.507 59.3763C14.507 59.8314 14.8758 60.2002 15.3309 60.2002H61.4574C62.0305 60.2002 62.4968 59.7347 62.4968 59.1587C62.4968 57.3793 62.1404 56.4391 61.826 55.6097C61.5233 54.8114 61.2621 54.122 61.2621 52.6445Z" stroke="#333333" stroke-width="0.6" mask="url(#path-1-outside-1)"/>
<path d="M12.0366 58.5521H9.16815C9.22989 57.4757 9.45773 56.8747 9.71534 56.1949C10.0297 55.3652 10.386 54.4252 10.386 52.6456C10.386 51.0722 9.71941 49.8904 9.18386 48.9407C8.42872 47.6019 8.23087 47.1374 9.09104 46.2772C9.95098 45.4172 10.4154 45.6151 11.7539 46.37C12.7035 46.9056 13.8851 47.5721 15.4583 47.5721C17.2377 47.5721 18.1778 47.2158 19.0073 46.9015C19.8054 46.5989 20.4946 46.3377 21.9722 46.3377C23.4495 46.3377 24.1388 46.5989 24.9367 46.9015C25.7661 47.2158 26.7062 47.5721 28.4855 47.5721C30.2648 47.5721 31.205 47.2158 32.0344 46.9015C32.8325 46.5989 33.5216 46.3377 34.999 46.3377C36.4766 46.3377 37.1659 46.5989 37.9639 46.9015C38.7934 47.2158 39.7334 47.5721 41.5129 47.5721C43.2923 47.5721 44.2323 47.2158 45.0617 46.9015C45.8598 46.5989 46.549 46.3377 48.0264 46.3377C48.7884 46.3377 49.4119 46.4092 49.989 46.5628C50.4293 46.6799 50.88 46.4182 50.9971 45.9785C51.114 45.5387 50.8525 45.0874 50.4128 44.9703C49.6936 44.7791 48.9353 44.6899 48.0264 44.6899C46.2472 44.6899 45.3071 45.0462 44.4776 45.3605C43.6796 45.6631 42.9903 45.9243 41.5129 45.9243C40.0353 45.9243 39.346 45.6631 38.548 45.3605C37.7185 45.0462 36.7785 44.6899 34.999 44.6899C33.2198 44.6899 32.2797 45.0462 31.4503 45.3605C30.6522 45.6631 29.9629 45.9243 28.4855 45.9243C27.0081 45.9243 26.3188 45.6631 25.5208 45.3605C24.6914 45.0462 23.7515 44.6899 21.9722 44.6899C20.1929 44.6899 19.2527 45.0462 18.4232 45.3605C17.6251 45.6631 16.9359 45.9243 15.4583 45.9243C14.3178 45.9243 13.426 45.4213 12.5634 44.9347C11.2931 44.2181 9.71172 43.3259 7.92569 45.112C6.13978 46.8982 7.03169 48.4795 7.7485 49.7502C8.23505 50.6129 8.73818 51.5048 8.73818 52.6455C8.73818 54.1231 8.47695 54.8126 8.17441 55.6107C7.86 56.4403 7.50374 57.3803 7.50374 59.1621C7.50374 59.7343 7.96997 60.1997 8.54308 60.1997H12.0366C12.4917 60.1997 12.8605 59.831 12.8605 59.3758C12.8605 58.9207 12.4917 58.5521 12.0366 58.5521Z" stroke="#333333" stroke-width="0.6" mask="url(#path-1-outside-1)"/>
</svg>
