<svg width="70" height="70" viewBox="0 0 70 70" fill="none" xmlns="http://www.w3.org/2000/svg">
<path d="M32.556 12.5068H17.9365C17.0499 12.5068 16.3286 13.2282 16.3286 14.1148V32.3735C16.3286 33.2601 17.0499 33.9815 17.9365 33.9815H32.556C33.4426 33.9815 34.164 33.2601 34.164 32.3735V14.1148C34.164 13.2282 33.4426 12.5068 32.556 12.5068ZM32.4903 32.3077H18.0022V14.1805H32.4903V32.3077Z" fill="#333333"/>
<path d="M32.556 35.877H17.9365C17.0499 35.877 16.3286 36.5983 16.3286 37.4849V55.7435C16.3286 56.6303 17.0499 57.3515 17.9365 57.3515H32.556C33.4426 57.3515 34.164 56.6301 34.164 55.7435V37.4849C34.164 36.5983 33.4426 35.877 32.556 35.877ZM32.4903 55.678H18.0022V37.5507H32.4903V55.678Z" fill="#333333"/>
<path d="M52.0639 12.5068H37.4445C36.5578 12.5068 35.8364 13.2282 35.8364 14.1148V32.3735C35.8364 33.2601 36.5578 33.9815 37.4445 33.9815H52.0639C52.9506 33.9815 53.6719 33.2601 53.6719 32.3735V14.1148C53.6718 13.2282 52.9506 12.5068 52.0639 12.5068ZM51.9982 32.3077H37.51V14.1805H51.9982V32.3077Z" fill="#333333"/>
<path d="M52.0639 35.877H37.4445C36.5578 35.877 35.8364 36.5983 35.8364 37.4849V55.7435C35.8364 56.6303 36.5578 57.3515 37.4445 57.3515H52.0639C52.9506 57.3515 53.6719 56.6301 53.6719 55.7435V37.4849C53.6718 36.5983 52.9506 35.877 52.0639 35.877ZM51.9982 55.678H37.51V37.5507H51.9982V55.678Z" fill="#333333"/>
<path d="M62.278 58.3823H60.5786V18.2433C60.5786 17.7811 60.204 17.4064 59.7417 17.4064C59.2795 17.4064 58.9049 17.781 58.9049 18.2433V58.3823H56.9077V11.0751C56.9077 10.0803 56.0984 9.271 55.1037 9.271H14.8963C13.9015 9.271 13.0922 10.0803 13.0922 11.0751V58.3823H11.0951V50.1317C11.0951 49.6696 10.7204 49.2949 10.2582 49.2949C9.79595 49.2949 9.42133 49.6695 9.42133 50.1317V58.3823H7.7221C6.79726 58.3823 6.04492 59.1348 6.04492 60.0595V62.7232C6.04492 63.648 6.79738 64.4004 7.7221 64.4004H62.278C63.2028 64.4004 63.9551 63.6479 63.9551 62.7232V60.0595C63.9551 59.1347 63.2028 58.3823 62.278 58.3823ZM14.7658 11.0751C14.7658 11.0032 14.8243 10.9446 14.8963 10.9446H55.1038C55.1757 10.9446 55.2342 11.0031 55.2342 11.0751V58.3823H14.7658V11.0751ZM62.2796 62.7266C62.2796 62.7266 62.2791 62.7268 62.278 62.7268L7.71854 62.7232L7.7221 60.056L62.2815 60.0595L62.2796 62.7266Z" fill="#333333"/>
<path d="M58.9996 5.6001H11.0004C10.1297 5.6001 9.42139 6.30834 9.42139 7.17908V46.1589C9.42139 46.6209 9.79601 46.9956 10.2583 46.9956C10.7204 46.9956 11.0951 46.621 11.0951 46.1588V7.27372H58.905V14.261C58.905 14.7232 59.2797 15.0979 59.7419 15.0979C60.2042 15.0979 60.5788 14.7233 60.5788 14.261V7.17908C60.5785 6.30834 59.8702 5.6001 58.9996 5.6001Z" fill="#333333"/>
</svg>
