<svg width="70" height="70" viewBox="0 0 70 70" fill="none" xmlns="http://www.w3.org/2000/svg">
<path d="M51.2636 6.2998H18.7369C18.2089 6.2998 17.7803 6.7284 17.7803 7.25643V62.743C17.7803 63.2711 18.2089 63.6997 18.7369 63.6997H51.2635C51.7916 63.6997 52.2201 63.2711 52.2201 62.743V7.25643C52.2203 6.7284 51.7917 6.2998 51.2636 6.2998ZM50.3069 61.7864H19.6936V8.21317H50.307V61.7864H50.3069Z" fill="#333333"/>
<path d="M47.4368 10.127H22.5636C22.0355 10.127 21.6069 10.5555 21.6069 11.0836V62.7436C21.6069 63.2716 22.0355 63.7002 22.5636 63.7002H47.4369C47.965 63.7002 48.3936 63.2716 48.3936 62.7436V11.0836C48.3936 10.5555 47.965 10.127 47.4368 10.127ZM46.4802 61.7869H23.5202V12.0403H46.4802V61.7869Z" fill="#333333"/>
<path d="M62.7432 61.7866H7.25643C6.7284 61.7866 6.2998 62.2152 6.2998 62.7432C6.2998 63.2713 6.7284 63.7 7.25643 63.7H62.743C63.2711 63.7 63.6997 63.2714 63.6997 62.7434C63.6997 62.2153 63.2712 61.7866 62.7432 61.7866Z" fill="#333333"/>
<path d="M30.2164 35.9565H26.3897C25.8617 35.9565 25.4331 36.3851 25.4331 36.9132C25.4331 37.4412 25.8617 37.8698 26.3897 37.8698H30.2164C30.7444 37.8698 31.173 37.4412 31.173 36.9132C31.1731 36.3851 30.7445 35.9565 30.2164 35.9565Z" fill="#333333"/>
<path d="M43.6097 13.9536H26.3897C25.8617 13.9536 25.4331 14.3822 25.4331 14.9102V33.0869C25.4331 33.6149 25.8617 34.0435 26.3897 34.0435H43.6097C44.1378 34.0435 44.5664 33.6149 44.5664 33.0869V14.9102C44.5664 14.3822 44.1378 13.9536 43.6097 13.9536ZM42.6531 32.1302H27.3464V15.8669H42.653V32.1302H42.6531Z" fill="#333333"/>
<path d="M43.6097 39.7832H26.3897C25.8617 39.7832 25.4331 40.2118 25.4331 40.7398V58.9165C25.4331 59.4445 25.8617 59.8731 26.3897 59.8731H43.6097C44.1378 59.8731 44.5664 59.4445 44.5664 58.9165V40.7398C44.5664 40.2118 44.1378 39.7832 43.6097 39.7832ZM42.6531 57.9598H27.3464V41.6965H42.653V57.9598H42.6531Z" fill="#333333"/>
</svg>
