<svg width="70" height="70" viewBox="0 0 70 70" fill="none" xmlns="http://www.w3.org/2000/svg">
<path fill-rule="evenodd" clip-rule="evenodd" d="M23.6825 21.7005C23.1162 21.7005 22.6571 22.1596 22.6571 22.7259C22.6571 23.2921 23.1162 23.7512 23.6825 23.7512H56.4187C57.0877 23.7512 57.632 24.2954 57.632 24.9645C57.632 25.6333 57.0878 26.1776 56.4187 26.1776H14.2816C13.6128 26.1776 13.0684 25.6335 13.0684 24.9644C13.0684 24.2953 13.6125 23.7512 14.2816 23.7512H19.5805C20.1468 23.7512 20.6059 23.2921 20.6059 22.7259C20.6059 22.1596 20.1468 21.7005 19.5805 21.7005H14.2816C12.4817 21.7005 11.0176 23.1647 11.0176 24.9645C11.0176 26.7643 12.4818 28.2284 14.2816 28.2284H25.6829L31.2669 36.0957C31.2669 36.0957 24.2882 45.928 24.2731 45.949C23.7997 46.6162 24.2937 47.5681 25.1093 47.5681H30.7609C31.0931 47.5681 31.4047 47.4071 31.597 47.1362L35.3501 41.8486L39.103 47.1359C39.2954 47.4069 39.607 47.5678 39.9392 47.5678H45.5906C46.4071 47.5678 46.9 46.6154 46.4268 45.9488L39.4332 36.0954L45.0172 28.2281H56.4185C58.2184 28.2281 59.6825 26.7638 59.6825 24.9641C59.6825 23.1784 58.2411 21.7232 56.4608 21.7005H23.6825ZM35.3501 30.3425L36.8509 28.2281H33.8492L35.3501 30.3425ZM27.0949 45.517H30.2313L34.0927 40.0768L32.5244 37.8673L27.0949 45.517ZM40.4688 45.517H43.6053L31.3343 28.2282H28.1978L40.4688 45.517ZM36.6075 32.1143L38.1758 34.3238L42.5023 28.2281H39.3658L36.6075 32.1143Z" fill="#333333"/>
<path fill-rule="evenodd" clip-rule="evenodd" d="M48.3363 46.6204L50.2417 39.699C49.1902 39.6369 48.3531 38.7645 48.3531 37.6976V35.0528C48.3531 33.9459 49.2535 33.0453 50.3605 33.0453H60.3317H61.1354C61.801 33.0453 62.2902 33.6695 62.1312 34.3158C62.0184 34.7741 61.6074 35.0962 61.1355 35.0962H50.404V37.6541H62.9412C63.5313 37.6541 64.0421 37.2539 64.1832 36.6808C64.1832 36.6808 64.4877 35.7278 64.5731 35.0962C64.6189 34.7576 64.6745 34.3307 64.7231 33.9524C64.791 33.4248 65.2459 33.0329 65.7778 33.0453C66.3918 33.0338 66.8736 33.5689 66.7978 34.1783L66.6823 35.1081L66.1746 37.1708C65.8646 38.4309 64.8669 39.3673 63.639 39.6289L65.5638 46.6203C65.741 47.2638 65.2408 47.918 64.5752 47.918H60.4622C60.0003 47.918 59.5952 47.609 59.4732 47.1633L57.432 39.7052H56.4681L54.4269 47.1633C54.305 47.609 53.9 47.918 53.4379 47.918H49.325C48.6727 47.9181 48.1565 47.274 48.3363 46.6204ZM63.2292 45.8671H61.2447L59.5583 39.705H61.5328L63.2292 45.8671ZM54.3416 39.705L52.6552 45.8671H50.6707L52.3671 39.705H54.3416Z" fill="#333333"/>
<path fill-rule="evenodd" clip-rule="evenodd" d="M22.1052 46.2703L20.1997 39.3489C21.2512 39.2868 22.0883 38.4144 22.0883 37.3475V34.7027C22.0883 33.5958 21.1879 32.6952 20.0809 32.6952H10.1097H9.30601C8.64042 32.6952 8.15119 33.3194 8.31023 33.9657C8.42302 34.424 8.834 34.7461 9.30595 34.7461H20.0374V37.304H7.50017C6.91009 37.304 6.39931 36.9038 6.25822 36.3307C6.25822 36.3307 5.95369 35.3777 5.86828 34.7461C5.82248 34.4075 5.76693 33.9806 5.71829 33.6023C5.65044 33.0747 5.19546 32.6828 4.66357 32.6952C4.04957 32.6837 3.56781 33.2188 3.64357 33.8282L3.75914 34.758L4.26677 36.8207C4.57685 38.0808 5.57449 39.0172 6.80236 39.2788L4.87763 46.2702C4.70045 46.9137 5.20056 47.5679 5.86625 47.5679H9.97916C10.4411 47.5679 10.8462 47.2589 10.9682 46.8132L13.0094 39.3551H13.9733L16.0145 46.8132C16.1364 47.2589 16.5414 47.5679 17.0035 47.5679H21.1164C21.7687 47.568 22.2849 46.9239 22.1052 46.2703ZM7.21224 45.517H9.19672L10.8831 39.3549H8.90865L7.21224 45.517ZM16.0998 39.3549L17.7862 45.517H19.7707L18.0743 39.3549H16.0998Z" fill="#333333"/>
</svg>
