<svg width="92" height="142" viewBox="0 0 92 142" fill="none" xmlns="http://www.w3.org/2000/svg">
<path fill-rule="evenodd" clip-rule="evenodd" d="M46 1.12373e-05C44.6446 1.11189e-05 43.3448 0.534282 42.3864 1.4853C41.428 2.43631 40.8896 3.72618 40.8896 5.07112L40.8896 124.678L8.735 92.7606C7.7754 91.8084 6.47391 91.2735 5.11684 91.2735C3.75976 91.2735 2.45827 91.8084 1.49868 92.7606C0.539082 93.7129 -1.11503e-05 95.0043 -1.1268e-05 96.351C-1.13858e-05 97.6976 0.539082 98.9891 1.49868 99.9413L42.3818 140.51C42.8565 140.982 43.4205 141.357 44.0414 141.613C44.6622 141.868 45.3278 142 46 142C46.6722 142 47.3378 141.868 47.9586 141.613C48.5795 141.357 49.1434 140.982 49.6182 140.51L90.5013 99.9413C90.9765 99.4698 91.3534 98.9101 91.6105 98.2941C91.8677 97.678 92 97.0178 92 96.351C92 95.0044 91.4609 93.7129 90.5013 92.7607C89.5417 91.8084 88.2402 91.2735 86.8832 91.2735C85.5261 91.2735 84.2246 91.8084 83.265 92.7607L51.1104 124.678L51.1104 5.07112C51.1104 3.72618 50.572 2.43631 49.6136 1.4853C48.6552 0.534283 47.3554 1.13558e-05 46 1.12373e-05Z" fill="#219653"/>
</svg>
