<svg width="65" height="65" viewBox="0 0 65 65" fill="none" xmlns="http://www.w3.org/2000/svg">
<path d="M0.920497 27.6688C1.3807 27.699 1.71827 27.4032 1.93308 26.7811C2.85007 12.8315 14.5313 1.9043 28.5268 1.9043C34.8181 1.9043 40.9245 4.1378 45.7212 8.19333C46.1228 8.53268 46.7235 8.48241 47.0631 8.08098C47.4025 7.67942 47.3523 7.07868 46.9507 6.73921C41.8107 2.39333 35.2677 0 28.5268 0C13.6951 0 1.00619 11.8478 0.0328375 26.6562C-0.00156697 27.1809 0.395798 27.6342 0.920497 27.6688Z" fill="#333333"/>
<path d="M52.9038 39.6887C49.9647 38.0899 46.2475 38.1407 43.3559 39.8184C42.901 40.0823 42.7462 40.6649 43.0101 41.1198C43.274 41.5748 43.8567 41.7294 44.3114 41.4656C45.8699 40.5614 47.9217 40.2118 49.6965 40.5445C53.3246 41.223 56.1087 44.592 56.1087 48.2744C56.1087 52.6112 52.5805 56.1392 48.2439 56.1392C44.5904 56.1392 41.1945 53.3317 40.5182 49.7462C40.154 47.8523 40.588 45.6379 41.6298 44.0237C41.9151 43.5819 41.788 42.9924 41.3462 42.7073C40.9044 42.422 40.3151 42.549 40.0298 42.9909C38.735 44.9969 38.1948 47.7486 38.6474 50.1024C39.4951 54.5958 43.6635 58.0434 48.2438 58.0434C53.6306 58.0434 58.0129 53.6609 58.0129 48.2743C58.0131 44.6972 56.0556 41.4076 52.9038 39.6887Z" fill="#333333"/>
<path d="M64.2556 45.2341L61.2233 44.4516C60.9524 43.5295 60.5844 42.6408 60.1244 41.7982L61.7151 39.1009C61.9357 38.7269 61.8752 38.251 61.5683 37.9439L58.5737 34.9492C58.2667 34.6421 57.7909 34.5818 57.4167 34.8023L56.2315 35.5014C58.4766 26.5279 56.1123 16.7078 50.0112 9.74807C49.6646 9.35261 49.0629 9.313 48.6676 9.65971C48.2722 10.0063 48.2327 10.6079 48.5793 11.0033C54.5178 17.7778 56.6422 27.4342 54.1019 36.0767C53.4854 35.7804 52.8467 35.5322 52.1908 35.3326C56.6351 19.8441 44.6062 3.94287 28.5268 3.94287C15.097 3.94287 3.91304 15.1268 3.91304 28.5566C3.91304 44.635 19.8164 56.6642 35.3028 52.2205C35.5024 52.8763 35.7505 53.5149 36.0469 54.1315C20.1884 58.793 3.33349 47.2804 1.96607 30.7897C1.92266 30.2657 1.46283 29.876 0.938512 29.9196C0.414448 29.963 0.0248269 30.4231 0.068245 30.9472C1.50015 48.2152 18.6829 60.4614 35.4714 56.2613L34.7724 57.4465C34.5519 57.8205 34.6123 58.2965 34.9193 58.6035L37.914 61.5982C38.221 61.9051 38.6969 61.9656 39.0709 61.7451L41.7683 60.1543C42.6109 60.6144 43.4995 60.9823 44.4216 61.2532L45.2042 64.2855C45.3127 64.706 45.6919 64.9998 46.1261 64.9998H50.3612C50.7954 64.9998 51.1746 64.706 51.2831 64.2855L52.0657 61.2532C52.9878 60.9823 53.8764 60.6144 54.719 60.1543L57.4164 61.7451C57.7902 61.9656 58.2662 61.9053 58.5733 61.5982L61.5679 58.6035C61.8749 58.2965 61.9354 57.8205 61.7148 57.4465L60.124 54.7492C60.584 53.9066 60.952 53.0178 61.2229 52.0958L64.2552 51.3133C64.6757 51.2047 64.9695 50.8255 64.9695 50.3913V46.1563C64.9699 45.7219 64.6761 45.3427 64.2556 45.2341ZM34.7725 39.1009L36.3633 41.7982C35.9032 42.6408 35.5353 43.5294 35.2644 44.4516L32.2321 45.2341C31.8116 45.3427 31.5178 45.7219 31.5178 46.1561V50.3911C31.5178 50.6362 31.6138 50.8617 31.771 51.033C31.0131 51.1418 30.2482 51.2125 29.4787 51.2443V50.2453C29.4787 49.7195 29.0524 49.2932 28.5265 49.2932C28.0007 49.2932 27.5744 49.7195 27.5744 50.2453V51.2433C22.0298 51.0134 16.9927 48.7869 13.1645 45.2646L13.8634 44.5657C14.2353 44.1939 14.2353 43.591 13.8634 43.2192C13.4916 42.8474 12.8887 42.8474 12.5169 43.2192L11.8181 43.9181C8.29535 40.09 6.06871 35.0528 5.83892 29.5083H6.83779C7.36363 29.5083 7.78994 29.0819 7.78994 28.5561C7.78994 28.0303 7.36363 27.604 6.83779 27.604H5.83892C6.06896 22.0594 8.2956 17.0223 11.8181 13.1941L12.5169 13.893C12.9657 14.2648 13.4146 14.2648 13.8634 13.893C14.2353 13.5211 14.2353 12.9184 13.8634 12.5465L13.1645 11.8476C16.9928 8.32518 22.03 6.09854 27.5744 5.86863V6.86725C27.5744 7.39309 28.0007 7.8194 28.5265 7.8194C29.0524 7.8194 29.4787 7.39309 29.4787 6.86725V5.86863C35.0231 6.09854 40.0603 8.32518 43.8884 11.8479L43.1899 12.5464C42.8181 12.9182 42.8181 13.5211 43.1899 13.8929C43.6387 14.2647 44.0876 14.2647 44.5364 13.8929L45.2349 13.1944C48.7571 17.0225 50.9836 22.0596 51.2137 27.604H50.2158C49.69 27.604 49.2637 28.0303 49.2637 28.5561C49.2637 29.0819 49.69 29.5083 50.2158 29.5083H51.2147C51.1828 30.2779 51.1121 31.0427 51.0033 31.8007C50.832 31.6435 50.6066 31.5475 50.3614 31.5475H46.1264C45.6922 31.5475 45.313 31.8413 45.2044 32.2618L44.4219 35.294C43.4997 35.565 42.6112 35.9329 41.7686 36.3929L39.0712 34.8022C38.6972 34.5817 38.2214 34.6421 37.9143 34.9491L34.9196 37.9438C34.6124 38.2509 34.552 38.7269 34.7725 39.1009ZM63.0655 49.6536L60.2114 50.3902C59.8728 50.4775 59.6094 50.7435 59.5252 51.0829C59.2468 52.2053 58.8033 53.2756 58.2075 54.2644C58.027 54.5639 58.0252 54.9383 58.2028 55.2396L59.7001 57.7786L57.7486 59.7302L55.2097 58.2329C54.9084 58.0553 54.5341 58.0569 54.2345 58.2376C53.2458 58.8334 52.1753 59.2767 51.0529 59.5552C50.7136 59.6394 50.4476 59.9028 50.3603 60.2414L49.6237 63.0956H46.864L46.1274 60.2414C46.0401 59.9028 45.7741 59.6394 45.4347 59.5552C44.3123 59.2767 43.242 58.8334 42.2532 58.2376C41.9537 58.0572 41.5793 58.0553 41.278 58.2329L38.7391 59.7302L36.7875 57.7786L38.2848 55.2397C38.4624 54.9384 38.4607 54.5641 38.2801 54.2646C37.6843 53.2759 37.2409 52.2054 36.9625 51.083C36.8782 50.7436 36.6149 50.4778 36.2763 50.3903L33.4221 49.6537V46.8939L36.2763 46.1573C36.6149 46.07 36.8783 45.804 36.9625 45.4647C37.241 44.3423 37.6843 43.2718 38.2801 42.2831C38.4607 41.9836 38.4624 41.6092 38.2848 41.308L36.7875 38.769L38.7391 36.8175L41.278 38.3148C41.5792 38.4924 41.9535 38.4906 42.2532 38.3101C43.2419 37.7143 44.3123 37.271 45.4347 36.9924C45.7741 36.9083 46.0401 36.6448 46.1274 36.3062L46.864 33.4521H49.6238L50.3604 36.3062C50.4478 36.6448 50.7137 36.9083 51.0531 36.9924C52.1755 37.271 53.2458 37.7143 54.2347 38.3101C54.5343 38.4906 54.9087 38.4925 55.2098 38.3148L57.7487 36.8175L59.7003 38.769L58.203 41.3081C58.0254 41.6093 58.0271 41.9836 58.2077 42.2832C58.8035 43.2719 59.2469 44.3424 59.5253 45.4648C59.6095 45.8041 59.8729 46.0701 60.2115 46.1574L63.0657 46.894V49.6536H63.0655Z" fill="#333333"/>
<path d="M48.4012 51.9834L52.3446 46.0683C52.6364 45.6308 52.5182 45.0396 52.0806 44.7479C51.643 44.4562 51.0519 44.5744 50.7602 45.012L47.4611 49.9608L45.5013 48.0011C45.1295 47.6293 44.5266 47.6293 44.1549 48.0011C43.783 48.373 43.783 48.9759 44.1549 49.3476L46.9358 52.1285C47.5139 52.5584 48.0693 52.4473 48.4012 51.9834Z" fill="#219653"/>
<path d="M31.4503 24.6328V14.7548C31.2828 12.9731 30.3082 11.9985 28.5266 11.8311C26.9144 11.8311 25.6028 13.1427 25.6028 14.7548V24.6324C25.2678 24.8826 24.9665 25.1754 24.7053 25.5014H18.7981C16.936 25.6761 15.9178 26.6947 15.7437 28.5571C15.7437 30.2414 17.1139 31.6116 18.7981 31.6116H24.7048C25.6027 32.7326 26.9817 33.4524 28.5263 33.4524C31.2257 33.4524 33.4219 31.2563 33.4219 28.5569C33.4219 26.9527 32.6462 25.5263 31.4503 24.6328ZM27.5071 14.7548C27.5071 14.1926 27.9644 13.7354 28.5266 13.7354C29.1476 13.7939 29.4875 14.1337 29.546 14.7548V23.7688C28.8664 23.6254 28.1867 23.6254 27.5071 23.7687V14.7548ZM18.7981 29.7073C18.1639 29.7073 17.6479 29.1914 17.6479 28.5571C17.7132 27.8553 18.0966 27.4716 18.7981 27.4057H23.7686C23.5847 28.1728 23.5847 28.9401 23.7685 29.7073H18.7981ZM28.5263 31.5481C26.8769 31.5481 25.5349 30.2063 25.5349 28.5569C25.5349 26.9075 26.8768 25.5655 28.5263 25.5655C30.1758 25.5655 31.5176 26.9074 31.5176 28.5569C31.5176 30.2064 30.1757 31.5481 28.5263 31.5481Z" fill="#219653"/>
</svg>
