<svg width="65" height="65" viewBox="0 0 65 65" fill="none" xmlns="http://www.w3.org/2000/svg">
<path d="M8.67528 26.3362C4.70205 41.6859 16.689 57.11 32.5034 57.11C46.0733 57.11 57.1133 46.0701 57.1133 32.5001C57.1133 26.7333 55.0779 21.1267 51.3819 16.7132C51.0444 16.3102 50.4439 16.257 50.0408 16.5945C49.6376 16.9321 49.5846 17.5326 49.9221 17.9357C53.3315 22.007 55.2092 27.1794 55.2092 32.5C55.2092 45.02 45.0233 55.2058 32.5034 55.2058C25.9937 55.2058 20.116 52.4513 15.9721 48.0477H23.0984C23.6243 48.0477 24.0504 47.6215 24.0504 47.0956V46.0765H27.0462C27.5721 46.0765 27.9983 45.6504 27.9983 45.1245V44.4596C28.9481 44.5805 29.676 44.8159 30.3751 45.3523C30.9854 45.8192 31.7385 46.0763 32.4959 46.0763H36.276C36.8019 46.0763 37.2281 45.6501 37.2281 45.1242C37.2281 44.5983 36.8019 44.1722 36.276 44.1722H32.4959C32.1544 44.1722 31.8119 44.0541 31.533 43.8409C30.3831 42.9585 29.1747 42.6668 27.9983 42.5412V30.6424C29.0006 29.5572 30.0774 28.7538 31.1212 27.9747C33.5976 26.1269 35.9366 24.3814 35.6973 19.7755C35.6442 18.7606 37.1204 18.5304 37.403 19.4659C38.4167 22.7864 38.4034 25.5753 37.3609 28.2426C37.1991 28.9877 37.4948 29.4206 38.2475 29.5412H47.7223C49.1641 29.5412 49.1654 31.7714 47.7223 31.7714H45.1518C43.9209 31.7714 43.9209 33.6755 45.1518 33.6755H47.0229C48.4637 33.6755 48.4638 35.9047 47.0229 35.9047H45.1518C43.9209 35.9047 43.9209 37.8088 45.1518 37.8088H46.3362C47.7769 37.8088 47.7771 40.039 46.3362 40.039H44.4652C43.2342 40.039 43.2342 41.9431 44.4652 41.9431H45.4985C46.9395 41.9431 46.9389 44.1723 45.4985 44.1723H40.4247C39.8988 44.1723 39.4726 44.5984 39.4726 45.1244C39.4726 45.6503 39.8988 46.0764 40.4247 46.0764H45.4985C47.7594 46.0764 49.2242 43.2606 48.0334 41.4219C49.2574 40.5853 49.6556 38.423 48.8222 37.2143C49.9711 36.3572 50.3123 34.2522 49.514 33.0878C51.7809 31.4113 50.6135 27.6372 47.7222 27.6372H39.5704C40.3262 24.9487 40.2099 22.1394 39.2247 18.9127C38.7705 17.6751 37.8854 17.0217 36.5693 16.9526C34.808 17.1325 33.8833 18.1065 33.7955 19.8748C33.9821 23.4643 32.3043 24.7163 29.9823 26.449C29.3147 26.9471 28.5955 27.4846 27.8745 28.1159C27.711 27.8272 27.4016 27.632 27.0461 27.632H24.0503V26.5164C24.0503 25.9905 23.6241 25.5644 23.0982 25.5644H10.8824C13.8207 16.4263 22.4016 9.7946 32.5034 9.7946C37.8437 9.7946 43.0309 11.6844 47.1094 15.1158C47.5116 15.4541 48.1122 15.4027 48.4507 15.0002C48.7892 14.5979 48.7375 13.9973 48.3351 13.6588C43.9141 9.93906 38.2916 7.89063 32.5034 7.89063C21.9894 7.89024 10.7382 15.5516 8.67528 26.3362ZM26.0941 29.5358V44.1726H24.0504V29.5358H26.0941ZM22.1464 27.4682V46.1437H14.3658C10.3826 40.8617 8.89552 33.9181 10.3605 27.4682H22.1464Z" fill="#219653"/>
<path d="M55.4818 9.51957C49.344 3.38176 41.1832 0.00146484 32.5033 0.00146484C25.5259 0.00146484 18.8744 2.18077 13.2677 6.30379C12.8441 6.6153 12.7532 7.21116 13.0647 7.63476C13.3761 8.05849 13.9721 8.14925 14.3957 7.83774C19.6731 3.95692 25.9345 1.90557 32.5032 1.90557C49.372 1.90557 63.0958 15.6293 63.0958 32.4982C63.0958 49.367 49.372 63.0908 32.5032 63.0908C15.6344 63.0908 1.9106 49.367 1.9106 32.4982C1.9106 24.0979 5.24748 16.2639 11.3065 10.4395C11.6855 10.0751 11.6974 9.47235 11.3331 9.09343C10.9687 8.71426 10.367 8.70385 9.98705 9.06678C-3.33622 21.7928 -3.16688 42.7851 9.52473 55.4766C15.6627 61.6146 23.8233 64.9947 32.5033 64.9947C41.1834 64.9947 49.344 61.6144 55.4819 55.4766C61.6199 49.3388 65 41.1781 65 32.498C65 23.818 61.6197 15.6575 55.4818 9.51957Z" fill="#333333"/>
<path d="M12.3128 52.6904C17.7058 58.0834 24.8763 61.0535 32.5031 61.0535C40.13 61.0535 47.3003 58.0835 52.6935 52.6904C58.0864 47.2974 61.0566 40.1269 61.0566 32.5001C61.0566 24.8733 58.0864 17.7029 52.6934 12.3099C47.3003 6.91692 40.13 3.94678 32.5031 3.94678C24.8763 3.94678 17.7058 6.91692 12.3128 12.3099C6.91985 17.7029 3.94971 24.8734 3.94971 32.5002C3.94971 40.127 6.91973 47.2974 12.3128 52.6904ZM32.5031 5.85088C47.1976 5.85088 59.1525 17.8057 59.1525 32.5002C59.1525 47.1947 47.1975 59.1494 32.5031 59.1494C17.8088 59.1494 5.85381 47.1947 5.85381 32.5002C5.85381 17.8057 17.8087 5.85088 32.5031 5.85088Z" fill="#333333"/>
<path d="M18.7025 35.383C19.2285 35.383 19.6546 34.9569 19.6546 34.431V30.5287C19.6546 30.0028 19.2285 29.5767 18.7025 29.5767C18.1766 29.5767 17.7505 30.0028 17.7505 30.5287V34.431C17.7505 34.9568 18.1766 35.383 18.7025 35.383Z" fill="#219653"/>
</svg>
