<svg width="65" height="59" viewBox="0 0 65 59" fill="none" xmlns="http://www.w3.org/2000/svg">
<path d="M64.0479 0.947266H34.5744C34.0484 0.947266 33.6223 1.37345 33.6223 1.89941C33.6223 2.42538 34.0484 2.85156 34.5744 2.85156H63.0957V44.3246H42.1027C42.4374 43.6799 42.7086 42.9978 42.9089 42.2857H56.1603C56.6862 42.2857 57.1124 41.8596 57.1124 41.3336V38.3426H60.1047C60.6307 38.3426 61.0568 37.9164 61.0568 37.3904V9.78574C61.0568 9.25978 60.6307 8.83359 60.1047 8.83359H57.1124V5.84258C57.1124 5.31661 56.6862 4.89043 56.1603 4.89043H8.83975C8.31378 4.89043 7.8876 5.31661 7.8876 5.84258V8.83359H4.89531C4.36935 8.83359 3.94316 9.25978 3.94316 9.78574V23.4853C3.94316 24.0112 4.36935 24.4374 4.89531 24.4374C5.42128 24.4374 5.84746 24.0112 5.84746 23.4853V10.7379H8.83975C9.36571 10.7379 9.79189 10.3117 9.79189 9.78574V6.79473H55.2081V9.78574C55.2081 10.3117 55.6343 10.7379 56.1603 10.7379H59.1525V36.4383H56.1603C55.6343 36.4383 55.2081 36.8645 55.2081 37.3904V40.3815H43.2644C43.4586 38.3158 42.9781 35.9781 41.9881 34.1727C41.7352 33.7117 41.1567 33.543 40.6953 33.7956C40.2342 34.0485 40.0655 34.6273 40.3183 35.0884C41.0321 36.3902 41.4096 37.868 41.4096 39.362C41.4096 44.274 37.4128 48.2703 32.5 48.2703C27.5872 48.2703 23.5904 44.274 23.5904 39.362C23.5904 34.4493 27.5872 30.4524 32.5 30.4524C34.4508 30.4524 36.3036 31.0718 37.8581 32.2436C38.2779 32.56 38.875 32.4765 39.1916 32.0564C39.5081 31.6364 39.4243 31.0395 39.0043 30.7229C37.1169 29.3001 34.8677 28.548 32.5 28.548C26.2543 28.548 21.152 34.1765 21.7356 40.3813H9.79189V37.3903C9.79189 36.8643 9.36571 36.4382 8.83975 36.4382H5.84746V27.6338C5.84746 27.1079 5.42128 26.6817 4.89531 26.6817C4.36935 26.6817 3.94316 27.1079 3.94316 27.6338V37.3903C3.94316 37.9163 4.36935 38.3425 4.89531 38.3425H7.8876V41.3335C7.8876 41.8594 8.31378 42.2856 8.83975 42.2856H22.0911C22.2914 42.9976 22.5626 43.6797 22.8973 44.3245H1.9043V2.85156H30.4256C30.9516 2.85156 31.3777 2.42538 31.3777 1.89941C31.3777 1.37345 30.9516 0.947266 30.4256 0.947266H0.952148C0.426182 0.947266 0 1.37345 0 1.89941V45.2768C0 45.8027 0.426182 46.2289 0.952148 46.2289H24.1531C25.0966 47.3735 26.2721 48.3188 27.6047 48.9984V57.1075C27.5646 58.0513 28.6914 58.3136 29.2302 57.7809L32.5 54.511L35.7698 57.7809C36.3144 58.3251 37.3953 58.0213 37.3953 57.1075V48.9984C38.7281 48.3188 39.9034 47.3734 40.8469 46.2289H64.0479C64.5738 46.2289 65 45.8027 65 45.2768V1.89941C65 1.37357 64.5738 0.947266 64.0479 0.947266ZM35.491 54.8089L33.1734 52.4911C32.8014 52.1194 32.1986 52.1194 31.8268 52.4911L29.5091 54.8089V49.7506C30.4597 50.0247 31.4624 50.1746 32.5001 50.1746C33.5378 50.1746 34.5405 50.0247 35.4911 49.7506V54.8089H35.491Z" fill="#333333"/>
<path d="M32.4999 32.4917C28.7285 32.4917 25.6602 35.5599 25.6602 39.3313C25.6602 43.1027 28.7285 46.171 32.4999 46.171C36.2713 46.171 39.3396 43.1027 39.3396 39.3313C39.3396 35.5599 36.2713 32.4917 32.4999 32.4917ZM32.4999 44.2667C29.7784 44.2667 27.5645 42.0528 27.5645 39.3313C27.5645 36.6099 29.7784 34.396 32.4999 34.396C35.2214 34.396 37.4353 36.6099 37.4353 39.3313C37.4353 42.0527 35.2214 44.2667 32.4999 44.2667Z" fill="#333333"/>
<path d="M48.2737 12.7617H16.7261C16.2001 12.7617 15.7739 13.1879 15.7739 13.7139V17.6573C15.7739 18.1832 16.2001 18.6094 16.7261 18.6094H48.2737C48.7996 18.6094 49.2258 18.1832 49.2258 17.6573V13.7139C49.2258 13.1879 48.7996 12.7617 48.2737 12.7617ZM47.3215 16.705H17.6782V14.6659H47.3215V16.705Z" fill="#219653"/>
<path d="M11.8306 21.6162C11.8306 22.1422 12.2567 22.5684 12.7827 22.5684H28.5565C29.0825 22.5684 29.5087 22.1422 29.5087 21.6162C29.5087 21.0902 29.0825 20.6641 28.5565 20.6641H12.7827C12.2569 20.6641 11.8306 21.0902 11.8306 21.6162Z" fill="#219653"/>
<path d="M53.1693 21.6313C53.1693 21.1054 52.7431 20.6792 52.2172 20.6792H36.4434C35.9174 20.6792 35.4912 21.1054 35.4912 21.6313C35.4912 22.1573 35.9174 22.5835 36.4434 22.5835H52.2172C52.743 22.5835 53.1693 22.1573 53.1693 21.6313Z" fill="#219653"/>
<path d="M24.6133 24.6079C24.0873 24.6079 23.6611 25.0341 23.6611 25.5601C23.6611 26.086 24.0873 26.5122 24.6133 26.5122H40.387C40.9129 26.5122 41.3391 26.086 41.3391 25.5601C41.3391 25.0341 40.9129 24.6079 40.387 24.6079H24.6133Z" fill="#219653"/>
<path d="M4.896 6.79443C4.37016 6.79443 3.94385 6.36813 3.94385 5.84229C3.94385 5.31645 4.37016 4.89014 4.896 4.89014C5.42184 4.89014 5.84814 5.31645 5.84814 5.84229C5.84814 6.36813 5.42184 6.79443 4.896 6.79443Z" fill="#333333"/>
<path d="M60.104 6.79443C59.5782 6.79443 59.1519 6.36813 59.1519 5.84229C59.1519 5.31645 59.5782 4.89014 60.104 4.89014C60.6298 4.89014 61.0562 5.31645 61.0562 5.84229C61.0562 6.36813 60.6298 6.79443 60.104 6.79443Z" fill="#333333"/>
<path d="M4.896 42.2856C4.37016 42.2856 3.94385 41.8593 3.94385 41.3335C3.94385 40.8077 4.37016 40.3813 4.896 40.3813C5.42184 40.3813 5.84814 40.8077 5.84814 41.3335C5.84814 41.8593 5.42184 42.2856 4.896 42.2856Z" fill="#333333"/>
<path d="M60.104 42.2856C59.5782 42.2856 59.1519 41.8593 59.1519 41.3335C59.1519 40.8077 59.5782 40.3813 60.104 40.3813C60.6298 40.3813 61.0562 40.8077 61.0562 41.3335C61.0562 41.8593 60.6298 42.2856 60.104 42.2856Z" fill="#333333"/>
</svg>
