<svg width="16" height="16" viewBox="0 0 16 16" fill="none" xmlns="http://www.w3.org/2000/svg">
<path d="M1.85355 0.85C1.58739 0.85 1.33214 0.955731 1.14393 1.14393C0.955731 1.33214 0.85 1.5874 0.85 1.85355V14.1464C0.85 14.4126 0.955731 14.6679 1.14393 14.8561C1.33214 15.0443 1.5874 15.15 1.85355 15.15H14.1464C14.4126 15.15 14.6679 15.0443 14.8561 14.8561C15.0443 14.6679 15.15 14.4126 15.15 14.1464V10.5C15.15 10.141 14.859 9.85 14.5 9.85C14.141 9.85 13.85 10.141 13.85 10.5V13C13.85 13.4694 13.4694 13.85 13 13.85H3C2.53056 13.85 2.15 13.4694 2.15 13V3C2.15 2.53056 2.53056 2.15 3 2.15H5.5C5.85899 2.15 6.15 1.85899 6.15 1.5C6.15 1.14101 5.85899 0.85 5.5 0.85H1.85355Z" fill="#333333" stroke="#333333" stroke-width="0.3"/>
<path d="M15.1501 1.85355C15.1501 1.58739 15.0444 1.33214 14.8562 1.14393C14.668 0.955731 14.4127 0.85 14.1466 0.85H8.50013C8.14115 0.85 7.85013 1.14101 7.85013 1.5C7.85013 1.85899 8.14115 2.15 8.50013 2.15H10.8789C11.6362 2.15 12.0154 3.06557 11.48 3.60104L6.78355 8.29745C6.52974 8.55126 6.52959 8.96273 6.78323 9.21673C7.03713 9.47099 7.44913 9.47112 7.70319 9.21702L12.399 4.52047C12.9345 3.98494 13.8501 4.36417 13.8501 5.12147V7.5C13.8501 7.85899 14.1411 8.15 14.5001 8.15C14.8591 8.15 15.1501 7.85899 15.1501 7.5V1.85355Z" fill="#333333" stroke="#333333" stroke-width="0.3"/>
</svg>
