<svg width="25" height="25" viewBox="0 0 25 25" fill="none" xmlns="http://www.w3.org/2000/svg">
<g clip-path="url(#clip0)">
<path fill-rule="evenodd" clip-rule="evenodd" d="M25.0019 0H0V25.0019H25.0019V0ZM18.5607 6.49258C19.626 6.55256 20.1492 6.7103 20.6313 7.56787C21.1334 8.42433 21.3867 9.89952 21.3867 12.4978V12.5011V12.5067C21.3867 15.0927 21.1334 16.579 20.6325 17.4266C20.1504 18.2841 19.6271 18.4397 18.5619 18.5119C17.4966 18.573 14.8205 18.6096 12.5022 18.6096C10.1795 18.6096 7.50233 18.573 6.43815 18.5108C5.37507 18.4386 4.85187 18.283 4.36532 17.4255C3.86877 16.5779 3.61328 15.0916 3.61328 12.5056V12.5033V12.5V12.4967C3.61328 9.89952 3.86877 8.42433 4.36532 7.56787C4.85187 6.70919 5.37618 6.55256 6.43926 6.49147C7.50233 6.42037 10.1795 6.39038 12.5022 6.39038C14.8205 6.39038 17.4966 6.42037 18.5607 6.49258ZM15.8325 12.5L10.2783 9.16748V15.8325L15.8325 12.5Z" fill="#333333"/>
</g>
<defs>
<clipPath id="clip0">
<rect width="25" height="25" fill="white"/>
</clipPath>
</defs>
</svg>
