<svg xmlns="http://www.w3.org/2000/svg" width="11" height="11.97" viewBox="0 0 11 11.97">
  <defs>
    <style>
      .cls-1 {
        fill: #272727;
        fill-rule: evenodd;
      }
    </style>
  </defs>
  <path id="rocket" class="cls-1" d="M389.25,2466.5v-0.77a3.7,3.7,0,0,1-.688.76v0.39L386.5,2468l-2.063-1.12v-0.39a3.666,3.666,0,0,1-.687-0.76v0.77L381,2468l1.375-4.49,0.483-.35,0.2,0.22v-2.09h0v-0.03a0.117,0.117,0,0,0,0-.02c0-.05,0-0.1.007-0.14s-0.009-.07-0.009-0.1c0-2.29,3.173-4.88,3.173-4.88a0.418,0.418,0,0,1,.529,0c0.264,0.21,3.173,2.59,3.173,4.88,0,0.03-.006.06-0.009,0.1s0,0.09.007,0.14c0,0.01,0,.01,0,0.02v2.12l0.2-.22,0.484,0.35L392,2468Zm-2.75-7.48a1.5,1.5,0,1,1-1.375,1.49A1.438,1.438,0,0,1,386.5,2459.02Z" transform="translate(-381 -2456.03)"/>
</svg>
