<svg width="30" height="11" fill="none" xmlns="http://www.w3.org/2000/svg"><path d="M29.849 6.692c-.108-.613-.103-1.44-.358-2.026-.164-.36-.588-.48-.874-.672-.45-.26-.907-.569-1.356-.83L22.19.124c.172.115.191 1.083.224 1.271.034.189.053 1.157.225 1.273.85.53 1.74 1.005 2.589 1.535-8.338.159-16.725.326-25.054.531.098-.017.293 2.523.44 2.497 7.58-.17 15.209-.35 22.845-.481-.952.314-1.937.73-2.807 1.224-.139.073.084.762.24 1.366l.2 1.131c.138-.073.325-.154.464-.227 0 0 .049-.009.04-.056 1.473-.794 3.11-1.229 4.747-1.663.912-.258 1.832-.469 2.727-.821.521-.19.758-.28.797-.626.009.047.057.038.066.085l-.05-.283-.034-.188zm-2.31-1.099l-.099.018-.016-.095.114.077z" fill="#fff"/></svg>