<svg width="195" height="124" fill="none" xmlns="http://www.w3.org/2000/svg"><path d="M3 16a3 3 0 100-6 3 3 0 000 6zm0 21.5a3 3 0 100-6 3 3 0 000 6zM3 59a3 3 0 100-6 3 3 0 000 6zm0 21.5a3 3 0 100-6 3 3 0 000 6zM3 102a3 3 0 100-6 3 3 0 000 6zm0 21.5a3 3 0 100-6 3 3 0 000 6zM24 6a3 3 0 100-6 3 3 0 000 6zm0 21.5a3 3 0 100-6 3 3 0 000 6zM24 49a3 3 0 100-6 3 3 0 000 6zm0 21.5a3 3 0 100-6 3 3 0 000 6zM24 92a3 3 0 100-6 3 3 0 000 6zm0 21.5a3 3 0 100-6 3 3 0 000 6zM45 16a3 3 0 100-6 3 3 0 000 6zm0 21.5a3 3 0 100-6 3 3 0 000 6zM45 59a3 3 0 100-6 3 3 0 000 6zm0 21.5a3 3 0 100-6 3 3 0 000 6zm0 21.5a3 3 0 100-6 3 3 0 000 6zm0 21.5a3 3 0 100-6 3 3 0 000 6zM66 6a3 3 0 100-6 3 3 0 000 6zm0 21.5a3 3 0 100-6 3 3 0 000 6zM66 49a3 3 0 100-6 3 3 0 000 6zm0 21.5a3 3 0 100-6 3 3 0 000 6zM66 92a3 3 0 100-6 3 3 0 000 6zm0 21.5a3 3 0 100-6 3 3 0 000 6zM87 16a3 3 0 100-6 3 3 0 000 6zm0 21.5a3 3 0 100-6 3 3 0 000 6zM87 59a3 3 0 100-6 3 3 0 000 6zm0 21.5a3 3 0 100-6 3 3 0 000 6zm0 21.5a3 3 0 100-6 3 3 0 000 6zm0 21.5a3 3 0 100-6 3 3 0 000 6zM108 6a3 3 0 100-6 3 3 0 000 6zm0 21.5a3 3 0 100-6 3 3 0 000 6zm0 21.5a3 3 0 100-6 3 3 0 000 6zm0 21.5a3 3 0 100-6 3 3 0 000 6zm0 21.5a3 3 0 100-6 3 3 0 000 6zm0 21.5a3 3 0 100-6 3 3 0 000 6zM129 16a3 3 0 100-6 3 3 0 000 6zm0 21.5a3 3 0 100-6 3 3 0 000 6zm0 21.5a3 3 0 100-6 3 3 0 000 6zm0 21.5a3 3 0 100-6 3 3 0 000 6zm0 21.5a3 3 0 100-6 3 3 0 000 6zm0 21.5a3 3 0 100-6 3 3 0 000 6zM150 6a3 3 0 100-6 3 3 0 000 6zm0 21.5a3 3 0 100-6 3 3 0 000 6zm0 21.5a3 3 0 100-6 3 3 0 000 6zm0 21.5a3 3 0 100-6 3 3 0 000 6zm0 21.5a3 3 0 100-6 3 3 0 000 6zm0 21.5a3 3 0 100-6 3 3 0 000 6zM171 16a3 3 0 100-6 3 3 0 000 6zm0 21.5a3 3 0 100-6 3 3 0 000 6zm0 21.5a3 3 0 100-6 3 3 0 000 6zm0 21.5a3 3 0 100-6 3 3 0 000 6zm0 21.5a3 3 0 100-6 3 3 0 000 6zm0 21.5a3 3 0 100-6 3 3 0 000 6zM192 6a3 3 0 100-6 3 3 0 000 6zm0 21.5a3 3 0 100-6 3 3 0 000 6zm0 21.5a3 3 0 100-6 3 3 0 000 6zm0 21.5a3 3 0 100-6 3 3 0 000 6zm0 21.5a3 3 0 100-6 3 3 0 000 6zm0 21.5a3 3 0 100-6 3 3 0 000 6z" fill="#BDC6D2"/></svg>