<svg width="18" height="18" fill="none" xmlns="http://www.w3.org/2000/svg"><path d="M6 9a3 3 0 116 0 3 3 0 01-6 0zM4.38 9a4.622 4.622 0 109.243 0A4.622 4.622 0 004.38 9zm8.346-4.805a1.08 1.08 0 102.161 0 1.08 1.08 0 00-2.161 0zm-7.361 12.13c-.878-.04-1.355-.185-1.672-.309a2.8 2.8 0 01-1.035-.673 2.78 2.78 0 01-.673-1.034c-.124-.317-.27-.794-.31-1.672-.043-.949-.052-1.234-.052-3.637s.01-2.688.052-3.637c.04-.878.187-1.354.31-1.672a2.8 2.8 0 01.673-1.035c.315-.315.615-.51 1.035-.673.317-.123.794-.27 1.672-.31.949-.043 1.234-.052 3.636-.052 2.404 0 2.688.01 3.638.052.877.04 1.353.188 1.671.31.42.163.72.358 1.035.673.315.315.51.615.673 1.035.124.317.27.794.31 1.672.044.95.052 1.234.052 3.637s-.008 2.688-.052 3.637c-.04.878-.187 1.355-.31 1.672a2.79 2.79 0 01-.673 1.034c-.315.315-.615.51-1.035.673-.317.124-.794.27-1.671.31-.95.043-1.234.052-3.638.052-2.402 0-2.687-.009-3.636-.052zM5.29.056C4.332.098 3.677.25 3.105.473A4.416 4.416 0 001.511 1.51 4.39 4.39 0 00.473 3.104C.25 3.677.098 4.331.055 5.29.01 6.25 0 6.556 0 9s.01 2.75.055 3.71c.043.959.195 1.613.418 2.185a4.4 4.4 0 001.038 1.594c.5.5 1.002.808 1.594 1.038.573.223 1.227.375 2.185.418C6.25 17.99 6.556 18 9 18c2.445 0 2.751-.01 3.711-.055.958-.043 1.612-.195 2.185-.418a4.426 4.426 0 001.594-1.038c.5-.5.808-1.002 1.038-1.594.223-.572.375-1.226.418-2.185.044-.96.054-1.266.054-3.71s-.01-2.75-.054-3.71c-.043-.959-.195-1.613-.418-2.185a4.426 4.426 0 00-1.038-1.594c-.5-.5-1.002-.809-1.594-1.038C14.323.25 13.67.098 12.712.055 11.752.01 11.445 0 9.002 0 6.555 0 6.25.01 5.29.055z" fill="#5A6482"/></svg>