<svg width="95" height="35" fill="none" xmlns="http://www.w3.org/2000/svg"><g clip-path="url(#clip0)" fill="#F46752"><path d="M7.966 0v14.592c1.4-1.018 2.709-1.788 3.938-2.297 1.227-.509 2.373-.763 3.44-.763 2.323 0 4.256 1.011 5.796 3.029 1.54 2.017 2.31 4.582 2.31 7.694 0 3.583-1.018 6.51-3.055 8.788-2.035 2.278-4.65 3.417-7.856 3.417a7.48 7.48 0 01-2.405-.4 7.345 7.345 0 01-2.17-1.178L2.17 34.556V8.554c0-1.336-.166-2.507-.496-3.513C1.342 4.042.782 2.985 0 1.885L7.966 0zm0 31.321a13.89 13.89 0 001.634.439 7.69 7.69 0 001.45.152c1.947 0 3.519-.789 4.714-2.367 1.196-1.578 1.788-3.69 1.788-6.325 0-2.622-.598-4.684-1.787-6.186-1.196-1.502-2.825-2.253-4.9-2.253-.343 0-.73.026-1.164.07a24.86 24.86 0 00-1.73.261V31.32h-.005v.001zm37.629-9.259H31.408v.376c0 2.952.776 5.198 2.334 6.726 1.553 1.534 3.817 2.298 6.789 2.298.661 0 1.418-.045 2.27-.128a61.076 61.076 0 002.959-.388c-1.38 1.272-2.863 2.233-4.44 2.889-1.578.649-3.239.98-4.982.98-3.301 0-5.936-1.031-7.908-3.087-1.973-2.056-2.958-4.817-2.958-8.272 0-3.506 1.03-6.37 3.098-8.591 2.067-2.221 4.733-3.334 7.997-3.334 2.792 0 5 .917 6.61 2.756 1.61 1.839 2.417 4.352 2.417 7.541v.234h.001zm-6.177-2.03c0-2.087-.318-3.709-.955-4.855-.637-1.146-1.534-1.718-2.697-1.718-1.38 0-2.442.656-3.181 1.966-.738 1.311-1.126 3.233-1.152 5.765l7.985-1.158zM55.26 0v27.224c0 1.604.145 2.901.437 3.9.292.999.744 2.018 1.355 3.055h-9.359c.611-1.069 1.063-2.106 1.356-3.124.292-1.012.438-2.291.438-3.831V8.553c0-1.336-.172-2.507-.509-3.513-.344-.999-.903-2.056-1.687-3.156L55.26 0zm12.297 0v27.224c0 1.604.146 2.901.438 3.9.293.999.745 2.018 1.354 3.055h-9.351c.61-1.069 1.063-2.106 1.355-3.124.292-1.012.438-2.291.438-3.831V8.553c0-1.336-.172-2.507-.51-3.513-.343-.999-.902-2.056-1.69-3.156L67.556 0zm4.427 23.215c0-3.538 1.074-6.37 3.226-8.496 2.149-2.132 5.02-3.194 8.601-3.194 3.441 0 6.164 1.05 8.175 3.144 2.011 2.1 3.016 4.932 3.016 8.496 0 3.595-1.069 6.471-3.206 8.616-2.138 2.145-5 3.22-8.602 3.22-3.44 0-6.17-1.063-8.187-3.182-2.012-2.12-3.023-4.99-3.023-8.604zm11.45-9.896c-1.57 0-2.805.866-3.709 2.59-.902 1.731-1.353 4.118-1.353 7.166 0 3.124.464 5.587 1.393 7.388.929 1.802 2.183 2.699 3.772 2.699 1.616 0 2.882-.866 3.791-2.604.91-1.737 1.368-4.181 1.368-7.344 0-3.124-.464-5.555-1.394-7.292-.928-1.737-2.212-2.603-3.868-2.603z"/></g><defs><clipPath id="clip0"><path fill="#fff" d="M0 0h95v35H0z"/></clipPath></defs></svg>