<svg width="26" height="18" fill="none" xmlns="http://www.w3.org/2000/svg"><path d="M13.576 17.976l-5.334-.097c-1.727-.034-3.459.034-5.152-.319C.514 17.033.332 14.452.14 12.286A37.035 37.035 0 01.477 3.12C.756 1.426 1.86.415 3.566.305c5.758-.4 11.555-.352 17.3-.166.607.017 1.218.11 1.817.217C25.636.874 25.708 3.8 25.9 6.264c.19 2.488.11 4.99-.255 7.462-.293 2.046-.853 3.762-3.217 3.928-2.962.217-5.856.391-8.827.336 0-.013-.017-.014-.025-.014zm-3.136-5.181c2.232-1.283 4.422-2.544 6.641-3.818-2.236-1.283-4.421-2.544-6.641-3.818v7.636z" fill="#5A6482"/></svg>