<svg width="176" height="67" viewBox="0 0 176 67" fill="none" xmlns="http://www.w3.org/2000/svg">
<path d="M37.4642 44.8082C37.4642 57.6849 29.6536 66.0411 16.2248 66.0411C14.4434 66.0411 10.4696 65.9041 8.00305 65.9041C5.26248 65.9041 2.38488 65.9041 0.74054 66.0411V64.8082C4.71437 64.6712 5.53654 63.9863 5.53654 59.7397V30.6986C5.53654 26.452 4.71437 25.7671 0.74054 25.6301V24.3972C2.11082 24.5342 4.30328 24.5342 6.49574 24.5342C7.04385 24.5342 7.45494 24.5342 7.86602 24.5342C10.6066 24.5342 14.4434 24.3972 16.7729 24.3972C30.6128 24.5342 37.4642 31.7945 37.4642 44.8082ZM10.7436 30.5616V60.0137C10.7436 64.1233 11.5658 65.0822 15.1285 65.0822C28.0092 65.0822 31.4349 57.9589 31.4349 45.0822C31.4349 31.9315 27.3241 25.4931 15.1285 25.4931C11.5658 25.6301 10.7436 26.589 10.7436 30.5616Z" fill="#272525"/>
<path d="M80.2171 25.6301C76.2433 25.7671 75.4211 27 75.4211 31.2466V48.9178C75.4211 54.3972 74.736 58.3698 72.9546 61.3835C71.0362 64.6712 67.0624 66.863 62.1294 66.863C58.4296 66.863 54.8668 66.0411 52.2633 63.7123C48.8376 60.4246 47.8784 57.137 47.8784 49.0548V30.6986C47.8784 26.452 47.1933 25.7671 43.0824 25.6301V24.3972C44.7267 24.5342 47.6043 24.5342 50.619 24.5342C53.3595 24.5342 56.2371 24.5342 58.1555 24.3972V25.6301C54.1817 25.7671 53.3595 26.452 53.3595 30.6986V50.1507C53.3595 58.2329 54.3187 64.8082 62.6775 64.8082C71.5843 64.8082 73.9138 58.3698 73.9138 49.6027V31.3835C73.9138 27.137 72.5435 25.9041 68.5697 25.7671V24.5342C69.94 24.6712 72.5435 24.6712 74.599 24.6712C76.6544 24.6712 78.7098 24.6712 80.0801 24.5342V25.6301H80.2171Z" fill="#272525"/>
<path d="M105.43 44.1233C114.748 45.3562 117.489 50.0137 117.489 54.6712C117.489 61.3836 112.145 66.0411 103.375 66.0411C101.594 66.0411 98.0308 65.9041 93.2348 65.9041C90.4942 65.9041 87.6166 65.9041 85.9723 66.0411V64.8082C89.9461 64.6712 90.7683 63.9863 90.7683 59.7397V30.6986C90.7683 26.452 89.9461 25.7671 85.9723 25.6301V24.3972C87.6166 24.5342 90.6313 24.5342 93.0978 24.5342C96.7975 24.5342 100.634 24.3972 102.005 24.3972C110.226 24.3972 114.474 28.2329 114.474 33.7123C114.337 37.9589 112.008 42.0685 105.43 44.1233ZM96.1124 30.6986V43.9863H100.086C107.075 43.9863 108.719 39.4657 108.719 34.3973C108.719 28.6438 106.39 25.6301 100.497 25.6301C96.7976 25.6301 96.1124 26.726 96.1124 30.6986ZM111.46 54.5342C111.46 48.5068 108.445 45.0822 100.908 45.0822H95.9754V60.0137C95.9754 64.1233 96.7975 64.9452 100.36 64.9452C108.171 64.8082 111.46 61.1096 111.46 54.5342Z" fill="#272525"/>
<path d="M154.486 61.2466C155.72 64.2603 157.364 64.9452 158.597 64.9452V66.1781C156.953 66.0411 154.486 66.0411 152.294 66.0411C149.279 66.0411 146.402 66.0411 144.757 66.1781V64.9452C147.635 64.8082 148.868 64.3972 148.868 62.7534C148.868 62.0685 148.594 61.1096 148.183 60.0137L144.62 50.4246H130.369L127.903 56.726C127.081 58.7808 126.67 60.2877 126.67 61.5205C126.67 64.1233 128.451 64.9452 131.74 65.0822V66.3151C129.547 66.1781 127.081 66.1781 124.888 66.1781C122.97 66.1781 121.737 66.1781 120.503 66.3151V65.0822C122.011 64.6712 123.792 63.4383 125.162 60.0137L139.002 24.3972H139.961L154.486 61.2466ZM137.495 31.6575L130.781 49.1918H144.072L137.495 31.6575Z" fill="#272525"/>
<path d="M176 25.6301C172.026 25.7671 171.204 26.452 171.204 30.6986V59.8767C171.204 64.1233 172.026 64.8082 176 64.9452V66.1781C174.219 66.0411 171.204 66.0411 168.463 66.0411C165.449 66.0411 162.571 66.0411 160.927 66.1781V64.9452C164.901 64.8082 165.723 64.1233 165.723 59.8767V30.6986C165.723 26.452 164.901 25.7671 160.927 25.6301V24.3972C162.571 24.5342 165.449 24.5342 168.463 24.5342C171.204 24.5342 174.082 24.5342 176 24.3972V25.6301Z" fill="#272525"/>
<path d="M9.43018 5.42383C8.90283 5.42383 8.27295 5.40918 7.70166 5.37988V5.68018C8.55859 5.70215 9.0127 5.9292 9.0127 6.58838C9.0127 6.896 8.91016 7.29883 8.7124 7.81152L6.26611 14.147L3.54883 6.93994C3.43164 6.63965 3.37305 6.4126 3.37305 6.23682C3.37305 5.81934 3.71729 5.70947 4.43506 5.68018V5.37988C4.01758 5.40918 3.29248 5.42383 2.51611 5.42383C1.94482 5.42383 1.31494 5.40918 0.912109 5.37988V5.68018C1.22705 5.69482 1.64453 5.87793 1.94482 6.63965L5.60693 16.0732C5.65088 16.0732 5.68018 16.0732 5.72412 16.0732H5.84863L9.37158 6.98389C9.71582 6.08301 10.1626 5.76807 10.5581 5.68018V5.37988C10.2578 5.40918 9.94287 5.42383 9.43018 5.42383ZM15.5014 5.37988C15.0399 5.40918 14.2855 5.42383 13.5971 5.42383C12.8207 5.42383 12.0956 5.40918 11.6781 5.37988V5.68018C12.6962 5.72412 12.8939 5.87793 12.8939 6.96924V14.4106C12.8939 15.502 12.6962 15.6558 11.6781 15.6997V16C12.0956 15.9707 12.8207 15.9561 13.5971 15.9561C14.2855 15.9561 15.0399 15.9707 15.5014 16V15.6997C14.4833 15.6558 14.2855 15.502 14.2855 14.4106V6.96924C14.2855 5.87793 14.4833 5.72412 15.5014 5.68018V5.37988ZM19.9686 11.708H21.1258C24.2312 11.708 25.0735 9.80371 25.0735 8.35352C25.0735 6.61035 23.8724 5.39453 21.4554 5.39453C21.0965 5.39453 20.137 5.42383 19.1922 5.42383C18.533 5.42383 17.7786 5.40918 17.3611 5.37988V5.68018C18.3792 5.72412 18.577 5.87793 18.577 6.96924V14.4106C18.577 15.502 18.3792 15.6558 17.3611 15.6997V16C17.7786 15.9707 18.5037 15.9561 19.2801 15.9561C20.0931 15.9561 20.9646 15.9707 21.4847 16V15.6997C20.2249 15.6558 19.9686 15.502 19.9686 14.4106V11.708ZM21.0818 5.68018C22.8982 5.68018 23.5721 6.625 23.5721 8.51465C23.5721 10.0454 23.1033 11.4077 20.9793 11.4077H19.9686V6.96924C19.9686 5.93652 20.1663 5.68018 21.0818 5.68018ZM37.3185 4.2373C36.8863 4.39111 36.3443 4.44971 35.7584 4.44971C35.4581 4.44971 35.1432 4.43506 34.8282 4.40576V4.7207C35.6998 4.7207 35.9708 5.13818 35.9708 6.03906V8.9541C35.5826 8.31689 34.8795 8.06787 34.169 8.06787C32.3673 8.06787 30.7633 9.41553 30.7779 12.1475C30.7633 14.8721 31.9645 16.2124 33.8395 16.2124C34.8795 16.2124 35.6046 15.729 35.9708 14.8354V16.1685C36.4029 16.0146 36.9449 15.9561 37.5309 15.9561C37.8312 15.9561 38.1461 15.9707 38.461 16V15.6851C37.5895 15.6851 37.3185 15.2676 37.3185 14.3667V4.2373ZM34.2716 15.7583C32.9386 15.7583 32.2208 14.5718 32.2354 12.1475C32.2208 9.61328 33.107 8.41211 34.2936 8.41211C35.0699 8.41211 35.6778 8.75635 35.9708 9.56934V14.0298C35.7364 15.165 35.026 15.7583 34.2716 15.7583ZM43.1113 8.06787C42.1519 8.06787 41.4341 8.35352 41.0093 8.63184C40.5918 8.91748 40.3062 9.26172 40.3062 9.70117C40.3062 10.2432 40.6064 10.6313 41.1191 10.6313C41.6538 10.6313 41.998 10.3311 41.998 9.81836C41.998 9.32764 41.6685 8.99805 41.2949 8.90283C41.6392 8.4707 42.269 8.36816 42.7817 8.36816C43.5581 8.36816 44.1733 8.61719 44.1733 9.87695V10.8071C44.1733 11.4077 43.3823 11.6641 42.3789 12.0815C40.8774 12.7114 39.9619 13.2388 39.9619 14.4253C39.9619 15.5972 40.8628 16.1025 41.8662 16.1025C42.584 16.1025 43.5288 15.8315 44.1733 14.7695C44.1733 15.4727 44.415 16.1025 45.4624 16.1025C46.0996 16.1025 46.4146 15.8682 46.832 15.5532L46.6636 15.2969C46.4585 15.4727 46.2607 15.6118 45.9897 15.6118C45.6455 15.6118 45.5283 15.3848 45.5283 14.9014V10.7339C45.5283 9.67188 45.4038 9.11523 44.9277 8.63184C44.5835 8.2876 43.9536 8.06787 43.1113 8.06787ZM44.1733 14.3667C43.668 15.187 43.082 15.502 42.4814 15.502C41.793 15.502 41.2803 15.0845 41.2803 14.1836C41.2803 13.0264 42.0786 12.5942 42.7378 12.2793C43.6826 11.8179 44.0122 11.6641 44.1733 11.4224V14.3667ZM50.2958 8.2876V5.78271C49.9223 5.92188 49.4389 5.98047 48.9481 5.99512V8.2876H47.5053V8.58789H48.9481V13.6123C48.9481 14.6816 49.0946 15.2676 49.5341 15.7144C49.8637 16.0439 50.2665 16.2124 50.955 16.2124C52.1708 16.2124 52.6981 15.3115 52.9032 14.1396L52.6103 14.0664C52.2953 15.2383 51.8559 15.6704 51.2553 15.6704C50.6547 15.6704 50.2958 15.3408 50.2958 14.396V8.58789H52.515V8.2876H50.2958ZM55.5101 4.52295C54.9827 4.52295 54.5506 4.9624 54.5506 5.48242C54.5506 6.00977 54.9827 6.44189 55.5101 6.44189C56.0301 6.44189 56.4695 6.00977 56.4695 5.48242C56.4695 4.9624 56.0301 4.52295 55.5101 4.52295ZM56.2864 8.11182C55.8543 8.2583 55.3123 8.31689 54.7264 8.31689C54.4261 8.31689 54.1111 8.30225 53.7962 8.27295V8.58789C54.6678 8.58789 54.9388 9.0127 54.9388 9.91357V14.6084C54.9388 15.4434 54.6238 15.6851 53.7962 15.6851V16C54.1404 15.9854 54.9241 15.9414 55.6126 15.9414C56.3011 15.9414 57.0848 15.9854 57.429 16V15.6851C56.6014 15.6851 56.2864 15.4434 56.2864 14.6084V8.11182ZM63.8371 8.06787C62.8117 8.06787 61.8083 8.5293 61.281 9.87695V8.11182C60.8488 8.2583 60.3068 8.31689 59.7209 8.31689C59.4206 8.31689 59.1057 8.30225 58.7907 8.27295V8.58789C59.6623 8.58789 59.9333 9.0127 59.9333 9.91357V14.6084C59.9333 15.4434 59.6184 15.6851 58.7907 15.6851V16C59.135 15.9854 59.9333 15.9414 60.5925 15.9414C61.2517 15.9414 61.9621 15.9854 62.2771 16V15.6851C61.552 15.6851 61.281 15.4434 61.281 14.6084V11.2759C61.281 9.74512 62.1232 8.54395 63.383 8.54395C64.467 8.54395 64.5988 9.34229 64.5988 10.2725V14.6084C64.5988 15.4434 64.3278 15.6851 63.6101 15.6851V16C63.925 15.9854 64.6281 15.9414 65.2873 15.9414C65.9465 15.9414 66.7448 15.9854 67.0891 16V15.6851C66.2614 15.6851 65.9465 15.4434 65.9465 14.6084V10.6021C65.9465 9.57666 65.8 9.04199 65.4265 8.63184C65.0822 8.27295 64.5988 8.06787 63.8371 8.06787ZM70.1427 14.3521C69.63 14.3521 69.4249 14.1836 69.4249 13.854C69.4249 13.3926 70.0108 13.0264 70.6847 12.6675C71.0143 12.7627 71.3878 12.8066 71.7906 12.8066C73.3653 12.8066 74.5665 12.0815 74.5665 10.4336C74.5665 9.29834 73.9952 8.60254 73.1236 8.28027C73.1603 8.03125 73.2262 7.82617 73.2774 7.65771C73.402 7.29883 73.5338 7.05713 73.6803 6.92529C73.7755 7.51123 73.9366 7.87012 74.4786 7.87012C74.8961 7.87012 75.1964 7.55518 75.1964 7.15234C75.1964 6.71289 74.9254 6.36865 74.4054 6.36865C73.9659 6.36865 73.6217 6.56641 73.38 6.8667C73.1529 7.16699 72.9552 7.63574 72.8526 8.19971C72.5304 8.11182 72.1715 8.06787 71.7906 8.06787C70.2159 8.06787 69.0221 8.78564 69.0221 10.4336C69.0221 11.5542 69.5714 12.2427 70.4137 12.5723C68.9855 13.2168 68.5387 13.8247 68.5387 14.4692C68.5387 15.4727 69.5128 15.6118 70.0401 15.6118H70.0914C69.1393 16.0439 68.2091 16.7104 68.2091 17.4429C68.2091 18.3584 69.7105 18.8198 71.2267 18.8198C74.1344 18.8198 75.4234 17.0767 75.4234 15.7437C75.4234 14.6963 74.6105 14.3521 73.6656 14.3521H70.1427ZM71.7906 8.33154C72.6329 8.33154 73.1603 8.82959 73.1603 10.4336C73.1603 12.0376 72.6329 12.5356 71.7906 12.5356C70.9557 12.5356 70.4283 12.0376 70.4283 10.4336C70.4283 8.82959 70.9557 8.33154 71.7906 8.33154ZM71.6295 18.5635C70.6261 18.5635 69.4396 18.146 69.4396 17.1279C69.4396 16.5713 69.7984 15.9487 70.4576 15.6118H73.2481C74.1637 15.6118 74.3907 15.8975 74.3907 16.4468C74.3907 17.8896 72.8893 18.5635 71.6295 18.5635ZM82.7831 4.52295C82.2558 4.52295 81.8236 4.9624 81.8236 5.48242C81.8236 6.00977 82.2558 6.44189 82.7831 6.44189C83.3031 6.44189 83.7426 6.00977 83.7426 5.48242C83.7426 4.9624 83.3031 4.52295 82.7831 4.52295ZM83.5595 8.11182C83.1273 8.2583 82.5854 8.31689 81.9994 8.31689C81.6991 8.31689 81.3842 8.30225 81.0692 8.27295V8.58789C81.9408 8.58789 82.2118 9.0127 82.2118 9.91357V14.6084C82.2118 15.4434 81.8969 15.6851 81.0692 15.6851V16C81.4135 15.9854 82.1972 15.9414 82.8856 15.9414C83.5741 15.9414 84.3578 15.9854 84.702 16V15.6851C83.8744 15.6851 83.5595 15.4434 83.5595 14.6084V8.11182ZM91.1102 8.06787C90.0848 8.06787 89.0813 8.5293 88.554 9.87695V8.11182C88.1219 8.2583 87.5799 8.31689 86.9939 8.31689C86.6936 8.31689 86.3787 8.30225 86.0638 8.27295V8.58789C86.9353 8.58789 87.2063 9.0127 87.2063 9.91357V14.6084C87.2063 15.4434 86.8914 15.6851 86.0638 15.6851V16C86.408 15.9854 87.2063 15.9414 87.8655 15.9414C88.5247 15.9414 89.2352 15.9854 89.5501 16V15.6851C88.825 15.6851 88.554 15.4434 88.554 14.6084V11.2759C88.554 9.74512 89.3963 8.54395 90.6561 8.54395C91.74 8.54395 91.8719 9.34229 91.8719 10.2725V14.6084C91.8719 15.4434 91.6009 15.6851 90.8831 15.6851V16C91.198 15.9854 91.9012 15.9414 92.5603 15.9414C93.2195 15.9414 94.0179 15.9854 94.3621 16V15.6851C93.5345 15.6851 93.2195 15.4434 93.2195 14.6084V10.6021C93.2195 9.57666 93.073 9.04199 92.6995 8.63184C92.3553 8.27295 91.8719 8.06787 91.1102 8.06787Z" fill="#272525"/>
</svg>
